<?xml version="1.0" encoding="UTF-8"?>
<svg id="Layer_1" data-name="Layer 1" xmlns="http://www.w3.org/2000/svg" viewBox="0 0 170.08 170.08">
  <path d="M85.04,56.69c-15.66,0-28.35,12.77-28.35,28.35s12.77,28.35,28.35,28.35,28.35-12.77,28.35-28.35-12.77-28.35-28.35-28.35ZM85.04,102.15c-9.45,0-17.11-7.66-17.11-17.11s7.66-17.11,17.11-17.11,17.11,7.66,17.11,17.11-7.66,17.11-17.11,17.11Z" fill="#fff"/>
  <path d="M92.87,84.19l-11.83-6.81c-.34-.17-.68-.17-1.02,0-.34.17-.51.51-.51.85v13.62c0,.34.17.68.51.85.17.09.34.17.51.17s.34-.09.51-.17l11.83-6.81c.34-.17.51-.51.51-.85,0-.34-.17-.68-.51-.85Z" fill="#fff"/>
</svg>