<?xml version="1.0" encoding="UTF-8"?>
<svg id="Layer_1" data-name="Layer 1" xmlns="http://www.w3.org/2000/svg" width="300" height="100" viewBox="0 0 300 100">
  <path d="M108.22,37.2c-7.07,0-12.8,5.73-12.8,12.8s5.73,12.8,12.8,12.8,12.8-5.73,12.8-12.8-5.73-12.8-12.8-12.8ZM104.55,56.06v-12.31l11.19,6.09-11.19,6.22Z" fill="#fff"/>
  <path d="M166.87,45.13c-3.44,0-5.32,2.9-5.32,6.41s1.84,6.41,5.25,6.41,5.25-2.86,5.25-6.41-1.77-6.41-5.18-6.41Z" fill="#fff"/>
  <path d="M191.78,20.39h-83.56c-16.35,0-29.61,13.26-29.61,29.61h0c0,16.35,13.26,29.61,29.61,29.61h83.56c16.35,0,29.61-13.26,29.61-29.61h0c0-16.35-13.26-29.61-29.61-29.61ZM108.22,71.2c-11.65,0-21.2-9.49-21.2-21.2s9.49-21.2,21.2-21.2,21.2,9.49,21.2,21.2-9.49,21.2-21.2,21.2ZM146.37,38.59h-4.02c-.55,0-.85.31-.85.95v2.9h3.99v3h-3.99v15.24h-3.68v-15.24h-2.18v-3h2.18v-2.9c0-2.52,1.6-3.92,4.06-3.92h4.5v2.97ZM155.92,60.68h-3.72c-2.05,0-3.14-1.3-3.14-3.99v-21.04h3.72v20.83c0,.68.14.89.68.89h2.45v3.31ZM166.76,61.16c-5.22,0-8.76-4.02-8.76-9.62s3.65-9.62,8.9-9.62,8.69,4.13,8.69,9.58-3.61,9.65-8.83,9.65ZM199.6,60.68h-5.35l-3.72-13.47-3.92,13.47h-5.32l-5.05-18.24h3.68l4.16,15.21h.27l4.26-15.21h3.85l4.5,15.21h.31l4.06-15.21h3.55l-5.28,18.24Z" fill="#fff"/>
</svg>