<?xml version="1.0" encoding="UTF-8"?>
<svg id="Layer_1" data-name="Layer 1" xmlns="http://www.w3.org/2000/svg" width="300" height="100" viewBox="0 0 300 100">
  <rect x="78.61" y="20.39" width="142.77" height="59.21" rx="29.61" ry="29.61" fill="#00e6c2"/>
  <g>
    <path d="M108.22,28.8c-11.72,0-21.2,9.55-21.2,21.2s9.55,21.2,21.2,21.2,21.2-9.55,21.2-21.2-9.49-21.2-21.2-21.2ZM108.22,62.8c-7.07,0-12.8-5.73-12.8-12.8s5.73-12.8,12.8-12.8,12.8,5.73,12.8,12.8-5.73,12.8-12.8,12.8Z" fill="#fff"/>
    <polygon points="104.55 56.06 115.74 49.84 104.55 43.75 104.55 56.06" fill="#fff"/>
    <path d="M137.81,39.54v2.9h-2.18v3h2.18v15.24h3.68v-15.24h3.99v-3h-3.99v-2.9c0-.65.31-.95.85-.95h4.02v-2.97h-4.5c-2.45,0-4.06,1.4-4.06,3.92Z" fill="#fff"/>
    <path d="M152.78,56.49v-20.83h-3.72v21.04c0,2.69,1.09,3.99,3.14,3.99h3.72v-3.31h-2.45c-.55,0-.68-.2-.68-.89Z" fill="#fff"/>
    <path d="M166.9,41.93c-5.25,0-8.9,3.99-8.9,9.62s3.55,9.62,8.76,9.62,8.83-4.23,8.83-9.65-3.44-9.58-8.69-9.58ZM166.8,57.95c-3.41,0-5.25-2.9-5.25-6.41s1.88-6.41,5.32-6.41,5.18,2.9,5.18,6.41-1.91,6.41-5.25,6.41Z" fill="#fff"/>
    <polygon points="201.34 42.44 197.28 57.65 196.98 57.65 192.47 42.44 188.62 42.44 184.36 57.65 184.09 57.65 179.93 42.44 176.24 42.44 181.29 60.68 186.61 60.68 190.53 47.21 194.25 60.68 199.6 60.68 204.89 42.44 201.34 42.44" fill="#fff"/>
  </g>
</svg>