<?xml version="1.0" encoding="UTF-8"?>
<svg id="Layer_1" data-name="Layer 1" xmlns="http://www.w3.org/2000/svg" viewBox="0 0 967.9 200">
  <path d="M146.3,60.9h-79.6v31.7c0,34.4,28,62.4,62.4,62.4v-6c-31.1-.1-56.4-25.3-56.4-56.4v-25.7h73.6c6.2,0,11.9,5.1,11.9,10.7v49.6h-29.2c-19.1,0-34.6-15.5-34.6-34.6h-6c0,22.4,18.2,40.6,40.6,40.6h35.2v-55.6c0-8.9-8.4-16.7-17.9-16.7Z" fill="#5a50f9"/>
  <path d="M129,105.5c-7.1,0-12.9-5.8-12.9-12.9h-6c0,10.4,8.5,18.9,18.9,18.9v-6Z" fill="#5a50f9"/>
  <path d="M309.6,66.8c-8.9,0-17.1,3.3-23,9.3-6,6.1-9.3,14.6-9.3,23.9s2.8,17.8,8.2,23.6c5.7,6.3,14.2,9.6,24.6,9.6,12.1,0,23.3-6.9,28.3-17.6l.3-.7-11.2-5.1-.3.6c-3.5,6.7-9.5,10.3-17.3,10.3-13,0-17.2-8.3-18.3-15.5h47.8v-6.6c0-9.2-2.6-17.1-7.6-22.7-5.3-6-13-9.1-22.2-9.1ZM291.6,94.5c1.6-10.1,8-15.9,17.7-15.9,4.7,0,8.7,1.5,11.6,4.4,2.8,2.8,4.4,6.8,4.6,11.5h-33.9Z" fill="#5a50f9"/>
  <path d="M239,66.5c-11.6,0-20.6,5.9-23.7,15.4v-13.7h-11.8v86.2h12.9v-32.2c2.8,5.4,10.4,10.8,21.4,10.8,7.5,0,15-3.4,20.4-9.3,5.8-6.3,9-15,9-24.4.1-18.7-12-32.8-28.2-32.8ZM236.3,121c-11.1,0-18.6-8.5-18.6-21.2s7.8-21.2,19.4-21.2c10.1,0,16.9,8.3,16.9,20.7-.1,12.7-7.3,21.7-17.7,21.7Z" fill="#5a50f9"/>
  <path d="M360.2,81v-12.6h-11.4v63.1h12.9v-39c0-7.4,3.7-11.2,11-11.2h10.4v-13h-6.3c-6.4,0-13.4,1.6-16.6,12.7Z" fill="#5a50f9"/>
  <path d="M419.2,96.3c-8.1-2-15-3.8-15-9.8,0-5.2,4.2-8.5,11-8.5,6.4,0,11.7,3.8,14.1,10.2l10.5-6.4c-1.6-3.6-3.9-6.8-6.9-9.2-4.7-3.9-10.5-5.8-17.4-5.8-6.4,0-12.5,1.9-17,5.4-4.9,3.7-7.6,8.8-7.6,14.5,0,14.1,12.6,17.2,22.7,19.8,7.5,1.9,14,3.5,13.8,8.8-.1,4.2-4.6,6.9-11.5,6.9-7.8,0-13.6-4.1-16.1-11.5l-.3-.7-11.8,4.6.2.7c3.9,11.6,14,18.3,27.8,18.3,14.8,0,24.8-7.6,24.9-18.8.3-13.1-11.2-16-21.4-18.5Z" fill="#5a50f9"/>
  <path d="M556.8,66.5c-9.5,0-17.9,6.1-21.2,15.3v-13.4h-11.8v63.1h12.9v-30.9c0-13.5,6.4-21.6,17.1-21.6,8.1,0,13.1,5.8,13.1,15.1v37.4h12.9v-37.2c-.1-17.4-8.6-27.8-23-27.8Z" fill="#5a50f9"/>
  <path d="M643.2,118.1v-27.6c0-14.5-9.7-23.8-24.7-23.8-12.1,0-21.9,6-27.9,16.9l11,4.6c4.4-6.6,10-10,16.4-10,7.7,0,12.3,4.4,12.3,11.7v5.4h-14.1c-6.7,0-13,1.7-17.7,4.8-5.4,3.6-8.2,8.6-8.2,14.6,0,11,8,18.4,19.9,18.4,9.5,0,17.5-5.6,20.9-14.6v1.5c0,7.7,3.5,11.7,10.1,11.7h8.9v-11.3h-5.5c-1-.1-1.4-.1-1.4-2.3ZM612.4,121.7c-5.6,0-9.2-3-9.2-7.9,0-2.1.8-4,2.2-5.4,2.5-2.4,7-3.8,12.6-3.8h12.3c-.4,9-8.8,17.1-17.9,17.1Z" fill="#5a50f9"/>
  <path d="M671,117.1l-.1-71.7h-12.9l.1,68.4c0,6.1,1,10.2,3.3,13.1,2.5,3.2,6.7,4.7,12.8,4.7h9.3v-12.3h-11c-1.3-.1-1.5-.1-1.5-2.2Z" fill="#5a50f9"/>
  <path d="M481,66.7c-18.4,0-33.3,15-33.3,33.3s15,33.3,33.3,33.3,33.3-15,33.3-33.3-14.9-33.3-33.3-33.3ZM481,120.9c-11.5,0-20.9-9.4-20.9-20.9s9.4-20.9,20.9-20.9,20.9,9.4,20.9,20.9-9.4,20.9-20.9,20.9Z" fill="#5a50f9"/>
  <path d="M745.8,65.8c-12.5,0-19.7,7.6-23,15.8h-.5v-14h-5.9v87.4h5.9v-38.1h.6c3,8.4,10.3,16.1,22.5,16.1,16.1,0,28.4-13,28.4-33.4.1-19.9-11.5-33.8-28-33.8ZM745.2,127c-14.9,0-22.4-13-22.4-27.4s8.1-27.9,22.8-27.9c13.2,0,21.6,11.2,21.6,27.9.2,17.6-9.1,27.4-22,27.4Z" fill="#5a50f9"/>
  <path d="M833.4,123.3v-35.4c0-12.1-7.6-22-22.4-22-12,0-22.8,7.1-27.6,19.1l5.7,2.7c4-10.6,13.2-15.7,21.6-15.7,10.3,0,16.2,6.4,16.2,15.8v8.2h-16.2c-16.1,0-27.4,7.1-27.4,18.9s8.9,17.8,19.9,17.8,19.1-7,23.1-16.6h1l-.1,6.3c0,5.7,1.8,8.9,7,8.9h6.3v-5.9h-5.7c-.7,0-1.4-.9-1.4-2.1ZM804.2,126.5c-7.8,0-14.3-3.3-14.3-11.7,0-8.9,9.6-13.6,21-13.6h16.1c-1.5,15.1-11.6,25.3-22.8,25.3Z" fill="#5a50f9"/>
  <path d="M894.6,67.6v.1l-21.6,58.3h-.8l-21.4-58.3h-6.7l23.3,63.6h3.6l-3.7,9.5c-1.5,3.9-3.4,6.5-6.7,6.5h-10.6v5.9h11.4c5.4,0,8.3-3.6,11.1-10.6l28.8-75h-6.7Z" fill="#5a50f9"/>
</svg>