<?xml version="1.0" encoding="UTF-8"?>
<svg id="Layer_1" xmlns="http://www.w3.org/2000/svg" version="1.1" viewBox="0 0 56.7 56.7">
  <!-- Generator: Adobe Illustrator 29.0.1, SVG Export Plug-In . SVG Version: 2.1.0 Build 192)  -->
  <path d="M16.1,19.4h-3.5c0,13,10.6,23.6,23.6,23.6h20.5V10.7c0-5.2-4.9-9.7-10.4-9.7H0v18.4c0,20,16.3,36.3,36.3,36.3v-3.5c-18.1,0-32.8-14.7-32.8-32.8V4.5h42.8c3.6,0,6.9,3,6.9,6.2v28.8h-17c-11.1,0-20.1-9-20.1-20.1Z"/>
  <path d="M36.2,26.9c-4.1,0-7.5-3.4-7.5-7.5h-3.5c0,6,4.9,11,11,11v-3.5Z"/>
</svg>