<?xml version="1.0" encoding="UTF-8"?>
<svg id="Layer_1" data-name="Layer 1" xmlns="http://www.w3.org/2000/svg" viewBox="0 0 310.81 304.26">
  <path d="M181.14,147.51c-13.45,0-24.39-10.94-24.39-24.39h-11.4c0,19.73,16.05,35.78,35.78,35.78v-11.4Z" fill="#fff"/>
  <path d="M213.87,63.1H63.1v60.02c0,65.09,52.95,118.04,118.04,118.04v-11.4c-58.8,0-106.64-47.84-106.64-106.64v-48.63h139.38c11.74,0,22.44,9.62,22.44,20.18v93.93h-55.17c-36.1,0-65.47-29.38-65.47-65.48h-11.4c0,42.39,34.48,76.87,76.87,76.87h0s66.57,0,66.57,0v-105.33c0-16.82-15.81-31.57-33.83-31.57Z" fill="#fff"/>
</svg>