<?xml version="1.0" encoding="UTF-8"?>
<svg id="Layer_1" data-name="Layer 1" xmlns="http://www.w3.org/2000/svg" viewBox="0 0 372.6 200">
  <path d="M171.5,66.7c-18.4,0-33.3,15-33.3,33.3s15,33.3,33.3,33.3,33.3-15,33.3-33.3-15-33.3-33.3-33.3ZM171.5,120.1c-11.1,0-20.1-9-20.1-20.1s9-20.1,20.1-20.1,20.1,9,20.1,20.1-9,20.1-20.1,20.1Z" fill="#fff"/>
  <path d="M78.1,48.8c-2.6,2.4-3.9,6-3.9,10.3v10.7h-7.4v11.3h7.4v50.6h13.6v-50.6h13.6v-11.3h-13.7v-10.7c0-1.9.8-2.7,2.4-2.7h14.3v-11.2h-15.9c-4.3,0-7.9,1.2-10.4,3.6Z" fill="#fff"/>
  <path d="M124.5,118.9c-.3-.3-.4-1-.4-2.1V45.3h-13.7v72.3c0,4.7,1,8.2,2.8,10.6,1.9,2.4,4.7,3.6,8.4,3.6h13.2v-12.4h-8.9c-1,0-1.3-.3-1.4-.5Z" fill="#fff"/>
  <polygon points="292.7 68.4 278.8 120.3 278.6 120.3 263.4 68.8 263.3 68.4 249.3 68.4 234.8 120.3 234.6 120.3 220.1 68.4 205.6 68.4 224.2 131.3 224.3 131.7 243.2 131.7 256.2 87.2 268.5 131.7 287.6 131.7 305.9 68.4 292.7 68.4" fill="#fff"/>
  <path d="M180.7,99l-13.9-8c-.4-.2-.8-.2-1.2,0s-.6.6-.6,1v16c0,.4.2.8.6,1,.2.1.4.2.6.2s.4-.1.6-.2l13.9-8c.4-.2.6-.6.6-1,0-.4-.2-.8-.6-1Z" fill="#fff"/>
</svg>