<?xml version="1.0" encoding="UTF-8"?>
<svg id="Layer_1" xmlns="http://www.w3.org/2000/svg" version="1.1" viewBox="0 0 56.7 56.7">
  <!-- Generator: Adobe Illustrator 29.0.1, SVG Export Plug-In . SVG Version: 2.1.0 Build 192)  -->
  <defs>
    <style>
      .st0 {
        fill: #fff;
      }
    </style>
  </defs>
  <path class="st0" d="M28.3,0C12.7,0,0,12.8,0,28.3s12.8,28.3,28.3,28.3,28.3-12.8,28.3-28.3S43.9,0,28.3,0ZM28.3,45.5c-9.4,0-17.1-7.7-17.1-17.1s7.7-17.1,17.1-17.1,17.1,7.7,17.1,17.1-7.7,17.1-17.1,17.1Z"/>
  <path class="st0" d="M36.2,27.5l-11.8-6.8c-.3-.2-.7-.2-1,0-.3.2-.5.5-.5.9v13.6c0,.3.2.7.5.9s.3.2.5.2.3,0,.5-.2l11.8-6.8c.3-.2.5-.5.5-.9,0-.3-.2-.7-.5-.9Z"/>
</svg>