<?xml version="1.0" encoding="UTF-8"?>
<svg id="Layer_1" data-name="Layer 1" xmlns="http://www.w3.org/2000/svg" width="300" height="100" viewBox="0 0 300 100">
  <rect x="70.02" y="20.39" width="159.96" height="59.21" rx="29.61" ry="29.61"/>
  <g>
    <path d="M99.63,28.8c-11.72,0-21.2,9.55-21.2,21.2s9.55,21.2,21.2,21.2,21.2-9.55,21.2-21.2-9.49-21.2-21.2-21.2ZM99.63,62.8c-7.07,0-12.8-5.73-12.8-12.8s5.73-12.8,12.8-12.8,12.8,5.73,12.8,12.8-5.73,12.8-12.8,12.8Z" fill="#fff"/>
    <rect x="91.61" y="48.94" width="3.85" height="5.33" fill="#fff"/>
    <rect x="97.75" y="46.14" width="3.85" height="8.13" fill="#fff"/>
    <rect x="103.79" y="43.62" width="3.85" height="10.66" fill="#fff"/>
    <path d="M150.91,41.93c-3.17,0-5.32,1.88-6.24,4.47h-.24c-.68-2.66-2.49-4.47-5.52-4.47s-5.29,1.77-6.04,4.02h-.24v-3.51h-3.41v18.24h3.72v-9.51c0-2.59,1.43-6.1,4.53-6.1,2.32,0,3.78,1.4,3.78,4.64v10.98h3.72v-9.82c0-2.45,1.53-5.8,4.77-5.8,2.63,0,3.55,1.98,3.55,4.64v10.98h3.72v-11.49c0-4.5-2.18-7.26-6.1-7.26Z" fill="#fff"/>
    <path d="M169.22,41.93c-5.25,0-8.9,3.99-8.9,9.62s3.55,9.62,8.76,9.62,8.83-4.23,8.83-9.65-3.44-9.58-8.69-9.58ZM169.11,57.95c-3.41,0-5.25-2.9-5.25-6.41s1.88-6.41,5.32-6.41,5.18,2.9,5.18,6.41-1.91,6.41-5.25,6.41Z" fill="#fff"/>
    <polygon points="174.98 35.31 174.98 34.84 171.09 34.84 167.79 39.88 170.79 39.88 174.98 35.31" fill="#fff"/>
    <polygon points="187.39 57.54 187.12 57.54 182.24 42.44 178.56 42.44 184.56 60.68 189.68 60.68 195.71 42.44 192.17 42.44 187.39 57.54" fill="#fff"/>
    <path d="M199.84,34.97c-1.36,0-2.45,1.02-2.45,2.32,0,1.36,1.13,2.39,2.49,2.39s2.42-1.02,2.42-2.39-1.13-2.32-2.46-2.32Z" fill="#fff"/>
    <rect x="198" y="42.4" width="3.68" height="18.28" fill="#fff"/>
    <path d="M210.72,57.37c-.55,0-.68-.2-.68-.89v-20.83h-3.72v21.04c0,2.69,1.09,3.99,3.14,3.99h3.72v-3.31h-2.45Z" fill="#fff"/>
  </g>
</svg>