<?xml version="1.0" encoding="UTF-8"?>
<svg id="Layer_1" data-name="Layer 1" xmlns="http://www.w3.org/2000/svg" width="300" height="100" viewBox="0 0 300 100">
  <path d="M200.37,20.39h-100.74c-16.35,0-29.61,13.26-29.61,29.61h0c0,16.35,13.26,29.61,29.61,29.61h100.74c16.35,0,29.61-13.26,29.61-29.61h0c0-16.35-13.26-29.61-29.61-29.61ZM171.09,34.84h3.89v.48l-4.19,4.57h-3l3.31-5.05ZM99.63,71.2c-11.65,0-21.2-9.49-21.2-21.2s9.49-21.2,21.2-21.2,21.2,9.49,21.2,21.2-9.49,21.2-21.2,21.2ZM157.01,60.68h-3.72v-10.98c0-2.66-.92-4.64-3.55-4.64-3.24,0-4.77,3.34-4.77,5.8v9.82h-3.72v-10.98c0-3.24-1.47-4.64-3.78-4.64-3.1,0-4.53,3.51-4.53,6.1v9.51h-3.72v-18.24h3.41v3.51h.24c.75-2.25,2.97-4.02,6.04-4.02s4.84,1.81,5.52,4.47h.24c.92-2.59,3.07-4.47,6.24-4.47,3.92,0,6.1,2.76,6.1,7.26v11.49ZM169.08,61.16c-5.22,0-8.76-4.02-8.76-9.62s3.65-9.62,8.9-9.62,8.69,4.13,8.69,9.58-3.61,9.65-8.83,9.65ZM189.68,60.68h-5.11l-6-18.24h3.68l4.88,15.11h.27l4.77-15.11h3.55l-6.04,18.24ZM201.68,60.68h-3.68v-18.28h3.68v18.28ZM199.87,39.68c-1.36,0-2.49-1.02-2.49-2.39s1.09-2.32,2.45-2.32,2.46,1.02,2.46,2.32c0,1.36-1.09,2.39-2.42,2.39ZM213.17,60.68h-3.72c-2.05,0-3.14-1.3-3.14-3.99v-21.04h3.72v20.83c0,.68.14.89.68.89h2.45v3.31Z" fill="#fff"/>
  <path d="M169.18,45.13c-3.44,0-5.32,2.9-5.32,6.41s1.84,6.41,5.25,6.41,5.25-2.86,5.25-6.41-1.77-6.41-5.18-6.41Z" fill="#fff"/>
  <path d="M99.63,37.2c-7.07,0-12.8,5.73-12.8,12.8s5.73,12.8,12.8,12.8,12.8-5.73,12.8-12.8-5.73-12.8-12.8-12.8ZM95.46,54.27h-3.85v-5.33h3.85v5.33ZM101.61,54.27h-3.85v-8.13h3.85v8.13ZM107.65,54.27h-3.85v-10.66h3.85v10.66Z" fill="#fff"/>
</svg>