<?xml version="1.0" encoding="UTF-8"?>
<svg id="Layer_1" data-name="Layer 1" xmlns="http://www.w3.org/2000/svg" width="300" height="135" viewBox="0 0 300 135">
  <path d="M99.03,47.53c-3.18,0-6.14,1.27-8.35,3.56-2.21,2.32-3.41,5.5-3.41,8.95s1.12,6.66,3.29,8.91c2.21,2.32,5.32,3.52,8.95,3.52,1.91,0,3.82-.41,5.54-1.2,1.76-.82,3.26-1.98,4.45-3.48l.11-.15-2.96-2.99-.15.19c-1.61,1.87-3.97,2.92-6.48,2.92-4.34,0-6.74-1.83-7.3-5.62h17.18v-.19c.04-1.65.04-2.25.04-3.11,0-3.03-1.01-5.84-2.88-7.94-2.02-2.21-4.79-3.37-8.05-3.37ZM92.67,58.09c.52-3.78,2.66-5.62,6.44-5.62,3.26,0,5.54,2.25,5.73,5.62h-12.17Z"/>
  <path d="M163.08,72.47c6.89,0,12.47-5.62,12.47-12.47s-5.58-12.47-12.47-12.47-12.47,5.62-12.47,12.47,5.62,12.47,12.47,12.47ZM163.08,52.48c4.16,0,7.52,3.37,7.52,7.52s-3.37,7.52-7.52,7.52-7.52-3.37-7.52-7.52,3.37-7.52,7.52-7.52Z"/>
  <path d="M73.5,47.46c-3.59,0-6.25,1.72-7.86,5.13h-.19l-.11-4.49h-4.19v32.19h5.02v-12.8h.15c.64,1.42,1.5,2.58,2.55,3.41,1.35,1.05,2.99,1.57,4.87,1.57,2.88,0,5.5-1.24,7.41-3.48,1.95-2.28,2.99-5.5,2.99-9.06s-1.09-6.74-2.99-8.98c-1.91-2.21-4.64-3.48-7.64-3.48ZM72.6,67.71c-1.91,0-3.56-.79-4.68-2.28-1.05-1.39-1.65-3.29-1.65-5.39s.6-4.08,1.72-5.5c1.16-1.5,2.81-2.28,4.75-2.28,1.8,0,3.37.75,4.49,2.17,1.12,1.42,1.72,3.37,1.72,5.65-.04,4.57-2.58,7.64-6.36,7.64Z"/>
  <path d="M118.69,52.44h-.15l-.3-4.27h-4.31v23.7h5.13v-13.7c0-3.11,1.27-4.45,4.19-4.45h3.29v-5.58h-1.65c-3.29,0-5.35,1.42-6.21,4.31Z"/>
  <path d="M138.04,51.46c2.81,0,4.98,1.5,5.95,4.08l.07.19,4.01-1.5-.07-.19c-.86-2.1-2.13-3.74-3.78-4.9-1.68-1.16-3.74-1.72-6.06-1.72-2.13,0-4.27.71-5.84,1.95-1.72,1.35-2.7,3.29-2.7,5.39s.75,3.71,2.17,4.98c1.24,1.09,2.96,1.91,5.28,2.51.19.04.34.07.52.11,1.42.3,2.77.6,3.74,1.09,1.01.52,1.5,1.16,1.5,2.1,0,1.83-2.21,2.66-4.38,2.66-2.88,0-5.54-1.53-6.96-4.01l-.11-.19-3.71,2.02.07.19c.86,1.87,2.32,3.44,4.16,4.53,1.87,1.09,4.12,1.65,6.51,1.65,2.58,0,4.9-.64,6.63-1.8,1.87-1.27,2.88-3.07,2.88-5.2.04-2.02-.82-3.63-2.55-4.83-1.61-1.12-3.78-1.8-5.5-2.21-2.66-.75-5.65-1.57-5.65-3.89.07-1.46,1.46-2.99,3.82-2.99Z"/>
  <path d="M184.05,58.65c0-1.01.41-2.66,1.39-4.08.79-1.16,2.21-2.55,4.57-2.55,1.61,0,2.73.45,3.48,1.42.71.94,1.05,2.28,1.05,4.23v14.23h5.13v-14.9c0-2.96-.67-5.28-2.02-6.93-1.35-1.68-3.37-2.55-5.95-2.55-1.8,0-3.48.52-4.87,1.53-1.27.9-2.28,2.13-2.96,3.59h-.22v-4.49h-4.75v23.7h5.17v-13.21Z"/>
  <path d="M226.24,71.83v-4.04h-1.98c-.34.04-.41-.3-.41-.6v-10.67c0-2.62-.82-4.87-2.43-6.48-1.65-1.65-4.01-2.55-6.89-2.55-5.13,0-8.69,2.32-10.86,7.11l-.07.19,4.45,2.1.07-.19c1.24-2.62,3.63-4.42,5.95-4.42,2.62,0,4.6,1.76,4.6,4.08v1.68h-5.43c-6.06,0-9.81,2.92-9.81,7.6,0,2.02.75,3.78,2.21,4.98,1.35,1.16,3.22,1.8,5.32,1.8,1.91,0,3.74-.56,5.24-1.61,1.39-.94,2.47-2.28,3.22-3.86h.19l-.04,1.27c0,2.36,1.16,3.59,3.33,3.59h3.33ZM216.24,66.21c-1.24.97-2.77,1.61-3.86,1.61-1.01,0-1.95-.22-2.62-.67-.71-.45-1.05-1.09-1.05-1.83,0-1.01.6-1.76,1.8-2.28,1.09-.49,2.62-.71,4.42-.71h3.78c-.22,1.42-1.09,2.81-2.47,3.89Z"/>
  <path d="M235.48,67.26c-.37,0-.49-.07-.52-.15-.07-.11-.15-.37-.15-.79v-26.8h-5.13v27.07c0,1.76.37,3.07,1.09,3.97.71.9,1.76,1.35,3.14,1.35h4.94v-4.64h-3.37Z"/>
  <path d="M163.08,90.43c-6.89,0-12.47,5.62-12.47,12.47s5.62,12.47,12.47,12.47,12.47-5.62,12.47-12.47-5.58-12.47-12.47-12.47ZM163.08,110.42c-4.16,0-7.52-3.37-7.52-7.52s3.37-7.52,7.52-7.52,7.52,3.37,7.52,7.52-3.37,7.52-7.52,7.52Z"/>
  <rect x="158.37" y="102.28" width="2.27" height="3.13"/>
  <rect x="161.98" y="100.63" width="2.27" height="4.78"/>
  <rect x="165.53" y="99.14" width="2.27" height="6.27"/>
  <path d="M193.23,98.15c-1.86,0-3.13,1.1-3.67,2.63h-.14c-.4-1.56-1.46-2.63-3.25-2.63s-3.11,1.04-3.55,2.37h-.14v-2.06h-2v10.73h2.19v-5.59c0-1.52.84-3.59,2.67-3.59,1.36,0,2.23.82,2.23,2.73v6.46h2.19v-5.77c0-1.44.9-3.41,2.81-3.41,1.54,0,2.09,1.16,2.09,2.73v6.46h2.19v-6.76c0-2.65-1.28-4.27-3.59-4.27Z"/>
  <path d="M204,98.15c-3.09,0-5.23,2.35-5.23,5.65s2.08,5.65,5.15,5.65,5.19-2.49,5.19-5.67-2.02-5.63-5.11-5.63ZM203.94,107.57c-2,0-3.09-1.7-3.09-3.77s1.1-3.77,3.13-3.77,3.05,1.7,3.05,3.77-1.12,3.77-3.09,3.77Z"/>
  <polygon points="207.39 94.26 207.39 93.98 205.1 93.98 203.16 96.95 204.92 96.95 207.39 94.26"/>
  <polygon points="214.68 107.33 214.52 107.33 211.66 98.45 209.49 98.45 213.02 109.18 216.03 109.18 219.58 98.45 217.49 98.45 214.68 107.33"/>
  <path d="M222,94.06c-.8,0-1.44.6-1.44,1.36,0,.8.66,1.4,1.46,1.4s1.42-.6,1.42-1.4-.66-1.36-1.44-1.36Z"/>
  <rect x="220.92" y="98.43" width="2.17" height="10.75"/>
  <path d="M228,106.71v-12.25h-2.19v12.37c0,1.58.64,2.35,1.84,2.35h2.19v-1.94h-1.44c-.32,0-.4-.12-.4-.52Z"/>
</svg>