<?xml version="1.0" encoding="UTF-8"?>
<svg id="Layer_1" data-name="Layer 1" xmlns="http://www.w3.org/2000/svg" viewBox="0 0 170.08 170.08">
  <path d="M72.8,76.11h-3.49c0,13.02,10.58,23.61,23.61,23.61h20.47v-32.33c0-5.18-4.88-9.71-10.41-9.71h-46.28v18.43c0,20,16.28,36.28,36.28,36.28v-3.49c-18.08-.06-32.79-14.71-32.79-32.79v-14.94h42.8c3.61,0,6.92,2.97,6.92,6.22v28.84h-16.98c-11.11,0-20.12-9.01-20.12-20.12Z" fill="#5a50f9"/>
  <path d="M92.92,83.61c-4.13,0-7.5-3.37-7.5-7.5h-3.49c0,6.05,4.94,10.99,10.99,10.99v-3.49Z" fill="#5a50f9"/>
</svg>