<?xml version="1.0" encoding="UTF-8"?>
<svg id="Layer_1" data-name="Layer 1" xmlns="http://www.w3.org/2000/svg" viewBox="0 0 980 286">
  <rect x="441.99" y="59.08" width="478.48" height="167.83" rx="61.86" ry="61.86" fill="#03b7eb"/>
  <path d="M858.6,229.92H121.4c-35.77,0-64.87-29.1-64.87-64.87v-44.1c0-35.77,29.1-64.87,64.87-64.87h737.21c35.77,0,64.87,29.1,64.87,64.87v44.1c0,35.77-29.1,64.87-64.87,64.87ZM121.4,62.08c-32.46,0-58.87,26.41-58.87,58.87v44.1c0,32.46,26.41,58.87,58.87,58.87h737.21c32.46,0,58.87-26.41,58.87-58.87v-44.1c0-32.46-26.41-58.87-58.87-58.87H121.4Z" fill="#231f20"/>
  <g>
    <path d="M568.78,116.71c-6.99,0-13.48,2.8-18.34,7.81-4.85,5.1-7.48,12.09-7.48,19.65s2.47,14.64,7.24,19.57c4.85,5.1,11.68,7.73,19.65,7.73,4.19,0,8.39-.9,12.17-2.63,3.86-1.81,7.15-4.36,9.78-7.65l.25-.33-6.5-6.58-.33.41c-3.54,4.11-8.72,6.41-14.22,6.41-9.54,0-14.8-4.03-16.03-12.33h37.74v-.41c.08-3.62.08-4.93.08-6.82,0-6.66-2.22-12.83-6.33-17.43-4.44-4.85-10.52-7.4-17.68-7.4ZM554.8,139.9c1.15-8.3,5.84-12.33,14.14-12.33,7.15,0,12.17,4.93,12.58,12.33h-26.72Z" fill="#fff"/>
    <path d="M709.46,116.71c-15.13,0-27.38,12.33-27.38,27.38s12.33,27.38,27.38,27.38,27.38-12.33,27.38-27.38-12.25-27.38-27.38-27.38ZM709.46,160.62c-9.13,0-16.53-7.4-16.53-16.53s7.4-16.53,16.53-16.53,16.53,7.4,16.53,16.53-7.4,16.53-16.53,16.53Z" fill="#fff"/>
    <path d="M512.7,116.55c-7.89,0-13.73,3.78-17.27,11.26h-.41l-.25-9.87h-9.21v70.71h11.02v-28.12h.33c1.4,3.12,3.29,5.67,5.59,7.48,2.96,2.3,6.58,3.45,10.69,3.45,6.33,0,12.09-2.71,16.28-7.65,4.28-5.02,6.58-12.09,6.58-19.9s-2.38-14.8-6.58-19.73c-4.19-4.85-10.2-7.65-16.77-7.65ZM510.73,161.03c-4.19,0-7.81-1.73-10.28-5.02-2.3-3.04-3.62-7.24-3.62-11.84s1.32-8.96,3.78-12.09c2.55-3.29,6.17-5.02,10.44-5.02,3.95,0,7.4,1.64,9.87,4.77s3.78,7.4,3.78,12.42c-.08,10.03-5.67,16.77-13.98,16.77Z" fill="#fff"/>
    <path d="M611.94,127.48h-.33l-.66-9.37h-9.46v52.05h11.26v-30.09c0-6.82,2.8-9.78,9.21-9.78h7.24v-12.25h-3.62c-7.24,0-11.76,3.12-13.65,9.46Z" fill="#fff"/>
    <path d="M654.45,125.34c6.17,0,10.94,3.29,13.07,8.96l.16.41,8.8-3.29-.16-.41c-1.89-4.6-4.69-8.22-8.3-10.77-3.7-2.55-8.22-3.78-13.32-3.78-4.69,0-9.37,1.56-12.83,4.28-3.78,2.96-5.92,7.24-5.92,11.84s1.64,8.14,4.77,10.94c2.71,2.38,6.5,4.19,11.59,5.51.41.08.74.16,1.15.25,3.12.66,6.08,1.32,8.22,2.38,2.22,1.15,3.29,2.55,3.29,4.6,0,4.03-4.85,5.84-9.62,5.84-6.33,0-12.17-3.37-15.29-8.8l-.25-.41-8.14,4.44.16.41c1.89,4.11,5.1,7.56,9.13,9.95,4.11,2.38,9.04,3.62,14.31,3.62,5.67,0,10.77-1.4,14.55-3.95,4.11-2.8,6.33-6.74,6.33-11.43.08-4.44-1.81-7.98-5.59-10.61-3.54-2.47-8.3-3.95-12.09-4.85-5.84-1.64-12.42-3.45-12.42-8.55.16-3.21,3.21-6.58,8.39-6.58Z" fill="#fff"/>
    <path d="M772.28,116.71c-3.95,0-7.65,1.15-10.69,3.37-2.8,1.97-5.02,4.69-6.5,7.89h-.49v-9.87h-10.44v52.05h11.35v-29.02c0-2.22.9-5.84,3.04-8.96,1.73-2.55,4.85-5.59,10.03-5.59,3.54,0,6,.99,7.65,3.12,1.56,2.06,2.3,5.02,2.3,9.29v31.24h11.26v-32.72c0-6.5-1.48-11.59-4.44-15.21-2.96-3.7-7.4-5.59-13.07-5.59Z" fill="#fff"/>
    <path d="M842.91,159.88v-23.43c0-5.76-1.81-10.69-5.34-14.22-3.62-3.62-8.8-5.59-15.13-5.59-11.26,0-19.08,5.1-23.84,15.62l-.16.41,9.78,4.6.16-.41c2.71-5.76,7.98-9.7,13.07-9.7,5.76,0,10.11,3.86,10.11,8.96v3.7h-11.92c-13.32,0-21.54,6.41-21.54,16.69,0,4.44,1.64,8.3,4.85,10.94,2.96,2.55,7.07,3.95,11.68,3.95,4.19,0,8.22-1.23,11.51-3.54,3.04-2.06,5.43-5.02,7.07-8.47h.41l-.08,2.8c0,5.18,2.55,7.89,7.32,7.89h7.32v-8.88h-4.36c-.74.08-.9-.66-.9-1.32ZM826.22,157.74c-2.71,2.14-6.08,3.54-8.47,3.54-2.22,0-4.28-.49-5.76-1.48-1.56-.99-2.3-2.38-2.3-4.03,0-2.22,1.32-3.86,3.95-5.02,2.38-1.07,5.76-1.56,9.7-1.56h8.3c-.49,3.12-2.38,6.17-5.43,8.55Z" fill="#fff"/>
    <path d="M868.48,160.04c-.82,0-1.07-.16-1.15-.33-.16-.25-.33-.82-.33-1.73v-58.87h-11.26v59.45c0,3.86.82,6.74,2.38,8.72s3.86,2.96,6.91,2.96h10.85v-10.2h-7.4Z" fill="#fff"/>
  </g>
  <g>
    <path d="M120.33,163.33l-.1-34.23h-8.58v-9h8.58l.72-12.41h10.44v12.41h13.75v9h-13.65v33.61c0,2.07.52,2.69,2.17,2.69h11.48v10.03h-15.41c-6.2,0-9.41-3.93-9.41-12.1Z" fill="#231f20"/>
    <path d="M152.8,104.49c0-3.93,3.31-7.03,7.45-7.03s7.45,3.1,7.45,7.03c0,4.14-3.31,7.24-7.34,7.24s-7.55-3.1-7.55-7.24ZM154.66,120h11.17v55.43h-11.17v-55.43Z" fill="#231f20"/>
    <path d="M176.17,147.82c0-16.86,11.17-29.26,26.78-29.26s24.82,12.41,24.82,26.47c0,1.96,0,3.41-.1,7.34h-40.43c1.65,9.93,9,14.89,16.86,14.89,5.79,0,11.89-2.59,16.55-7.86l6.2,6.51c-5.69,7.34-14.37,11.06-22.85,11.06-14.06,0-27.82-9.82-27.82-29.16ZM216.91,143.68c-.21-9.82-7.34-15.41-14.58-15.41-6.82,0-13.65,4.86-15.1,15.41h29.68Z" fill="#231f20"/>
    <path d="M238.31,120.11h10.34v10.65h.72c1.96-6.82,10.03-12.2,18.82-12.2,12.2,0,18.51,8.38,18.51,22.03v34.85h-11.27v-31.23c0-11.06-4.24-15.92-11.27-15.92-8.38,0-14.58,7.24-14.58,19.34v27.82h-11.27v-55.32Z" fill="#231f20"/>
    <path d="M296.74,147.72c0-16.96,10.24-29.16,24.61-29.16,9.1,0,14.99,5.58,17.48,11.89h.72v-31.02h10.96v76.01h-9.41v-10.65h-.62c-3.1,6.83-9.31,12.2-18.72,12.2-14.37,0-25.02-11.89-25.02-29.26ZM323.62,166.54c9.72,0,15.61-8.58,15.61-18.92s-5.48-18.61-15.51-18.61c-9,0-15.51,6.93-15.51,18.61s6,18.92,15.41,18.92Z" fill="#231f20"/>
    <path d="M360.23,161.37c0-11.27,10.86-17.27,22.85-17.27h13.03v-3.41c0-8.07-4.96-12.41-10.75-12.41-7.13,0-11.06,3.52-14.37,11.58l-9.31-3.93c3.62-10.96,12.2-17.37,23.68-17.37,12.82,0,21.3,7.65,21.3,20.89v25.13c0,1.24.52,1.96,1.45,1.96h4.24v8.89h-6.41c-4.96,0-7.45-2.79-7.45-8.07l.1-3.52h-.93c-3.31,7.34-10.65,12.93-20.06,12.93s-17.37-5.89-17.37-15.41ZM379.77,167.05c7.86,0,15.51-7.55,16.34-14.79h-9.2c-8.89,0-15.92,2.69-15.92,8.17,0,4.34,4.45,6.62,8.79,6.62Z" fill="#231f20"/>
  </g>
</svg>