<?xml version="1.0" encoding="UTF-8"?>
<svg id="Layer_1" data-name="Layer 1" xmlns="http://www.w3.org/2000/svg" width="300" height="100" viewBox="0 0 300 100">
  <path d="M157.23,45.13c-2.25,0-4.5,1.6-4.98,5.08h9.79c-.07-3.24-2.42-5.08-4.81-5.08Z" fill="#fff"/>
  <path d="M191.21,20.39h-82.42c-16.35,0-29.61,13.26-29.61,29.61h0c0,16.35,13.26,29.61,29.61,29.61h82.42c16.35,0,29.61-13.26,29.61-29.61h0c0-16.35-13.26-29.61-29.61-29.61ZM104.97,37.78c-5.2,1.63-8.98,6.48-8.98,12.22s3.78,10.59,8.98,12.22v8.63c-9.85-1.81-17.38-10.45-17.38-20.85s7.49-19.04,17.38-20.85v8.63ZM112.61,70.85v-8.63c5.2-1.63,8.98-6.48,8.98-12.22s-3.78-10.59-8.98-12.22v-8.64c9.89,1.8,17.38,10.44,17.38,20.85s-7.49,19.04-17.38,20.85ZM146.62,45.41h-4.5v11.08c0,.68.17.89.72.89h3.78v3.31h-5.08c-2.05,0-3.1-1.3-3.1-3.99l-.03-11.29h-2.83v-2.97h2.83l.24-4.09h3.44v4.09h4.54v2.97ZM165.58,53.08h-13.33c.55,3.27,2.97,4.91,5.56,4.91,1.91,0,3.92-.85,5.46-2.59l2.05,2.15c-1.88,2.42-4.74,3.65-7.54,3.65-4.64,0-9.17-3.24-9.17-9.62,0-5.56,3.68-9.65,8.83-9.65s8.18,4.09,8.18,8.73c0,.65,0,1.12-.03,2.42ZM176.83,61.16c-4.98,0-8.8-3.92-8.8-9.51s3.89-9.72,8.8-9.72c3.78,0,6.41,2.25,7.5,5.73l-3.03,1.3c-.99-2.49-2.22-3.82-4.53-3.82-2.56,0-5.18,2.22-5.18,6.51,0,3.61,2.25,6.31,5.52,6.31,2.35,0,4.09-1.4,5.18-3.27l2.56,1.81c-1.81,3.14-4.53,4.67-8.01,4.67ZM204.01,60.68h-3.72v-10.88c0-3.48-1.6-4.74-3.65-4.74-3.38,0-4.88,3.51-4.88,6.21v9.41h-3.72v-25.06h3.48v10.3h.24c1.09-2.25,2.97-4.02,6.14-4.02,4.16,0,6.1,3,6.1,7.26v11.52Z" fill="#fff"/>
</svg>