<?xml version="1.0" encoding="UTF-8"?>
<svg id="Layer_1" data-name="Layer 1" xmlns="http://www.w3.org/2000/svg" width="300" height="100" viewBox="0 0 300 100">
  <path d="M201.93,45.13c-3.44,0-5.32,2.9-5.32,6.41s1.84,6.41,5.25,6.41,5.25-2.86,5.25-6.41-1.77-6.41-5.18-6.41Z" fill="#fff"/>
  <path d="M50.58,37.2c-7.07,0-12.8,5.73-12.8,12.8s5.73,12.8,12.8,12.8,12.8-5.73,12.8-12.8-5.73-12.8-12.8-12.8ZM54.66,54.78l-4.08-4.08-4.08,4.08-3.63-3.63,7.71-7.71,7.71,7.71-3.63,3.63Z" fill="#fff"/>
  <path d="M132.16,55.74c0,1.43,1.47,2.18,2.9,2.18,2.59,0,5.11-2.49,5.39-4.88h-3.03c-2.93,0-5.25.89-5.25,2.69Z" fill="#fff"/>
  <path d="M253.86,45.13c-2.25,0-4.5,1.6-4.98,5.08h9.79c-.07-3.24-2.42-5.08-4.81-5.08Z" fill="#fff"/>
  <path d="M249.42,20.39H50.58c-16.35,0-29.61,13.26-29.61,29.61h0c0,16.35,13.26,29.61,29.61,29.61h198.84c16.35,0,29.61-13.26,29.61-29.61h0c0-16.35-13.26-29.61-29.61-29.61ZM50.58,71.2c-11.65,0-21.2-9.49-21.2-21.2s9.49-21.2,21.2-21.2,21.2,9.49,21.2,21.2-9.49,21.2-21.2,21.2ZM86.81,61.12c-3.14-.03-6.44-1.33-7.98-4.6l2.63-1.74c1.3,2.28,3.41,3.17,5.49,3.17,2.22,0,3.44-.89,3.44-2.05,0-1.26-1.88-1.98-4.06-2.69-2.76-.89-6.44-1.98-6.44-5.93,0-3.07,3.14-5.35,6.34-5.35,3.65,0,6.31,2.05,7.36,4.64l-2.86,1.47c-.92-1.94-2.9-2.86-4.5-2.86-1.81,0-2.83.92-2.83,2.11,0,1.64,1.94,2.22,4.4,3.03,2.39.78,5.97,1.94,5.97,5.69,0,3.31-3.34,5.15-6.96,5.11ZM125.44,60.68h-3.72v-10.98c0-2.66-.92-4.64-3.55-4.64-3.24,0-4.77,3.34-4.77,5.8v9.82h-3.72v-10.98c0-3.24-1.47-4.64-3.78-4.64-3.1,0-4.54,3.51-4.54,6.1v9.51h-3.72v-18.24h3.41v3.51h.24c.75-2.25,2.97-4.02,6.04-4.02s4.84,1.81,5.52,4.47h.24c.92-2.59,3.07-4.47,6.24-4.47,3.92,0,6.1,2.76,6.1,7.26v11.49ZM145.8,60.68h-2.11c-1.64,0-2.45-.92-2.45-2.66l.03-1.16h-.31c-1.09,2.42-3.51,4.26-6.61,4.26s-5.73-1.94-5.73-5.08c0-3.72,3.58-5.69,7.54-5.69h4.3v-1.12c0-2.66-1.64-4.09-3.55-4.09-2.35,0-3.65,1.16-4.74,3.82l-3.07-1.3c1.19-3.61,4.02-5.73,7.81-5.73,4.23,0,7.02,2.52,7.02,6.89v8.29c0,.41.17.65.48.65h1.4v2.93ZM158.42,46.46h-2.42c-2.56,0-3.44,1.3-3.44,3.65v10.57h-3.72v-18.24h3.31v3.34h.24c.75-2.66,2.76-3.38,4.88-3.38h1.16v4.06ZM169.91,45.41h-4.5v11.08c0,.68.17.89.72.89h3.78v3.31h-5.08c-2.05,0-3.1-1.3-3.1-3.99l-.03-11.29h-2.83v-2.97h2.83l.24-4.09h3.44v4.09h4.54v2.97ZM189.75,60.68h-3.72v-10.88c0-3.48-1.6-4.74-3.65-4.74-3.38,0-4.88,3.51-4.88,6.21v9.41h-3.72v-25.06h3.48v10.3h.24c1.09-2.25,2.97-4.02,6.14-4.02,4.16,0,6.1,3,6.1,7.26v11.52ZM201.82,61.16c-5.22,0-8.76-4.02-8.76-9.62s3.65-9.62,8.9-9.62,8.69,4.13,8.69,9.58-3.61,9.65-8.83,9.65ZM241.92,60.68h-3.72v-10.98c0-2.66-.92-4.64-3.55-4.64-3.24,0-4.77,3.34-4.77,5.8v9.82h-3.72v-10.98c0-3.24-1.47-4.64-3.78-4.64-3.1,0-4.53,3.51-4.53,6.1v9.51h-3.72v-18.24h3.41v3.51h.24c.75-2.25,2.97-4.02,6.04-4.02s4.84,1.81,5.52,4.47h.24c.92-2.59,3.07-4.47,6.24-4.47,3.92,0,6.1,2.76,6.1,7.26v11.49ZM262.21,53.08h-13.33c.55,3.27,2.97,4.91,5.56,4.91,1.91,0,3.92-.85,5.46-2.59l2.05,2.15c-1.88,2.42-4.74,3.65-7.54,3.65-4.64,0-9.17-3.24-9.17-9.62,0-5.56,3.68-9.65,8.83-9.65s8.18,4.09,8.18,8.73c0,.65,0,1.12-.03,2.42Z" fill="#fff"/>
</svg>