<?xml version="1.0" encoding="UTF-8"?>
<svg id="Layer_1" data-name="Layer 1" xmlns="http://www.w3.org/2000/svg" width="300" height="70" viewBox="0 0 300 70">
  <rect x="108" y="28.61" width="3.85" height="10.66" fill="#fff"/>
  <path d="M155.11,26.93c-3.17,0-5.32,1.88-6.24,4.47h-.24c-.68-2.66-2.49-4.47-5.52-4.47s-5.29,1.77-6.04,4.02h-.24v-3.51h-3.41v18.24h3.72v-9.51c0-2.59,1.43-6.1,4.53-6.1,2.32,0,3.78,1.4,3.78,4.64v10.98h3.72v-9.82c0-2.45,1.53-5.8,4.77-5.8,2.63,0,3.55,1.98,3.55,4.64v10.98h3.72v-11.49c0-4.5-2.18-7.26-6.1-7.26h0Z" fill="#fff"/>
  <path d="M103.83,13.8c-11.72,0-21.2,9.55-21.2,21.2s9.55,21.2,21.2,21.2,21.2-9.55,21.2-21.2-9.49-21.2-21.2-21.2ZM103.83,47.8c-7.07,0-12.8-5.73-12.8-12.8s5.73-12.8,12.8-12.8,12.8,5.73,12.8,12.8-5.73,12.8-12.8,12.8Z" fill="#fff"/>
  <rect x="101.95" y="31.15" width="3.85" height="8.13" fill="#fff"/>
  <polygon points="179.18 20.32 179.18 19.84 175.29 19.84 171.99 24.89 174.99 24.89 179.18 20.32" fill="#fff"/>
  <rect x="95.81" y="33.94" width="3.85" height="5.33" fill="#fff"/>
  <path d="M214.92,42.38c-.55,0-.68-.2-.68-.89v-20.83h-3.72v21.04c0,2.69,1.09,3.99,3.14,3.99h3.72v-3.31h-2.46Z" fill="#fff"/>
  <path d="M204.04,19.98c-1.36,0-2.45,1.02-2.45,2.32s1.13,2.39,2.49,2.39,2.42-1.02,2.42-2.39-1.13-2.32-2.46-2.32Z" fill="#fff"/>
  <rect x="202.2" y="27.41" width="3.68" height="18.28" fill="#fff"/>
  <polygon points="191.59 42.55 191.32 42.55 186.44 27.44 182.76 27.44 188.76 45.69 193.88 45.69 199.91 27.44 196.37 27.44 191.59 42.55" fill="#fff"/>
  <path d="M173.42,26.93c-5.25,0-8.9,3.99-8.9,9.62s3.55,9.62,8.76,9.62,8.83-4.23,8.83-9.65-3.44-9.58-8.69-9.58h0ZM173.32,42.96c-3.41,0-5.25-2.9-5.25-6.41s1.88-6.41,5.32-6.41,5.18,2.9,5.18,6.41-1.91,6.41-5.25,6.41Z" fill="#fff"/>
</svg>