<?xml version="1.0" encoding="UTF-8"?>
<svg id="Layer_1" data-name="Layer 1" xmlns="http://www.w3.org/2000/svg" viewBox="0 0 170.08 170.08">
  <path d="M85.04,67.93c6.47,0,12.17,3.66,15.07,9.02h12c-3.49-11.75-14.3-20.26-27.07-20.26s-23.58,8.6-27.07,20.26h12.09c2.81-5.36,8.51-9.02,14.98-9.02Z" fill="#fff"/>
  <path d="M113.22,82.49h-11.24c.09.85.17,1.7.17,2.55,0,9.45-7.66,17.11-17.11,17.11s-17.11-7.66-17.11-17.11c0-.85.09-1.7.17-2.55h-11.24c-.09.85-.09,1.7-.09,2.55,0,15.66,12.68,28.35,28.26,28.35s28.26-12.77,28.26-28.35c0-.85,0-1.7-.09-2.55Z" fill="#fff"/>
</svg>