<?xml version="1.0" encoding="UTF-8"?>
<svg id="Layer_1" data-name="Layer 1" xmlns="http://www.w3.org/2000/svg" viewBox="0 0 967.9 353.9">
  <path d="M242.3,81.4H77.7v65.4h0c0,71,57.7,128.7,128.7,128.7v-12.4c-64.3,0-116.3-52.3-116.3-116.3v-53h151.9c12.8,0,24.6,10.6,24.6,22.1v102.5h-60.2c-39.4,0-71.4-32-71.4-71.4h-12.4c0,46.2,37.6,83.8,83.8,83.8h72.6v-115c.2-18.2-17.1-34.4-36.7-34.4Z"/>
  <path d="M206.7,173.5c-14.6,0-26.6-11.9-26.6-26.6h-12.4c0,21.4,17.6,39,39,39v-12.4Z"/>
  <path d="M880.2,141.6h0c-2.3-.1-2.5-1-2.5-2.8l.3-85.8h-16l-.2,85.9c0,9.2,2.9,15.8,13.1,15.8h15.3v-13.1h-10Z"/>
  <path d="M379.5,78c-11,0-20.1,6.3-25,15.8h-.5l-.2-14h-13.7l-.2,99.6h16v-37.9h.5c3.6,7.4,10.1,14.2,23,14.2,20.3,0,32.5-18,32.5-39.2-.2-21.2-11.9-38.5-32.4-38.5ZM375.4,140.6c-12.6,0-19.4-11-19.4-23.9s7.4-24.1,20.1-24.1,19.4,12.2,19.4,24.8c0,13.8-8.1,23.2-20.1,23.2Z"/>
  <path d="M457.9,78c-20.5,0-37.2,17.4-37.2,39.4,0,24.6,18.5,38.3,37.9,38.3,11.9,0,23.2-4.7,31.3-14.6l-9.5-9.5c-5,5-11.5,9.7-20.7,9.7-12.4,0-22.1-7.2-23.4-17.8h55v-8.8c0-21.2-12.9-36.7-33.4-36.7ZM436.3,111.1c1.4-11,10.6-18.5,21-18.5,11.9,0,18.3,8.1,18.5,18.5h-39.5Z"/>
  <path d="M654.7,78.2c-21.4,0-39.2,17.6-39.2,39s17.6,39.2,38.8,39.2,39-17.6,39-39c-.1-21.6-16.6-39.2-38.6-39.2ZM654.2,141.7c-13.5,0-23.7-11-23.7-24.6s10.4-24.6,23.7-24.3c13.3,0,23.7,11,23.7,24.6s-10.4,24.3-23.7,24.3Z"/>
  <path d="M578.7,91c6.5,0,14.2,3.6,17.8,11.7l11.7-5.9c-4.2-9.6-13.5-18.8-29.5-18.8s-27.5,10.4-27.5,22.5c0,14.2,14,19.2,25.2,23,8.3,2.5,15.3,5.4,15.3,11.3s-5.6,8.3-12.4,8.3c-9.7,0-17.1-5.6-23.2-13.1l-9.9,8.3c7,10.8,19.2,17.8,32.7,17.8,14.9,0,28.8-8.1,28.8-22.8s-14.4-19.2-26.1-22.8c-8.3-2.7-14.4-4.7-14.4-11-.2-4.9,5-8.5,11.5-8.5Z"/>
  <path d="M843.3,139v-32.5c0-18-12.2-27.9-29.3-27.9-14.9,0-27.5,8.1-33.8,22.3l13.3,6.5c3.8-8.3,11.7-14.4,20.3-14.4s13.5,5.9,13.5,13.5v4.7h-14.4c-18.7,0-32.9,8.8-32.9,23.4s11.3,21.4,23,21.4,21.4-6.1,26.4-16.9h.7v3.6c0,8.1,4.3,11.7,10.6,11.7h10.1v-13.1h-5.6c-1.7,0-1.9-.7-1.9-2.3ZM806.3,142.9c-6.1,0-10.4-3.4-10.4-9.2,0-7.7,7.4-11.3,17.8-11.3h13.7c-1.2,12.4-11.2,20.7-21.1,20.5Z"/>
  <path d="M742.8,78.2c-12.4,0-19.6,7.2-24.6,16h-.2v-14h-14.4l-.2,73.9h16v-38.3c0-11.5,6.3-23.7,18.9-23.7,9.9,0,13.7,7.7,13.7,17.8v44.2h16v-46.9c-.2-16.8-9-29-25.2-29Z"/>
  <path d="M519.7,111.1c0-9.9,3.8-15.3,13.1-15.3h10.1v-16h-4.7c-10.6,0-15.8,4.1-19.4,13.5h-.5v-13.5h-14.4l-.2,73.9h16v-42.6Z"/>
  <path d="M374.5,197.9c-14.9,0-23.4,9-27.3,18.9h-.7v-16.7h-7v104.1h7v-45.3h.7c3.6,10.1,12.4,19.2,26.8,19.2,19.2,0,33.8-15.5,33.8-39.9.3-23.9-13.7-40.3-33.3-40.3ZM373.9,270.9c-17.8,0-26.6-15.5-26.6-32.7s9.7-33.4,27.3-33.4c15.8,0,25.7,13.3,25.7,33.4-.1,20.7-11.1,32.7-26.4,32.7Z"/>
  <path d="M478.9,266.4v-42.1c0-14.4-9-26.1-26.6-26.1-14.4,0-27.3,8.6-32.9,22.8l6.8,3.2c4.7-12.6,15.8-18.7,25.9-18.7,12.4,0,19.4,7.7,19.4,18.9v9.7h-19.4c-19.2,0-32.7,8.6-32.7,22.5s10.6,21.2,23.7,21.2,22.8-8.3,27.5-19.8h1.1l-.2,7.4c0,6.8,2,10.6,8.3,10.6h7.4v-7h-6.8c-.6-.2-1.5-1.3-1.5-2.6ZM444.2,270.2c-9.5,0-16.9-4.1-16.9-14,0-10.6,11.5-16.2,25-16.2h18.9c-1.6,18-13.7,30.2-27,30.2Z"/>
  <path d="M526.2,269.5h-.9l-25.5-69.4h-7.8l27.7,75.9h4.3l-4.3,11.3c-1.8,4.7-4.1,7.9-7.9,7.9h-12.6v7h13.5c6.3,0,9.9-4.3,13.3-12.6l34.3-89.5h-7.9l-26.2,69.4Z"/>
</svg>