<?xml version="1.0" encoding="UTF-8" standalone="no"?>
<svg
   xmlns:dc="http://purl.org/dc/elements/1.1/"
   xmlns:cc="http://creativecommons.org/ns#"
   xmlns:rdf="http://www.w3.org/1999/02/22-rdf-syntax-ns#"
   xmlns:svg="http://www.w3.org/2000/svg"
   xmlns="http://www.w3.org/2000/svg"
   viewBox="0 0 1287.8667 266.66666"
   height="266.66666"
   width="1287.8667"
   xml:space="preserve"
   id="svg2"
   version="1.1"><metadata
     id="metadata8"><rdf:RDF><cc:Work
         rdf:about=""><dc:format>image/svg+xml</dc:format><dc:type
           rdf:resource="http://purl.org/dc/dcmitype/StillImage" /></cc:Work></rdf:RDF></metadata><defs
     id="defs6"><clipPath
       id="clipPath18"
       clipPathUnits="userSpaceOnUse"><path
         id="path16"
         d="M 0,200 H 965.9 V 0 H 0 Z" /></clipPath></defs><g
     transform="matrix(1.3333333,0,0,-1.3333333,0,266.66667)"
     id="g10"><g
       id="g12"><g
         clip-path="url(#clipPath18)"
         id="g14"><g
           transform="translate(93.3,145.5)"
           id="g20"><path
             id="path22"
             style="fill:#3c00a0;fill-opacity:1;fill-rule:nonzero;stroke:none"
             d="m 0,0 h -12.8 l -0.8,-14 h -9.7 v -11.2 h 9.6 l 0.1,-38 c 0,-9.4 3.7,-14.2 11.1,-14.2 H 12.6 V -65 H 2 c -1.5,0 -1.9,0.3 -1.9,2.5 v 37.3 H 12.7 V -14 L 0,-14 Z" /></g><g
           transform="translate(125.5,105)"
           id="g24"><path
             id="path26"
             style="fill:#3c00a0;fill-opacity:1;fill-rule:nonzero;stroke:none"
             d="M 0,0 C 1.4,10.1 7,15 17.2,15 25.9,15 31.9,9 32.4,0 Z m 16.9,28.3 c -8.5,0 -16.4,-3.4 -22.2,-9.5 -5.9,-6.2 -9.1,-14.7 -9.1,-24 0,-9.6 3,-17.8 8.7,-23.8 5.9,-6.2 14.1,-9.5 23.9,-9.5 5.1,0 10.2,1.1 14.7,3.2 4.7,2.2 8.7,5.3 11.8,9.3 l 0.3,0.4 -7.9,8 -0.4,-0.5 c -4.3,-5 -10.6,-7.8 -17.3,-7.8 -11.5,0 -17.9,4.9 -19.4,15 h 45.8 v 0.5 c 0.1,4.4 0.1,6 0.1,8.3 0,8.1 -2.7,15.7 -7.7,21.2 -5.2,6 -12.6,9.2 -21.3,9.2" /></g><g
           transform="translate(225.1,105)"
           id="g28"><path
             id="path30"
             style="fill:#3c00a0;fill-opacity:1;fill-rule:nonzero;stroke:none"
             d="M 0,0 C 1.4,10.1 7,15 17.2,15 25.9,15 32,9 32.4,0 Z m 17,28.3 c -8.5,0 -16.4,-3.4 -22.2,-9.5 -5.9,-6.2 -9.1,-14.7 -9.1,-24 0,-9.6 3,-17.8 8.7,-23.8 5.9,-6.2 14.1,-9.5 23.9,-9.5 5.1,0 10.2,1.1 14.7,3.2 4.7,2.2 8.7,5.3 11.8,9.3 l 0.3,0.4 -7.9,8 -0.4,-0.5 c -4.3,-5 -10.6,-7.8 -17.3,-7.8 -11.5,0 -17.9,4.9 -19.4,15 h 45.8 v 0.5 C 46,-6 46,-4.4 46,-2.1 46,6 43.3,13.6 38.3,19.1 33,25.1 25.6,28.3 17,28.3" /></g><g
           transform="translate(195.7,81)"
           id="g32"><path
             id="path34"
             style="fill:#3c00a0;fill-opacity:1;fill-rule:nonzero;stroke:none"
             d="M 0,0 C -0.2,0.3 -0.4,1 -0.4,2.1 V 73.7 H -14.1 V 1.3 c 0,-4.7 1,-8.2 2.8,-10.6 1.9,-2.4 4.7,-3.6 8.4,-3.6 H 10.3 V -0.5 H 1.4 C 0.4,-0.5 0.1,-0.2 0,0" /></g><g
           transform="translate(511.2,126.5)"
           id="g36"><path
             id="path38"
             style="fill:#3c00a0;fill-opacity:1;fill-rule:nonzero;stroke:none"
             d="m 0,0 c -3.7,4.5 -9.1,6.8 -15.8,6.8 -5.2,0 -9.7,-1.5 -13.3,-4.4 -3.1,-2.5 -5.7,-6.1 -7.7,-10.8 h -0.6 C -40.1,1.4 -46.9,6.8 -56.6,6.8 -66,6.8 -73.2,1.9 -77,-6.9 h -0.5 l -0.9,12 h -11.7 v -63.4 h 13.7 V -23 c 0,3 0.9,7.6 3.4,11.4 1.9,3 5.6,6.6 12.1,6.6 7.8,0 11.8,-5.1 11.8,-15.3 v -38 h 13.7 V -23 c 0,4 1.3,8.4 3.5,11.6 2,2.9 5.7,6.4 12.1,6.4 3.8,0 6.6,-1.2 8.5,-3.6 2.1,-2.5 3.1,-6.5 3.1,-11.7 v -38 H 5.5 v 39.7 C 5.6,-10.8 3.6,-4.4 0,0" /></g><g
           transform="translate(310,119.5)"
           id="g40"><path
             id="path42"
             style="fill:#3c00a0;fill-opacity:1;fill-rule:nonzero;stroke:none"
             d="m 0,0 h 0.2 0.2 c 2.2,-0.1 12.7,-0.9 17,-11 l 11.3,5 c 0,0 -5.3,19.6 -29.2,19.6 -8.4,0 -16.1,-3.4 -21.7,-9.6 -5.6,-6.2 -8.7,-14.8 -8.7,-24.1 0,-19.1 12.9,-33 30.6,-33 6.1,0 11.6,1.3 16.4,4 5,2.8 9.1,6.9 12.1,12.2 l 0.2,0.4 -9.5,6.3 -0.1,-0.3 c -4,-6.2 -10.5,-9.8 -17.7,-9.8 -5,0 -9.6,2 -12.8,5.7 -3.2,3.7 -5,9 -5,14.8 0,6.1 1.8,11.2 5.2,14.8 3,3.2 7.1,5 11.5,5" /></g><g
           transform="translate(378.6,120.1)"
           id="g44"><path
             id="path46"
             style="fill:#3c00a0;fill-opacity:1;fill-rule:nonzero;stroke:none"
             d="M 0,0 C 7.6,0 14.3,-4.3 17.7,-10.6 H 31.9 C 27.8,3.2 15.1,13.3 0,13.3 -15,13.3 -27.8,3.2 -31.9,-10.6 h 14.3 C -14.3,-4.3 -7.7,0 0,0" /></g><g
           transform="translate(398.3,102.9)"
           id="g48"><path
             id="path50"
             style="fill:#3c00a0;fill-opacity:1;fill-rule:nonzero;stroke:none"
             d="m 0,0 c 0.3,-1 0.4,-2 0.4,-3 0,-11.1 -9,-20.2 -20.1,-20.2 -11.1,0 -20.1,9 -20.1,20.2 0,1 0.1,2 0.2,3 H -52.9 C -53,-1 -53,-2 -53,-3 c 0,-18.4 14.9,-33.4 33.2,-33.4 18.3,0 33.2,15 33.2,33.4 0,1 0,2 -0.1,3 z" /></g><g
           transform="translate(782.6,100.1)"
           id="g52"><path
             id="path54"
             style="fill:#00dcaa;fill-opacity:1;fill-rule:nonzero;stroke:none"
             d="m 0,0 c 0,-11.5 -9.4,-20.9 -20.9,-20.9 -11.5,0 -20.9,9.4 -20.9,20.9 0,11.5 9.4,20.9 20.9,20.9 C -9.4,20.9 0,11.5 0,0 M -20.9,34.6 C -40,34.6 -55.5,19.1 -55.5,0 c 0,-19.1 15.5,-34.6 34.6,-34.6 19.1,0 34.6,15.5 34.6,34.6 0.1,19.1 -15.4,34.6 -34.6,34.6" /></g><g
           transform="translate(664.9,153.3)"
           id="g56"><path
             id="path58"
             style="fill:#00dcaa;fill-opacity:1;fill-rule:nonzero;stroke:none"
             d="m 0,0 c -2.7,-2.5 -4.1,-6.2 -4.1,-10.7 v -11.1 h -7.7 v -11.7 h 7.7 V -86 H 10 v 52.4 h 14.1 v 11.7 H 10 v 11.2 c 0,1.9 0.8,2.8 2.5,2.8 H 27.3 V 3.7 H 10.8 C 6.3,3.7 2.6,2.4 0,0" /></g><g
           transform="translate(713,80.5)"
           id="g60"><path
             id="path62"
             style="fill:#00dcaa;fill-opacity:1;fill-rule:nonzero;stroke:none"
             d="m 0,0 c -0.3,0.3 -0.4,1 -0.4,2.1 v 74.3 h -14.3 v -75 c 0,-4.8 1,-8.5 3,-11 2,-2.5 4.9,-3.7 8.7,-3.7 H 10.7 V -0.5 H 1.5 C 0.5,-0.5 0.1,-0.2 0,0" /></g><g
           transform="translate(887.5,132.9)"
           id="g64"><path
             id="path66"
             style="fill:#00dcaa;fill-opacity:1;fill-rule:nonzero;stroke:none"
             d="m 0,0 -14.4,-53.8 h -0.2 L -30.5,-0.4 -30.6,0 H -45 l -15,-53.8 h -0.3 L -75.3,0 H -90.4 L -71,-65.3 v -0.4 h 19.7 l 13.4,46.2 12.8,-46.2 H -5.4 L 13.6,0 Z" /></g><g
           transform="translate(771.4,101.2)"
           id="g68"><path
             id="path70"
             style="fill:#00dcaa;fill-opacity:1;fill-rule:nonzero;stroke:none"
             d="m 0,0 v 0 l -14.5,8.3 c -0.4,0.2 -0.9,0.2 -1.2,0 -0.4,-0.2 -0.6,-0.6 -0.6,-1.1 V -9.5 c 0,-0.4 0.2,-0.9 0.6,-1.1 0.2,-0.1 0.4,-0.2 0.6,-0.2 0.2,0 0.4,0.1 0.6,0.2 L 0,-2.3 c 0.4,0.2 0.6,0.6 0.6,1.1 C 0.5,-0.6 0.3,-0.2 0,0" /></g><g
           transform="translate(580.5,149.9)"
           id="g72"><path
             id="path74"
             style="fill:#6e6e6e;fill-opacity:1;fill-rule:nonzero;stroke:none"
             d="M 0,0 V -88.5 H 4 V 0" /></g></g></g></g></svg>