<?xml version="1.0" encoding="UTF-8"?>
<svg id="Layer_1" data-name="Layer 1" xmlns="http://www.w3.org/2000/svg" viewBox="0 0 965.9 200">
  <g>
    <path d="M93.3,54.5h-12.8l-.8,14h-9.7v11.2h9.6l.1,38c0,9.4,3.7,14.2,11.1,14.2h15.1v-12.4h-10.6c-1.5,0-1.9-.3-1.9-2.5v-37.3h12.6v-11.2h-12.7v-14Z" fill="#fff"/>
    <path d="M142.4,66.7c-8.5,0-16.4,3.4-22.2,9.5-5.9,6.2-9.1,14.7-9.1,24s3,17.8,8.7,23.8c5.9,6.2,14.1,9.5,23.9,9.5,5.1,0,10.2-1.1,14.7-3.2,4.7-2.2,8.7-5.3,11.8-9.3l.3-.4-7.9-8-.4.5c-4.3,5-10.6,7.8-17.3,7.8-11.5,0-17.9-4.9-19.4-15h45.8v-.5c.1-4.4.1-6,.1-8.3,0-8.1-2.7-15.7-7.7-21.2-5.2-6-12.6-9.2-21.3-9.2ZM125.5,95c1.4-10.1,7-15,17.2-15,8.7,0,14.7,6,15.2,15h-32.4Z" fill="#fff"/>
    <path d="M242.1,66.7c-8.5,0-16.4,3.4-22.2,9.5-5.9,6.2-9.1,14.7-9.1,24s3,17.8,8.7,23.8c5.9,6.2,14.1,9.5,23.9,9.5,5.1,0,10.2-1.1,14.7-3.2,4.7-2.2,8.7-5.3,11.8-9.3l.3-.4-7.9-8-.4.5c-4.3,5-10.6,7.8-17.3,7.8-11.5,0-17.9-4.9-19.4-15h45.8v-.5c.1-4.4.1-6,.1-8.3,0-8.1-2.7-15.7-7.7-21.2-5.3-6-12.7-9.2-21.3-9.2ZM225.1,95c1.4-10.1,7-15,17.2-15,8.7,0,14.8,6,15.2,15h-32.4Z" fill="#fff"/>
    <path d="M195.7,119c-.2-.3-.4-1-.4-2.1V45.3h-13.7v72.4c0,4.7,1,8.2,2.8,10.6,1.9,2.4,4.7,3.6,8.4,3.6h13.2v-12.4h-8.9c-1,0-1.3-.3-1.4-.5Z" fill="#fff"/>
    <path d="M511.2,73.5c-3.7-4.5-9.1-6.8-15.8-6.8-5.2,0-9.7,1.5-13.3,4.4-3.1,2.5-5.7,6.1-7.7,10.8h-.6c-2.7-9.8-9.5-15.2-19.2-15.2s-16.6,4.9-20.4,13.7h-.5l-.9-12h-11.7v63.4h13.7v-35.3c0-3,.9-7.6,3.4-11.4,1.9-3,5.6-6.6,12.1-6.6,7.8,0,11.8,5.1,11.8,15.3v38h13.7v-35.3c0-4,1.3-8.4,3.5-11.6,2-2.9,5.7-6.4,12.1-6.4,3.8,0,6.6,1.2,8.5,3.6,2.1,2.5,3.1,6.5,3.1,11.7v38h13.7v-39.7c.1-7.8-1.9-14.2-5.5-18.6Z" fill="#fff"/>
    <path d="M310,80.5h.4c2.2.1,12.7.9,17,11l11.3-5s-5.3-19.6-29.2-19.6c-8.4,0-16.1,3.4-21.7,9.6s-8.7,14.8-8.7,24.1c0,19.1,12.9,33,30.6,33,6.1,0,11.6-1.3,16.4-4,5-2.8,9.1-6.9,12.1-12.2l.2-.4-9.5-6.3-.1.3c-4,6.2-10.5,9.8-17.7,9.8-5,0-9.6-2-12.8-5.7-3.2-3.7-5-9-5-14.8,0-6.1,1.8-11.2,5.2-14.8,3-3.2,7.1-5,11.5-5Z" fill="#fff"/>
    <path d="M378.6,79.9c7.6,0,14.3,4.3,17.7,10.6h14.2c-4.1-13.8-16.8-23.9-31.9-23.9s-27.8,10.1-31.9,23.9h14.3c3.3-6.3,9.9-10.6,17.6-10.6Z" fill="#fff"/>
    <path d="M398.3,97.1c.3,1,.4,2,.4,3,0,11.1-9,20.2-20.1,20.2s-20.1-9-20.1-20.2c0-1,.1-2,.2-3h-13.3c-.1,1-.1,2-.1,3,0,18.4,14.9,33.4,33.2,33.4s33.2-15,33.2-33.4c0-1,0-2-.1-3h-13.3Z" fill="#fff"/>
  </g>
  <path d="M761.7,65.3c-19.1,0-34.6,15.5-34.6,34.6s15.5,34.6,34.6,34.6,34.6-15.5,34.6-34.6c.1-19.1-15.4-34.6-34.6-34.6M782.6,99.9c0,11.5-9.4,20.9-20.9,20.9s-20.9-9.4-20.9-20.9,9.4-20.9,20.9-20.9,20.9,9.4,20.9,20.9" fill="#fff"/>
  <path d="M664.9,46.7c-2.7,2.5-4.1,6.2-4.1,10.7v11.1h-7.7v11.7h7.7v52.5h14.1v-52.4h14.1v-11.7h-14.1v-11.2c0-1.9.8-2.8,2.5-2.8h14.8v-11.6h-16.5c-4.5,0-8.2,1.3-10.8,3.7" fill="#fff"/>
  <path d="M713,119.5c-.3-.3-.4-1-.4-2.1V43.1h-14.3v75c0,4.8,1,8.5,3,11,2,2.5,4.9,3.7,8.7,3.7h13.7v-12.8h-9.2c-1,0-1.4-.3-1.5-.5" fill="#fff"/>
  <polygon points="887.5 67.1 873.1 120.9 872.9 120.9 857 67.5 856.9 67.1 842.5 67.1 827.5 120.9 827.2 120.9 812.2 67.1 797.1 67.1 816.5 132.4 816.5 132.8 836.2 132.8 849.6 86.6 862.4 132.8 882.1 132.8 901.1 67.1 887.5 67.1" fill="#fff"/>
  <path d="M771.4,98.8h0l-14.5-8.3c-.4-.2-.9-.2-1.2,0h0c-.4.2-.6.6-.6,1.1v16.7c0,.4.2.9.6,1.1.2.1.4.2.6.2s.4-.1.6-.2l14.5-8.3c.4-.2.6-.6.6-1.1-.1-.6-.3-1-.6-1.2" fill="#fff"/>
  <polyline points="580.5 50.1 580.5 138.6 584.5 138.6 584.5 50.1" fill="#fff"/>
</svg>