<?xml version="1.0" encoding="UTF-8"?>
<svg xmlns="http://www.w3.org/2000/svg" version="1.1" viewBox="0 0 140 27">
  <defs>
    <style>
      .cls-1 {
        fill: #e10088;
      }

      .cls-2 {
        fill: #fff;
      }
    </style>
  </defs>
  <!-- Generator: Adobe Illustrator 28.6.0, SVG Export Plug-In . SVG Version: 1.2.0 Build 709)  -->
  <g>
    <g id="Layer_1">
      <g>
        <g>
          <circle class="cls-1" cx="22.6" cy="1.7" r="1.6"/>
          <path class="cls-2" d="M34,5.9h0c.8,0,1.4.6,1.4,1.4v1.5c.6-1.9,2.7-3.4,5.3-3.4s4.1,1.5,4.7,3.8h0c.8-2.2,2.8-3.8,5.5-3.8s5.1,2.3,5.1,6.1v8.1c0,.9-.7,1.6-1.6,1.6h0c-.9,0-1.6-.7-1.6-1.6v-7.7c0-2.2-.8-3.9-3-3.9s-4,2.8-4,4.9v6.7c0,.9-.7,1.6-1.6,1.6h0c-.9,0-1.6-.7-1.6-1.6v-7.7c0-2.7-1.2-3.9-3.2-3.9s-3.8,3-3.8,5.1v6.5c0,.9-.7,1.6-1.6,1.6h0c-.9,0-1.6-.7-1.6-1.6V7.3c0-.8.6-1.4,1.4-1.4Z"/>
          <path class="cls-2" d="M57.8,15.5V7.4c0-2.1,3.1-2.1,3.1,0,0,0,0,7.6,0,7.6,0,2.8,1.1,4,3.1,4,2.9,0,3.9-2.8,3.9-5.1v-6.5c0-2.1,3.1-2.1,3.1,0,0,0,0,12.4,0,12.4,0,.8-.6,1.4-1.4,1.4-.8,0-1.4-.6-1.4-1.4v-1.7c-2.4,5.6-10.9,4.6-10.5-2.6Z"/>
          <path class="cls-1" d="M73.4,17c.6-.4,1.4-.3,1.8.2,1.4,2,6.6,2.5,6.8,0,0-1.1-1.6-1.7-3.4-2.3-2.3-.7-5.4-1.7-5.4-5,.4-5.4,8.2-5.8,10.8-2,.5.7.3,1.6-.5,2-.6.3-1.3.2-1.7-.3-.9-1-2.1-1.5-3.2-1.5-1.5,0-2.4.8-2.4,1.8s1.6,1.9,3.7,2.6c2,.7,5,1.6,5,4.8s-2.8,4.3-5.9,4.3c-2.2,0-4.5-.8-6-2.7s-.3-1.5.3-1.9Z"/>
          <path class="cls-1" d="M87.8,17.9v-9.5h-1.2c-.7,0-1.3-.6-1.3-1.3,0-.7.6-1.3,1.3-1.3h1.1v-2c.2-.8.8-1.4,1.6-1.4.8,0,1.5.7,1.5,1.5,0,0,0,2,0,2h2.6c.7,0,1.3.6,1.3,1.3,0,.7-.6,1.3-1.3,1.3,0,0-2.5,0-2.5,0v9.3c0,.6.1.7.6.7h1.8c.8,0,1.4.6,1.4,1.4,0,.8-.6,1.4-1.4,1.4h-2.9c-1.7,0-2.6-1.1-2.6-3.4Z"/>
          <path class="cls-1" d="M112.8,13.6c0-4.7,3.3-8.2,7.4-8.2s4.6,1.3,5.7,3.4c.4.7,0,1.7-.7,2h0c-.7.3-1.4,0-1.8-.6-.8-1.4-1.7-2.1-3.3-2.1s-4.4,1.9-4.4,5.5,1.9,5.3,4.7,5.3,2.8-.7,3.7-1.8c.4-.5,1.2-.6,1.8-.2h0c.6.4.8,1.3.3,1.9-1.5,1.9-3.5,2.8-6,2.8-4.2,0-7.4-3.3-7.4-8Z"/>
          <path class="cls-1" d="M129.7,21.2h0c-.9,0-1.6-.7-1.6-1.6V1.7c0-.9.7-1.6,1.6-1.6h0c.9,0,1.6.7,1.6,1.6v11.3h.2l5.9-6.7c.2-.3.6-.4,1-.4h0c1.1,0,1.7,1.3,1,2.1l-4,4.7,4.4,6.2c.7,1,0,2.4-1.2,2.4h0c-.5,0-.9-.2-1.2-.6l-4.1-5.7-1.9,1.8v2.9c0,.9-.7,1.6-1.6,1.6Z"/>
          <path class="cls-2" d="M0,13.6C0,8.9,3.3,5.4,7.4,5.4s4.6,1.3,5.7,3.4c.8,1.6-1.6,3-2.5,1.4-2.3-4-7.8-1.9-7.7,3.4-.2,4.9,5.4,7.1,8.3,3.5,1.1-1.3,3.1.4,2.1,1.7C8.9,24.4-.2,21.3,0,13.6Z"/>
          <path class="cls-1" d="M18.2,25.4c-.5,0-.9-.4-.9-.9s.4-.9.9-.9h8.8c.5,0,.9.4.9.9s-.4.9-.9.9h-8.8Z"/>
          <path class="cls-2" d="M22.6,5.4c-4.5,0-8.1,3.6-8.1,8.1s3.6,8.1,8.1,8.1,8.1-3.6,8.1-8.1-3.6-8.1-8.1-8.1ZM26.7,14.1l-3.5,3.5h0c-.3.3-.9.3-1.2,0l-3.5-3.5c-.3-.3-.3-.9,0-1.2s.9-.3,1.2,0l2,2v-4.9c0-.5.4-.9.9-.9s.9.4.9.9v4.9l2-2c.3-.3.9-.3,1.2,0,.3.3.3.9,0,1.2Z"/>
        </g>
        <path class="cls-1" d="M102.9,5.4c-4.5,0-8.1,3.6-8.1,8.1s3.6,8.1,8.1,8.1,8.1-3.6,8.1-8.1-3.6-8.1-8.1-8.1ZM102.9,18.8c-3,0-5.3-2.4-5.3-5.3s2.4-5.3,5.3-5.3,5.3,2.4,5.3,5.3-2.4,5.3-5.3,5.3Z"/>
      </g>
    </g>
  </g>
</svg>