<?xml version="1.0" encoding="UTF-8"?>
<svg id="Layer_1" data-name="Layer 1" xmlns="http://www.w3.org/2000/svg" width="300" height="70" viewBox="0 0 300 70">
  <path d="M112.27,13.8c-11.72,0-21.2,9.55-21.2,21.2s9.55,21.2,21.2,21.2,21.2-9.55,21.2-21.2-9.49-21.2-21.2-21.2ZM112.27,47.8c-7.07,0-12.8-5.73-12.8-12.8s5.73-12.8,12.8-12.8,12.8,5.73,12.8,12.8-5.73,12.8-12.8,12.8Z" fill="#21dbaa"/>
  <polygon points="108.6 41.06 119.78 34.84 108.6 28.75 108.6 41.06" fill="#21dbaa"/>
  <path d="M141.86,24.54v2.9h-2.18v3h2.18v15.24h3.68v-15.24h3.99v-3h-3.99v-2.9c0-.65.31-.95.85-.95h4.02v-2.97h-4.5c-2.45,0-4.06,1.4-4.06,3.92h0Z" fill="#21dbaa"/>
  <path d="M156.83,41.49v-20.83h-3.72v21.04c0,2.69,1.09,3.99,3.14,3.99h3.72v-3.31h-2.45c-.55,0-.68-.2-.68-.89h-.01Z" fill="#21dbaa"/>
  <path d="M170.95,26.93c-5.25,0-8.9,3.99-8.9,9.62s3.55,9.62,8.76,9.62,8.83-4.23,8.83-9.65-3.44-9.58-8.69-9.58h0ZM170.85,42.95c-3.41,0-5.25-2.9-5.25-6.41s1.88-6.41,5.32-6.41,5.18,2.9,5.18,6.41-1.91,6.41-5.25,6.41Z" fill="#21dbaa"/>
  <polygon points="205.39 27.44 201.33 42.65 201.02 42.65 196.52 27.44 192.67 27.44 188.41 42.65 188.13 42.65 183.97 27.44 180.29 27.44 185.34 45.68 190.66 45.68 194.58 32.21 198.3 45.68 203.65 45.68 208.93 27.44 205.39 27.44" fill="#21dbaa"/>
</svg>