<?xml version="1.0" encoding="UTF-8"?>
<svg id="Layer_1" xmlns="http://www.w3.org/2000/svg" version="1.1" viewBox="0 0 56.7 56.7">
  <!-- Generator: Adobe Illustrator 29.0.1, SVG Export Plug-In . SVG Version: 2.1.0 Build 192)  -->
  <defs>
    <style>
      .st0 {
        fill: #1a1d24;
      }
    </style>
  </defs>
  <path class="st0" d="M17.1,34.5c0-1,.7-1.8,1.7-1.8s1.8.7,1.8,1.8-.7,1.7-1.8,1.7-1.7-.7-1.7-1.7Z"/>
  <path class="st0" d="M22.5,32.9c0-2.5,2.4-3.8,5.1-3.8h2.9v-.8c0-1.8-1.1-2.8-2.4-2.8s-2.5.8-3.2,2.6l-2.1-.9c.8-2.4,2.7-3.9,5.3-3.9s4.7,1.7,4.7,4.6v5.6c0,.3.1.4.3.4h.9v2h-1.4c-1.1,0-1.7-.6-1.7-1.8v-.8s-.2,0-.2,0c-.7,1.6-2.4,2.9-4.5,2.9s-3.9-1.3-3.9-3.4ZM26.8,34.1c1.7,0,3.4-1.7,3.6-3.3h-2c-2,0-3.5.6-3.5,1.8s1,1.5,2,1.5Z"/>
  <path class="st0" d="M35.4,20.2c0-.9.7-1.6,1.7-1.6s1.7.7,1.7,1.6-.7,1.6-1.6,1.6-1.7-.7-1.7-1.6ZM35.8,23.7h2.5v12.3h-2.5v-12.3Z"/>
</svg>