<?xml version="1.0" encoding="UTF-8"?>
<svg id="Layer_1" xmlns="http://www.w3.org/2000/svg" version="1.1" viewBox="0 0 56.7 56.7">
  <!-- Generator: Adobe Illustrator 29.0.1, SVG Export Plug-In . SVG Version: 2.1.0 Build 192)  -->
  <defs>
    <style>
      .st0 {
        fill: #1a1d24;
      }
    </style>
  </defs>
  <path class="st0" d="M8.5,34.5c0-1,.7-1.8,1.7-1.8s1.8.7,1.8,1.8-.7,1.7-1.8,1.7-1.7-.7-1.7-1.7Z"/>
  <path class="st0" d="M14.5,23.7h2.1v2.4h.1c.7-1.5,2-2.7,4.2-2.7,3.2,0,5.5,2.7,5.5,6.5s-2.4,6.5-5.4,6.5-3.4-1.3-4-2.6h-.2v6.8h-2.4v-16.8ZM20.5,34c2,0,3.4-1.6,3.4-4.1s-1.4-4.2-3.4-4.2-3.5,1.9-3.5,4.2,1.2,4.2,3.4,4.2Z"/>
  <path class="st0" d="M27.9,29.8c0-3.8,2.3-6.5,5.5-6.5s3.3,1.2,3.9,2.6h.2v-6.9h2.4v16.9h-2.1v-2.4h-.1c-.7,1.5-2.1,2.7-4.2,2.7-3.2,0-5.6-2.6-5.6-6.5ZM33.9,34c2.2,0,3.5-1.9,3.5-4.2s-1.2-4.1-3.4-4.1-3.4,1.5-3.4,4.1,1.3,4.2,3.4,4.2Z"/>
  <path class="st0" d="M43.1,25.7h-1.5v-2h1.5v-2c0-1.7,1.1-2.6,2.7-2.6h3v2h-2.7c-.4,0-.6.2-.6.6v2h2.7v2h-2.7v10.3h-2.5v-10.3Z"/>
</svg>