<?xml version="1.0" encoding="UTF-8"?>
<svg id="Layer_1" xmlns="http://www.w3.org/2000/svg" version="1.1" viewBox="0 0 56.7 56.7">
  <!-- Generator: Adobe Illustrator 29.0.1, SVG Export Plug-In . SVG Version: 2.1.0 Build 192)  -->
  <defs>
    <style>
      .st0 {
        fill: #1a1d24;
      }
    </style>
  </defs>
  <path class="st0" d="M6,34.5c0-1,.7-1.8,1.7-1.8s1.8.7,1.8,1.8-.7,1.7-1.8,1.7-1.7-.7-1.7-1.7Z"/>
  <path class="st0" d="M12,23.7h2.1v2.4h.1c.7-1.5,2-2.7,4.2-2.7,3.2,0,5.5,2.7,5.5,6.5s-2.4,6.5-5.4,6.5-3.4-1.3-4-2.6h-.2v6.8h-2.4v-16.8ZM18,34c2,0,3.4-1.6,3.4-4.1s-1.4-4.2-3.4-4.2-3.5,1.9-3.5,4.2,1.2,4.2,3.4,4.2Z"/>
  <path class="st0" d="M26.2,23.7h2.3v2.4h.2c.4-1.5,2.2-2.7,4.2-2.7s4.1,1.9,4.1,4.9v7.7h-2.5v-6.9c0-2.5-.9-3.5-2.5-3.5s-3.2,1.6-3.2,4.3v6.2h-2.5v-12.3Z"/>
  <path class="st0" d="M44.1,32v1.7h.5c2.4,0,6.2.7,6.2,3.5s-2.2,3.4-6.3,3.4-6-1.3-6-3.4,1.7-2.8,3.5-3.2v-2.3c-1.7-.6-2.8-2-2.8-3.7,0-2.5,2.2-4.3,5.4-4.3h5.8v1.7h-2.7v.2c.9.5,1.8,1.3,1.8,2.8s-2.2,3.7-5.2,3.7h-.2ZM44.5,38.4c2.3,0,3.8-.4,3.8-1.3s-1.6-1.4-3.7-1.4-3.7.4-3.7,1.4,1.6,1.3,3.7,1.3ZM44.4,30c1.6,0,2.7-.9,2.7-2s-.9-2.2-2.6-2.2-2.8,1.1-2.8,2.2,1,2,2.7,2Z"/>
</svg>