<?xml version="1.0" encoding="UTF-8"?>
<svg id="Layer_1" xmlns="http://www.w3.org/2000/svg" version="1.1" viewBox="0 0 56.7 56.7">
  <!-- Generator: Adobe Illustrator 29.0.1, SVG Export Plug-In . SVG Version: 2.1.0 Build 192)  -->
  <defs>
    <style>
      .st0 {
        fill: #1a1d24;
      }
    </style>
  </defs>
  <path class="st0" d="M8.4,34.5c0-1,.7-1.8,1.7-1.8s1.8.7,1.8,1.8-.7,1.7-1.8,1.7-1.7-.7-1.7-1.7Z"/>
  <path class="st0" d="M13.7,33.2l1.8-1.2c.9,1.5,2.3,2.1,3.7,2.1s2.3-.6,2.3-1.4-1.3-1.3-2.7-1.8c-1.9-.6-4.3-1.3-4.3-4s2.1-3.6,4.3-3.6,4.3,1.4,5,3.1l-1.9,1c-.6-1.3-2-1.9-3-1.9s-1.9.6-1.9,1.4,1.3,1.5,3,2c1.6.5,4,1.3,4,3.8s-2.3,3.5-4.7,3.4c-2.1,0-4.3-.9-5.4-3.1Z"/>
  <path class="st0" d="M24.5,23.7h2.5l3.3,10.2h.2l3.2-10.2h2.4l-4.1,12.3h-3.4l-4-12.3Z"/>
  <path class="st0" d="M41.8,32v1.7h.5c2.4,0,6.2.7,6.2,3.5s-2.2,3.4-6.3,3.4-6-1.3-6-3.4,1.7-2.8,3.5-3.2v-2.3c-1.7-.6-2.8-2-2.8-3.7,0-2.5,2.2-4.3,5.4-4.3h5.8v1.7h-2.7v.2c.9.5,1.8,1.3,1.8,2.8s-2.2,3.7-5.2,3.7h-.2ZM42.2,38.4c2.3,0,3.8-.4,3.8-1.3s-1.6-1.4-3.7-1.4-3.7.4-3.7,1.4,1.6,1.3,3.7,1.3ZM42.1,30c1.6,0,2.7-.9,2.7-2s-.9-2.2-2.6-2.2-2.8,1.1-2.8,2.2,1,2,2.7,2Z"/>
</svg>