<?xml version="1.0" encoding="UTF-8"?>
<svg id="Layer_1" data-name="Layer 1" xmlns="http://www.w3.org/2000/svg" viewBox="0 0 1006.3 200">
  <g>
    <path d="M802.2,65.3c-19.1,0-34.6,15.5-34.6,34.6s15.5,34.6,34.6,34.6,34.6-15.5,34.6-34.6-15.5-34.6-34.6-34.6ZM802.2,120.8c-11.5,0-20.9-9.4-20.9-20.9s9.4-20.9,20.9-20.9,20.9,9.4,20.9,20.9-9.4,20.9-20.9,20.9Z" fill="#fff"/>
    <path d="M705.3,46.7c-2.7,2.5-4.1,6.2-4.1,10.7v11.1h-7.7v11.7h7.7v52.5h14.1v-52.4h14.1v-11.7h-14.1v-11.2c0-1.9.8-2.8,2.5-2.8h14.8v-11.6h-16.5c-4.4,0-8.2,1.3-10.8,3.7Z" fill="#fff"/>
    <path d="M753.5,119.5c-.3-.3-.4-1-.4-2.1V43.1h-14.3v75c0,4.8,1,8.5,3,11,2,2.5,4.9,3.7,8.7,3.7h13.7v-12.8h-9.2c-1,0-1.3-.3-1.5-.5Z" fill="#fff"/>
    <polygon points="927.9 67.1 913.6 120.9 913.3 120.9 897.5 67.5 897.4 67.1 883 67.1 867.9 120.9 867.8 120.9 852.7 67.1 837.6 67.1 856.9 132.4 857 132.8 876.7 132.8 890.1 86.6 902.9 132.8 922.6 132.8 941.7 67.1 927.9 67.1" fill="#fff"/>
    <path d="M811.8,98.8l-14.5-8.3c-.4-.2-.9-.2-1.2,0-.4.2-.6.6-.6,1.1v16.7c0,.4.2.9.6,1.1.2.1.4.2.6.2s.4-.1.6-.2l14.5-8.3c.4-.2.6-.6.6-1.1,0-.6-.2-1-.6-1.2Z" fill="#fff"/>
  </g>
  <g>
    <path d="M169.1,65.9c-8.8,0-16.9,3.5-23,9.8-6.1,6.4-9.4,15.2-9.4,24.7s3.1,18.3,9,24.5c6.1,6.4,14.6,9.7,24.7,9.7,5.3,0,10.5-1.1,15.2-3.3,4.9-2.3,9-5.5,12.2-9.6l.3-.4-8.1-8.2-.4.5c-4.4,5.1-10.9,8.1-17.9,8.1-11.9,0-18.5-5.1-20.1-15.4h47.4v-.5c.1-4.6.1-6.2.1-8.5,0-8.4-2.8-16.1-7.9-21.8-5.5-6.3-13.1-9.6-22.1-9.6ZM151.6,95c1.5-10.4,7.3-15.4,17.8-15.4,9,0,15.2,6.2,15.7,15.4h-33.5Z" fill="#fff"/>
    <path d="M345.5,65.9c-19,0-34.4,15.4-34.4,34.4s15.4,34.4,34.4,34.4,34.4-15.4,34.4-34.4-15.4-34.4-34.4-34.4ZM345.5,121.1c-11.4,0-20.8-9.3-20.8-20.8s9.3-20.8,20.8-20.8,20.8,9.3,20.8,20.8-9.3,20.8-20.8,20.8Z" fill="#fff"/>
    <path d="M98.7,65.8c-9.9,0-17.2,4.8-21.7,14.2h-.5l-.3-12.4h-11.5v88.7h13.8v-35.4h.4c1.7,3.9,4.1,7.1,7.1,9.4,3.7,2.9,8.2,4.4,13.4,4.4,7.9,0,15.2-3.4,20.5-9.6,5.3-6.3,8.3-15.1,8.3-24.9s-2.9-18.5-8.3-24.7c-5.4-6.3-12.9-9.7-21.2-9.7ZM96.3,121.5c-5.3,0-9.8-2.2-12.9-6.3-2.9-3.8-4.5-9.1-4.5-14.9s1.7-11.3,4.7-15.1c3.2-4.1,7.8-6.3,13.1-6.3,5,0,9.2,2.1,12.3,6,3.1,4,4.7,9.4,4.7,15.6,0,12.6-7,21-17.4,21Z" fill="#fff"/>
    <path d="M223.2,79.5h-.4l-.8-11.8h-11.9v65.3h14.2v-37.8c0-8.6,3.5-12.3,11.6-12.3h9.1v-15.3h-4.6c-9.2,0-14.8,3.9-17.2,11.9Z" fill="#fff"/>
    <path d="M276.5,76.7c7.7,0,13.7,4.1,16.4,11.3l.2.5,11-4.1-.2-.5c-2.3-5.8-5.8-10.3-10.4-13.5-4.7-3.2-10.3-4.8-16.7-4.8-5.9,0-11.8,1.9-16.1,5.3-4.8,3.7-7.4,9-7.4,14.9s2,10.2,6,13.7c3.4,3,8.1,5.3,14.6,7,.5.1.9.2,1.4.3,3.9.9,7.7,1.7,10.3,3,2.8,1.4,4.1,3.2,4.1,5.7,0,5.1-6,7.4-12,7.4-7.9,0-15.3-4.2-19.2-11l-.3-.5-10.2,5.5.2.5c2.4,5.2,6.4,9.5,11.5,12.4,5.1,3,11.3,4.5,17.9,4.5,7.1,0,13.6-1.7,18.3-4.9,5.2-3.5,8-8.5,8-14.3.1-5.6-2.3-10-7.1-13.4-4.5-3.1-10.5-4.9-15.2-6.1-7.3-2.1-15.5-4.4-15.5-10.7.1-3.9,3.9-8.2,10.4-8.2Z" fill="#fff"/>
    <path d="M424.3,65.9c-4.9,0-9.6,1.5-13.4,4.2-3.5,2.5-6.3,5.9-8.1,9.9h-.6v-12.3h-13.1v65.3h14.2v-36.4c0-2.8,1.2-7.3,3.8-11.2,2.2-3.2,6.1-7.1,12.5-7.1,4.4,0,7.6,1.3,9.6,3.9,2,2.5,2.9,6.3,2.9,11.6v39.2h14.2v-41c0-8.1-1.9-14.5-5.6-19.1-3.7-4.6-9.3-7-16.4-7Z" fill="#fff"/>
    <path d="M512.9,120.1v-29.4c0-7.3-2.3-13.4-6.7-17.8-4.5-4.6-11.1-7-19-7-14.1,0-23.9,6.4-29.9,19.6l-.2.5,12.3,5.7.2-.5c3.4-7.3,10-12.2,16.4-12.2,7.2,0,12.6,4.8,12.6,11.2v4.6h-14.9c-16.7,0-27.1,8-27.1,20.9,0,5.6,2.1,10.4,6,13.7,3.7,3.2,8.9,4.9,14.7,4.9,5.3,0,10.3-1.5,14.4-4.4,3.8-2.6,6.8-6.3,8.9-10.6h.5l-.1,3.5c0,6.5,3.2,9.9,9.2,9.9h9.2v-11.2h-5.4c-.9.3-1.1-.7-1.1-1.4ZM492,117.4c-3.4,2.7-7.6,4.5-10.6,4.5-2.8,0-5.4-.7-7.2-1.8-1.9-1.2-2.9-3-2.9-5.1,0-2.7,1.7-4.9,4.9-6.3,3-1.3,7.2-2,12.1-2h10.4c-.5,3.9-2.9,7.7-6.7,10.7Z" fill="#fff"/>
    <path d="M545,120.2c-1,0-1.3-.2-1.5-.4-.3-.3-.4-1-.4-2.1V43.8h-14.2v74.6c0,4.8,1,8.5,2.9,10.9s4.9,3.7,8.6,3.7h13.6v-12.7l-9-.1Z" fill="#fff"/>
  </g>
  <rect x="620.9" y="50.1" width="4.1" height="88.5" fill="#fff"/>
</svg>