<svg height="266.66666" viewBox="0 0 1341.7333 266.66666" width="1341.7333" xmlns="http://www.w3.org/2000/svg" xmlns:xlink="http://www.w3.org/1999/xlink"><clipPath id="a"><path d="m0 200h1006.3v-200h-1006.3z"/></clipPath><g clip-path="url(#a)" transform="matrix(1.3333333 0 0 -1.3333333 0 266.66667)"><g fill="#00dcaa"><path d="m0 0c-11.5 0-20.9 9.4-20.9 20.9s9.4 20.9 20.9 20.9 20.9-9.4 20.9-20.9-9.4-20.9-20.9-20.9m0 55.5c-19.1 0-34.6-15.5-34.6-34.6s15.5-34.6 34.6-34.6 34.6 15.5 34.6 34.6-15.5 34.6-34.6 34.6" transform="translate(802.2 79.2)"/><path d="m0 0c-2.7-2.5-4.1-6.2-4.1-10.7v-11.1h-7.7v-11.7h7.7v-52.5h14.1v52.4h14.1v11.7h-14.1v11.2c0 1.9.8 2.8 2.5 2.8h14.8v11.6h-16.5c-4.4 0-8.2-1.3-10.8-3.7" transform="translate(705.3 153.3)"/><path d="m0 0c-.3.3-.4 1-.4 2.1v74.3h-14.3v-75c0-4.8 1-8.5 3-11s4.9-3.7 8.7-3.7h13.7v12.8h-9.2c-1 0-1.3.3-1.5.5" transform="translate(753.5 80.5)"/><path d="m0 0-14.3-53.8h-.3l-15.8 53.4-.1.4h-14.4l-15.1-53.8h-.1l-15.1 53.8h-15.1l19.3-65.3.1-.4h19.7l13.4 46.2 12.8-46.2h19.7l19.1 65.7z" transform="translate(927.9 132.9)"/><path d="m0 0-14.5 8.3c-.4.2-.9.2-1.2 0-.4-.2-.6-.6-.6-1.1v-16.7c0-.4.2-.9.6-1.1.2-.1.4-.2.6-.2s.4.1.6.2l14.5 8.3c.4.2.6.6.6 1.1 0 .6-.2 1-.6 1.2" transform="translate(811.8 101.2)"/></g><g fill="#00b8eb"><path d="m0 0c1.5 10.4 7.3 15.4 17.8 15.4 9 0 15.2-6.2 15.7-15.4zm17.5 29.1c-8.8 0-16.9-3.5-23-9.8-6.1-6.4-9.4-15.2-9.4-24.7 0-9.8 3.1-18.3 9-24.5 6.1-6.4 14.6-9.7 24.7-9.7 5.3 0 10.5 1.1 15.2 3.3 4.9 2.3 9 5.5 12.2 9.6l.3.4-8.1 8.2-.4-.5c-4.4-5.1-10.9-8.1-17.9-8.1-11.9 0-18.5 5.1-20.1 15.4h47.4v.5c.1 4.6.1 6.2.1 8.5 0 8.4-2.8 16.1-7.9 21.8-5.5 6.3-13.1 9.6-22.1 9.6" transform="translate(151.6 105)"/><path d="m0 0c-11.4 0-20.8 9.3-20.8 20.8 0 11.4 9.3 20.8 20.8 20.8s20.8-9.3 20.8-20.8c0-11.4-9.3-20.8-20.8-20.8m0 55.2c-19 0-34.4-15.4-34.4-34.4s15.4-34.4 34.4-34.4 34.4 15.4 34.4 34.4-15.4 34.4-34.4 34.4" transform="translate(345.5 78.9)"/><path d="m0 0c-5.3 0-9.8 2.2-12.9 6.3-2.9 3.8-4.5 9.1-4.5 14.9 0 5.9 1.7 11.3 4.7 15.1 3.2 4.1 7.8 6.3 13.1 6.3 5 0 9.2-2.1 12.3-6 3.1-4 4.7-9.4 4.7-15.6 0-12.6-7-21-17.4-21m2.4 55.7c-9.9 0-17.2-4.8-21.7-14.2h-.5l-.3 12.4h-11.5v-88.7h13.8v35.4h.4c1.7-3.9 4.1-7.1 7.1-9.4 3.7-2.9 8.2-4.4 13.4-4.4 7.9 0 15.2 3.4 20.5 9.6 5.3 6.3 8.3 15.1 8.3 24.9 0 9.7-2.9 18.5-8.3 24.7-5.4 6.3-12.9 9.7-21.2 9.7" transform="translate(96.3 78.5)"/><path d="m0 0h-.4l-.8 11.8h-11.9v-65.3h14.2v37.8c0 8.6 3.5 12.3 11.6 12.3h9.1v15.3h-4.6c-9.2 0-14.8-3.9-17.2-11.9" transform="translate(223.2 120.5)"/><path d="m0 0c7.7 0 13.7-4.1 16.4-11.3l.2-.5 11 4.1-.2.5c-2.3 5.8-5.8 10.3-10.4 13.5-4.7 3.2-10.3 4.8-16.7 4.8-5.9 0-11.8-1.9-16.1-5.3-4.8-3.7-7.4-9-7.4-14.9 0-5.6 2-10.2 6-13.7 3.4-3 8.1-5.3 14.6-7 .5-.1.9-.2 1.4-.3 3.9-.9 7.7-1.7 10.3-3 2.8-1.4 4.1-3.2 4.1-5.7 0-5.1-6-7.4-12-7.4-7.9 0-15.3 4.2-19.2 11l-.3.5-10.2-5.5.2-.5c2.4-5.2 6.4-9.5 11.5-12.4 5.1-3 11.3-4.5 17.9-4.5 7.1 0 13.6 1.7 18.3 4.9 5.2 3.5 8 8.5 8 14.3.1 5.6-2.3 10-7.1 13.4-4.5 3.1-10.5 4.9-15.2 6.1-7.3 2.1-15.5 4.4-15.5 10.7.1 3.9 3.9 8.2 10.4 8.2" transform="translate(276.5 123.3)"/><path d="m0 0c-4.9 0-9.6-1.5-13.4-4.2-3.5-2.5-6.3-5.9-8.1-9.9h-.6v12.3h-13.1v-65.3h14.2v36.4c0 2.8 1.2 7.3 3.8 11.2 2.2 3.2 6.1 7.1 12.5 7.1 4.4 0 7.6-1.3 9.6-3.9 2-2.5 2.9-6.3 2.9-11.6v-39.2h14.2v41c0 8.1-1.9 14.5-5.6 19.1s-9.3 7-16.4 7" transform="translate(424.3 134.1)"/><path d="m0 0c-3.4-2.7-7.6-4.5-10.6-4.5-2.8 0-5.4.7-7.2 1.8-1.9 1.2-2.9 3-2.9 5.1 0 2.7 1.7 4.9 4.9 6.3 3 1.3 7.2 2 12.1 2h10.4c-.5-3.9-2.9-7.7-6.7-10.7m20.9-2.7v29.4c0 7.3-2.3 13.4-6.7 17.8-4.5 4.6-11.1 7-19 7-14.1 0-23.9-6.4-29.9-19.6l-.2-.5 12.3-5.7.2.5c3.4 7.3 10 12.2 16.4 12.2 7.2 0 12.6-4.8 12.6-11.2v-4.6h-14.9c-16.7 0-27.1-8-27.1-20.9 0-5.6 2.1-10.4 6-13.7 3.7-3.2 8.9-4.9 14.7-4.9 5.3 0 10.3 1.5 14.4 4.4 3.8 2.6 6.8 6.3 8.9 10.6h.5l-.1-3.5c0-6.5 3.2-9.9 9.2-9.9h9.2v11.2h-5.4c-.9-.3-1.1.7-1.1 1.4" transform="translate(492 82.6)"/><path d="m0 0c-1 0-1.3.2-1.5.4-.3.3-.4 1-.4 2.1v73.9h-14.2v-74.6c0-4.8 1-8.5 2.9-10.9s4.9-3.7 8.6-3.7h13.6v12.7z" transform="translate(545 79.8)"/></g><path d="m620.9 149.9h4.1v-88.5h-4.1z" fill="#6e6e6e"/></g></svg>