<?xml version="1.0" encoding="UTF-8" standalone="no"?>
<svg
   xmlns:dc="http://purl.org/dc/elements/1.1/"
   xmlns:cc="http://creativecommons.org/ns#"
   xmlns:rdf="http://www.w3.org/1999/02/22-rdf-syntax-ns#"
   xmlns:svg="http://www.w3.org/2000/svg"
   xmlns="http://www.w3.org/2000/svg"
   viewBox="0 0 1341.7333 266.66666"
   height="266.66666"
   width="1341.7333"
   xml:space="preserve"
   id="svg2"
   version="1.1"><metadata
     id="metadata8"><rdf:RDF><cc:Work
         rdf:about=""><dc:format>image/svg+xml</dc:format><dc:type
           rdf:resource="http://purl.org/dc/dcmitype/StillImage" /></cc:Work></rdf:RDF></metadata><defs
     id="defs6"><clipPath
       id="clipPath18"
       clipPathUnits="userSpaceOnUse"><path
         id="path16"
         d="M 0,200 H 1006.3 V 0 H 0 Z" /></clipPath></defs><g
     transform="matrix(1.3333333,0,0,-1.3333333,0,266.66667)"
     id="g10"><g
       id="g12"><g
         clip-path="url(#clipPath18)"
         id="g14"><g
           transform="translate(802.2,79.2)"
           id="g20"><path
             id="path22"
             style="fill:#000000;fill-opacity:1;fill-rule:nonzero;stroke:none"
             d="m 0,0 c -11.5,0 -20.9,9.4 -20.9,20.9 0,11.5 9.4,20.9 20.9,20.9 11.5,0 20.9,-9.4 20.9,-20.9 C 20.9,9.4 11.5,0 0,0 M 0,55.5 C -19.1,55.5 -34.6,40 -34.6,20.9 -34.6,1.8 -19.1,-13.7 0,-13.7 19.1,-13.7 34.6,1.8 34.6,20.9 34.6,40 19.1,55.5 0,55.5" /></g><g
           transform="translate(705.3,153.3)"
           id="g24"><path
             id="path26"
             style="fill:#000000;fill-opacity:1;fill-rule:nonzero;stroke:none"
             d="m 0,0 c -2.7,-2.5 -4.1,-6.2 -4.1,-10.7 v -11.1 h -7.7 v -11.7 h 7.7 V -86 H 10 v 52.4 h 14.1 v 11.7 H 10 v 11.2 c 0,1.9 0.8,2.8 2.5,2.8 H 27.3 V 3.7 H 10.8 C 6.4,3.7 2.6,2.4 0,0" /></g><g
           transform="translate(753.5,80.5)"
           id="g28"><path
             id="path30"
             style="fill:#000000;fill-opacity:1;fill-rule:nonzero;stroke:none"
             d="m 0,0 c -0.3,0.3 -0.4,1 -0.4,2.1 v 74.3 h -14.3 v -75 c 0,-4.8 1,-8.5 3,-11 2,-2.5 4.9,-3.7 8.7,-3.7 H 10.7 V -0.5 H 1.5 C 0.5,-0.5 0.2,-0.2 0,0" /></g><g
           transform="translate(927.9,132.9)"
           id="g32"><path
             id="path34"
             style="fill:#000000;fill-opacity:1;fill-rule:nonzero;stroke:none"
             d="m 0,0 -14.3,-53.8 h -0.3 L -30.4,-0.4 -30.5,0 H -44.9 L -60,-53.8 h -0.1 L -75.2,0 h -15.1 l 19.3,-65.3 0.1,-0.4 h 19.7 l 13.4,46.2 12.8,-46.2 H -5.3 L 13.8,0 Z" /></g><g
           transform="translate(811.8,101.2)"
           id="g36"><path
             id="path38"
             style="fill:#000000;fill-opacity:1;fill-rule:nonzero;stroke:none"
             d="m 0,0 -14.5,8.3 c -0.4,0.2 -0.9,0.2 -1.2,0 -0.4,-0.2 -0.6,-0.6 -0.6,-1.1 V -9.5 c 0,-0.4 0.2,-0.9 0.6,-1.1 0.2,-0.1 0.4,-0.2 0.6,-0.2 0.2,0 0.4,0.1 0.6,0.2 L 0,-2.3 c 0.4,0.2 0.6,0.6 0.6,1.1 0,0.6 -0.2,1 -0.6,1.2" /></g><g
           transform="translate(151.6,105)"
           id="g40"><path
             id="path42"
             style="fill:#000000;fill-opacity:1;fill-rule:nonzero;stroke:none"
             d="M 0,0 C 1.5,10.4 7.3,15.4 17.8,15.4 26.8,15.4 33,9.2 33.5,0 Z m 17.5,29.1 c -8.8,0 -16.9,-3.5 -23,-9.8 -6.1,-6.4 -9.4,-15.2 -9.4,-24.7 0,-9.8 3.1,-18.3 9,-24.5 6.1,-6.4 14.6,-9.7 24.7,-9.7 5.3,0 10.5,1.1 15.2,3.3 4.9,2.3 9,5.5 12.2,9.6 l 0.3,0.4 -8.1,8.2 -0.4,-0.5 c -4.4,-5.1 -10.9,-8.1 -17.9,-8.1 -11.9,0 -18.5,5.1 -20.1,15.4 h 47.4 v 0.5 c 0.1,4.6 0.1,6.2 0.1,8.5 0,8.4 -2.8,16.1 -7.9,21.8 -5.5,6.3 -13.1,9.6 -22.1,9.6" /></g><g
           transform="translate(345.5,78.9)"
           id="g44"><path
             id="path46"
             style="fill:#000000;fill-opacity:1;fill-rule:nonzero;stroke:none"
             d="m 0,0 c -11.4,0 -20.8,9.3 -20.8,20.8 0,11.4 9.3,20.8 20.8,20.8 11.5,0 20.8,-9.3 20.8,-20.8 C 20.8,9.4 11.5,0 0,0 m 0,55.2 c -19,0 -34.4,-15.4 -34.4,-34.4 0,-19 15.4,-34.4 34.4,-34.4 19,0 34.4,15.4 34.4,34.4 0,19 -15.4,34.4 -34.4,34.4" /></g><g
           transform="translate(96.3,78.5)"
           id="g48"><path
             id="path50"
             style="fill:#000000;fill-opacity:1;fill-rule:nonzero;stroke:none"
             d="m 0,0 c -5.3,0 -9.8,2.2 -12.9,6.3 -2.9,3.8 -4.5,9.1 -4.5,14.9 0,5.9 1.7,11.3 4.7,15.1 3.2,4.1 7.8,6.3 13.1,6.3 5,0 9.2,-2.1 12.3,-6 3.1,-4 4.7,-9.4 4.7,-15.6 C 17.4,8.4 10.4,0 0,0 m 2.4,55.7 c -9.9,0 -17.2,-4.8 -21.7,-14.2 h -0.5 l -0.3,12.4 h -11.5 v -88.7 h 13.8 V 0.6 h 0.4 c 1.7,-3.9 4.1,-7.1 7.1,-9.4 3.7,-2.9 8.2,-4.4 13.4,-4.4 7.9,0 15.2,3.4 20.5,9.6 5.3,6.3 8.3,15.1 8.3,24.9 0,9.7 -2.9,18.5 -8.3,24.7 -5.4,6.3 -12.9,9.7 -21.2,9.7" /></g><g
           transform="translate(223.2,120.5)"
           id="g52"><path
             id="path54"
             style="fill:#000000;fill-opacity:1;fill-rule:nonzero;stroke:none"
             d="M 0,0 H -0.4 L -1.2,11.8 H -13.1 V -53.5 H 1.1 v 37.8 c 0,8.6 3.5,12.3 11.6,12.3 h 9.1 V 11.9 H 17.2 C 8,11.9 2.4,8 0,0" /></g><g
           transform="translate(276.5,123.3)"
           id="g56"><path
             id="path58"
             style="fill:#000000;fill-opacity:1;fill-rule:nonzero;stroke:none"
             d="m 0,0 c 7.7,0 13.7,-4.1 16.4,-11.3 l 0.2,-0.5 11,4.1 -0.2,0.5 C 25.1,-1.4 21.6,3.1 17,6.3 12.3,9.5 6.7,11.1 0.3,11.1 c -5.9,0 -11.8,-1.9 -16.1,-5.3 -4.8,-3.7 -7.4,-9 -7.4,-14.9 0,-5.6 2,-10.2 6,-13.7 3.4,-3 8.1,-5.3 14.6,-7 0.5,-0.1 0.9,-0.2 1.4,-0.3 3.9,-0.9 7.7,-1.7 10.3,-3 2.8,-1.4 4.1,-3.2 4.1,-5.7 0,-5.1 -6,-7.4 -12,-7.4 -7.9,0 -15.3,4.2 -19.2,11 l -0.3,0.5 -10.2,-5.5 0.2,-0.5 c 2.4,-5.2 6.4,-9.5 11.5,-12.4 5.1,-3 11.3,-4.5 17.9,-4.5 7.1,0 13.6,1.7 18.3,4.9 5.2,3.5 8,8.5 8,14.3 0.1,5.6 -2.3,10 -7.1,13.4 -4.5,3.1 -10.5,4.9 -15.2,6.1 -7.3,2.1 -15.5,4.4 -15.5,10.7 C -10.3,-4.3 -6.5,0 0,0" /></g><g
           transform="translate(424.3,134.1)"
           id="g60"><path
             id="path62"
             style="fill:#000000;fill-opacity:1;fill-rule:nonzero;stroke:none"
             d="m 0,0 c -4.9,0 -9.6,-1.5 -13.4,-4.2 -3.5,-2.5 -6.3,-5.9 -8.1,-9.9 h -0.6 V -1.8 H -35.2 V -67.1 H -21 v 36.4 c 0,2.8 1.2,7.3 3.8,11.2 2.2,3.2 6.1,7.1 12.5,7.1 4.4,0 7.6,-1.3 9.6,-3.9 2,-2.5 2.9,-6.3 2.9,-11.6 V -67.1 H 22 v 41 C 22,-18 20.1,-11.6 16.4,-7 12.7,-2.4 7.1,0 0,0" /></g><g
           transform="translate(492,82.6)"
           id="g64"><path
             id="path66"
             style="fill:#000000;fill-opacity:1;fill-rule:nonzero;stroke:none"
             d="m 0,0 c -3.4,-2.7 -7.6,-4.5 -10.6,-4.5 -2.8,0 -5.4,0.7 -7.2,1.8 -1.9,1.2 -2.9,3 -2.9,5.1 0,2.7 1.7,4.9 4.9,6.3 3,1.3 7.2,2 12.1,2 H 6.7 C 6.2,6.8 3.8,3 0,0 m 20.9,-2.7 v 29.4 c 0,7.3 -2.3,13.4 -6.7,17.8 -4.5,4.6 -11.1,7 -19,7 -14.1,0 -23.9,-6.4 -29.9,-19.6 l -0.2,-0.5 12.3,-5.7 0.2,0.5 c 3.4,7.3 10,12.2 16.4,12.2 7.2,0 12.6,-4.8 12.6,-11.2 V 22.6 H -8.3 c -16.7,0 -27.1,-8 -27.1,-20.9 0,-5.6 2.1,-10.4 6,-13.7 3.7,-3.2 8.9,-4.9 14.7,-4.9 5.3,0 10.3,1.5 14.4,4.4 3.8,2.6 6.8,6.3 8.9,10.6 H 9.1 L 9,-5.4 c 0,-6.5 3.2,-9.9 9.2,-9.9 h 9.2 V -4.1 H 22 c -0.9,-0.3 -1.1,0.7 -1.1,1.4" /></g><g
           transform="translate(545,79.8)"
           id="g68"><path
             id="path70"
             style="fill:#000000;fill-opacity:1;fill-rule:nonzero;stroke:none"
             d="m 0,0 c -1,0 -1.3,0.2 -1.5,0.4 -0.3,0.3 -0.4,1 -0.4,2.1 V 76.4 H -16.1 V 1.8 c 0,-4.8 1,-8.5 2.9,-10.9 1.9,-2.4 4.9,-3.7 8.6,-3.7 l 13.6,0 v 12.7 z" /></g><path
           id="path72"
           style="fill:#000000;fill-opacity:1;fill-rule:nonzero;stroke:none"
           d="M 620.9,149.9 H 625 V 61.4 h -4.1 z" /></g></g></g></svg>