<?xml version="1.0" encoding="UTF-8"?>
<svg id="Layer_1" xmlns="http://www.w3.org/2000/svg" version="1.1" viewBox="0 0 56.7 56.7">
  <!-- Generator: Adobe Illustrator 29.0.1, SVG Export Plug-In . SVG Version: 2.1.0 Build 192)  -->
  <path d="M28.3,11.2c6.5,0,12.2,3.7,15.1,9h12C51.9,8.5,41.1,0,28.3,0S4.8,8.6,1.3,20.3h12.1c2.8-5.4,8.5-9,15-9Z"/>
  <path d="M56.5,25.8h-11.2c0,.9.2,1.7.2,2.6,0,9.4-7.7,17.1-17.1,17.1s-17.1-7.7-17.1-17.1,0-1.7.2-2.6H.2c0,.9,0,1.7,0,2.6,0,15.7,12.7,28.3,28.3,28.3s28.3-12.8,28.3-28.3,0-1.7,0-2.6Z"/>
</svg>