<?xml version="1.0" encoding="UTF-8"?>
<svg id="Layer_1" data-name="Layer 1" xmlns="http://www.w3.org/2000/svg" viewBox="0 0 576 576">
  <path d="M164.3,480h-92.9V180.9h92.9v299.1ZM117.8,140.1c-29.7,0-53.8-24.6-53.8-54.3,0-29.71,24.09-53.8,53.8-53.8,29.71,0,53.79,24.09,53.8,53.8,0,29.7-24.1,54.3-53.8,54.3ZM511.9,480h-92.7v-145.6c0-34.7-.7-79.2-48.3-79.2s-55.7,37.7-55.7,76.7v148.1h-92.8V180.9h89.1v40.8h1.3c12.4-23.5,42.7-48.3,87.9-48.3,94,0,111.3,61.9,111.3,142.3v164.3h-.1Z" fill="#f5f7fa"/>
</svg>