<?xml version="1.0" encoding="UTF-8"?>
<svg id="Layer_1" data-name="Layer 1" xmlns="http://www.w3.org/2000/svg" viewBox="0 0 576 576">
  <path d="M512,241.9c-44.04.09-87-13.65-122.8-39.3v178.8c-.03,89.8-72.85,162.58-162.65,162.55-89.8-.03-162.58-72.85-162.55-162.65.03-89.8,72.85-162.58,162.65-162.55,7.48,0,14.94.52,22.35,1.55v89.9c-39.3-12.37-81.19,9.46-93.56,48.76-12.37,39.3,9.46,81.19,48.76,93.56,39.3,12.37,81.19-9.46,93.56-48.76,2.28-7.23,3.44-14.77,3.44-22.36V32h88c-.05,7.44.59,14.87,1.9,22.2h0c6.19,33,25.68,62.01,53.9,80.2,19.88,13.13,43.18,20.12,67,20.1v87.4Z" fill="#f5f7fa"/>
</svg>