<?xml version="1.0" encoding="UTF-8"?>
<svg id="Layer_1" data-name="Layer 1" xmlns="http://www.w3.org/2000/svg" viewBox="0 0 576 576">
  <path d="M384,288c0,22.2-1.2,43.6-3.3,64h-185.3c-2.2-20.4-3.3-41.8-3.3-64s1.2-43.6,3.3-64h185.3c2.2,20.4,3.3,41.8,3.3,64ZM412.8,224h123.1c5.3,20.5,8.1,41.9,8.1,64s-2.8,43.5-8.1,64h-123.1c2.1-20.6,3.2-42,3.2-64s-1.1-43.4-3.2-64ZM525.4,192h-116.7c-10-63.9-29.8-117.4-55.3-151.6,78.3,20.7,142,77.5,171.9,151.6h.1ZM376.3,192h-176.6c6.1-36.4,15.5-68.6,27-94.7,10.5-23.6,22.2-40.7,33.5-51.5,11.2-10.6,20.5-13.8,27.8-13.8s16.6,3.2,27.8,13.8c11.3,10.8,23,27.9,33.5,51.5,11.6,26,20.9,58.2,27,94.7ZM167.3,192H50.6C80.6,117.9,144.2,61.1,222.6,40.4c-25.5,34.2-45.3,87.7-55.3,151.6h0ZM40.1,224h123.1c-2.1,20.6-3.2,42-3.2,64s1.1,43.4,3.2,64H40.1c-5.3-20.5-8.1-41.9-8.1-64s2.8-43.5,8.1-64ZM226.7,478.6c-11.6-26-20.9-58.2-27-94.6h176.6c-6.1,36.4-15.5,68.6-27,94.6-10.5,23.6-22.2,40.7-33.5,51.5-11.2,10.7-20.5,13.9-27.8,13.9s-16.6-3.2-27.8-13.8c-11.3-10.8-23-27.9-33.5-51.5v-.1ZM167.3,384c10,63.9,29.8,117.4,55.3,151.6-78.4-20.7-142-77.5-172-151.6h116.7ZM525.4,384c-30,74.1-93.6,130.9-171.9,151.6,25.5-34.2,45.2-87.7,55.3-151.6h116.7-.1Z" fill="#f5f7fa"/>
</svg>