<?xml version="1.0" encoding="UTF-8"?>
<svg id="Layer_1" data-name="Layer 1" xmlns="http://www.w3.org/2000/svg" viewBox="0 0 980 286">
  <path d="M858.6,56.08H121.4c-35.77,0-64.87,29.1-64.87,64.87v44.1c0,35.77,29.1,64.87,64.87,64.87h737.21c35.77,0,64.87-29.1,64.87-64.87v-44.1c0-35.77-29.1-64.87-64.87-64.87ZM867.33,159.71c.08.16.33.33,1.15.33h7.4v10.2h-10.85c-3.04,0-5.34-.99-6.91-2.96-1.56-1.97-2.38-4.85-2.38-8.72v-59.45h11.26v58.87c0,.9.16,1.48.33,1.73ZM833.21,159.38c-1.64,3.45-4.03,6.41-7.07,8.47-3.29,2.3-7.32,3.54-11.51,3.54-4.6,0-8.72-1.4-11.68-3.95-3.21-2.63-4.85-6.5-4.85-10.94,0-10.28,8.22-16.69,21.54-16.69h11.92v-3.7c0-5.1-4.36-8.96-10.11-8.96-5.1,0-10.36,3.95-13.07,9.7l-.16.41-9.78-4.6.16-.41c4.77-10.52,12.58-15.62,23.84-15.62,6.33,0,11.51,1.97,15.13,5.59,3.54,3.54,5.34,8.47,5.34,14.22v23.43c0,.66.16,1.4.9,1.32h4.36v8.88h-7.32c-4.77,0-7.32-2.71-7.32-7.89l.08-2.8h-.41ZM776.23,129.7c-1.64-2.14-4.11-3.12-7.65-3.12-5.18,0-8.3,3.04-10.03,5.59-2.14,3.12-3.04,6.74-3.04,8.96v29.02h-11.35v-52.05h10.44v9.87h.49c1.48-3.21,3.7-5.92,6.5-7.89,3.04-2.22,6.74-3.37,10.69-3.37,5.67,0,10.11,1.89,13.07,5.59,2.96,3.62,4.44,8.72,4.44,15.21v32.72h-11.26v-31.24c0-4.28-.74-7.24-2.3-9.29ZM736.84,144.09c0,15.05-12.25,27.38-27.38,27.38s-27.38-12.25-27.38-27.38,12.25-27.38,27.38-27.38,27.38,12.25,27.38,27.38ZM658.48,140.47c3.78.9,8.55,2.38,12.09,4.85,3.78,2.63,5.67,6.17,5.59,10.61,0,4.69-2.22,8.63-6.33,11.43-3.78,2.55-8.88,3.95-14.55,3.95-5.26,0-10.2-1.23-14.31-3.62-4.03-2.38-7.24-5.84-9.13-9.95l-.16-.41,8.14-4.44.25.41c3.12,5.43,8.96,8.8,15.29,8.8,4.77,0,9.62-1.81,9.62-5.84,0-2.06-1.07-3.45-3.29-4.6-2.14-1.07-5.1-1.73-8.22-2.38-.41-.08-.74-.16-1.15-.25-5.1-1.32-8.88-3.12-11.59-5.51-3.12-2.8-4.77-6.5-4.77-10.94s2.14-8.88,5.92-11.84c3.45-2.71,8.14-4.28,12.83-4.28,5.1,0,9.62,1.23,13.32,3.78,3.62,2.55,6.41,6.17,8.3,10.77l.16.41-8.8,3.29-.16-.41c-2.14-5.67-6.91-8.96-13.07-8.96-5.18,0-8.22,3.37-8.39,6.58,0,5.1,6.58,6.91,12.42,8.55ZM629.21,118.03v12.25h-7.24c-6.41,0-9.21,2.96-9.21,9.78v30.09h-11.26v-52.05h9.46l.66,9.37h.33c1.89-6.33,6.41-9.46,13.65-9.46h3.62ZM571,161.11c5.51,0,10.69-2.3,14.22-6.41l.33-.41,6.5,6.58-.25.33c-2.63,3.29-5.92,5.84-9.78,7.65-3.78,1.73-7.98,2.63-12.17,2.63-7.98,0-14.8-2.63-19.65-7.73-4.77-4.93-7.24-11.76-7.24-19.57s2.63-14.55,7.48-19.65c4.85-5.02,11.35-7.81,18.34-7.81s13.24,2.55,17.68,7.4c4.11,4.6,6.33,10.77,6.33,17.43,0,1.89,0,3.21-.08,6.82v.41h-37.74c1.23,8.3,6.5,12.33,16.03,12.33ZM485.57,117.94h9.21l.25,9.87h.41c3.54-7.48,9.37-11.26,17.27-11.26,6.58,0,12.58,2.8,16.77,7.65,4.19,4.93,6.58,12,6.58,19.73s-2.3,14.88-6.58,19.9c-4.19,4.93-9.95,7.65-16.28,7.65-4.11,0-7.73-1.15-10.69-3.45-2.3-1.81-4.19-4.36-5.59-7.48h-.33v28.12h-11.02v-70.71ZM62.53,165.05v-44.1c0-32.46,26.41-58.87,58.87-58.87h363.41c-24.85,8.03-42.82,31.34-42.82,58.87v44.1c0,27.52,17.98,50.83,42.82,58.87H121.4c-32.46,0-58.87-26.41-58.87-58.87Z" fill="#fff"/>
  <circle cx="709.46" cy="144.09" r="16.53" fill="#fff"/>
  <path d="M510.73,161.03c8.3,0,13.9-6.74,13.98-16.77,0-5.02-1.32-9.29-3.78-12.42-2.47-3.12-5.92-4.77-9.87-4.77-4.28,0-7.89,1.73-10.44,5.02-2.47,3.12-3.78,7.4-3.78,12.09s1.32,8.8,3.62,11.84c2.47,3.29,6.08,5.02,10.28,5.02Z" fill="#fff"/>
  <path d="M813.64,150.75c-2.63,1.15-3.95,2.8-3.95,5.02,0,1.64.74,3.04,2.3,4.03,1.48.99,3.54,1.48,5.76,1.48,2.38,0,5.76-1.4,8.47-3.54,3.04-2.38,4.93-5.43,5.43-8.55h-8.3c-3.95,0-7.32.49-9.7,1.56Z" fill="#fff"/>
  <path d="M568.94,127.56c-8.3,0-12.99,4.03-14.14,12.33h26.72c-.41-7.4-5.43-12.33-12.58-12.33Z" fill="#fff"/>
  <path d="M131.4,107.7h-10.44l-.72,12.41h-8.58v9h8.58l.1,34.23c0,8.17,3.21,12.1,9.41,12.1h15.41v-10.03h-11.48c-1.65,0-2.17-.62-2.17-2.69v-33.61h13.65v-9h-13.75v-12.41Z" fill="#fff"/>
  <rect x="154.66" y="120" width="11.17" height="55.43" fill="#fff"/>
  <path d="M160.25,97.46c-4.14,0-7.45,3.1-7.45,7.03,0,4.14,3.41,7.24,7.55,7.24s7.34-3.1,7.34-7.24-3.41-7.03-7.45-7.03Z" fill="#fff"/>
  <path d="M202.95,118.56c-15.61,0-26.78,12.41-26.78,29.26,0,19.34,13.75,29.16,27.82,29.16,8.48,0,17.17-3.72,22.85-11.06l-6.2-6.51c-4.65,5.27-10.75,7.86-16.55,7.86-7.86,0-15.2-4.96-16.86-14.89h40.43c.1-3.93.1-5.38.1-7.34,0-14.06-9.2-26.47-24.82-26.47ZM187.23,143.68c1.45-10.55,8.27-15.41,15.1-15.41,7.24,0,14.37,5.58,14.58,15.41h-29.68Z" fill="#fff"/>
  <path d="M268.2,118.56c-8.79,0-16.86,5.38-18.82,12.2h-.72v-10.65h-10.34v55.32h11.27v-27.82c0-12.1,6.2-19.34,14.58-19.34,7.03,0,11.27,4.86,11.27,15.92v31.23h11.27v-34.85c0-13.65-6.31-22.03-18.51-22.03Z" fill="#fff"/>
  <path d="M339.55,130.45h-.72c-2.48-6.31-8.38-11.89-17.48-11.89-14.37,0-24.61,12.2-24.61,29.16s10.65,29.26,25.02,29.26c9.41,0,15.61-5.38,18.72-12.2h.62v10.65h9.41v-76.01h-10.96v31.02ZM323.62,166.54c-9.41,0-15.41-7.75-15.41-18.92s6.52-18.61,15.51-18.61c10.03,0,15.51,8.58,15.51,18.61s-5.89,18.92-15.61,18.92Z" fill="#fff"/>
  <path d="M406.66,164.57v-25.13c0-13.24-8.48-20.89-21.3-20.89-11.48,0-20.06,6.41-23.68,17.37l9.31,3.93c3.31-8.07,7.24-11.58,14.37-11.58,5.79,0,10.75,4.34,10.75,12.41v3.41h-13.03c-12,0-22.85,6-22.85,17.27,0,9.51,7.65,15.41,17.37,15.41s16.75-5.58,20.06-12.93h.93l-.1,3.52c0,5.27,2.48,8.07,7.45,8.07h6.41v-8.89h-4.24c-.93,0-1.45-.72-1.45-1.96ZM379.77,167.05c-4.34,0-8.79-2.28-8.79-6.62,0-5.48,7.03-8.17,15.92-8.17h9.2c-.83,7.24-8.48,14.79-16.34,14.79Z" fill="#fff"/>
</svg>