<?xml version="1.0" encoding="UTF-8"?>
<svg id="a" data-name="Layer 1" xmlns="http://www.w3.org/2000/svg" viewBox="0 0 561.89 148.68">
  <g>
    <path d="M46.06,27.99h-6.54l-.41,7.2h-4.94v5.76h4.89l.05,19.55c0,4.84,1.9,7.26,5.71,7.26h7.77v-6.38h-5.51c-.77,0-.98-.15-.98-1.29v-19.19h6.48v-5.76h-6.54v-7.15Z" fill="#fff"/>
    <path d="M71.32,34.27c-4.37,0-8.44,1.75-11.42,4.89-3.04,3.19-4.68,7.56-4.68,12.3s1.54,9.16,4.48,12.25c3.04,3.19,7.26,4.84,12.25,4.84,2.62,0,5.25-.57,7.56-1.65,2.42-1.13,4.48-2.73,6.07-4.79l.15-.21-4.07-4.12-.21.26c-2.21,2.57-5.45,4.01-8.9,4.01-5.92,0-9.21-2.52-9.98-7.72h23.52v-.26c.05-2.26.05-3.09.05-4.27,0-4.17-1.39-8.03-3.96-10.91-2.62-3.04-6.38-4.63-10.86-4.63ZM62.63,48.78c.72-5.2,3.6-7.72,8.85-7.72,4.48,0,7.62,3.09,7.82,7.72h-16.67Z" fill="#fff"/>
    <path d="M122.58,34.27c-4.37,0-8.44,1.75-11.42,4.89-3.04,3.19-4.68,7.56-4.68,12.3s1.54,9.16,4.48,12.25c3.04,3.19,7.26,4.84,12.25,4.84,2.62,0,5.25-.57,7.56-1.65,2.42-1.13,4.48-2.73,6.07-4.79l.15-.21-4.07-4.12-.21.26c-2.21,2.57-5.45,4.01-8.9,4.01-5.92,0-9.21-2.52-9.98-7.72h23.52v-.26c.05-2.26.05-3.09.05-4.27,0-4.17-1.39-8.03-3.96-10.91-2.62-3.04-6.43-4.63-10.86-4.63ZM113.83,48.78c.72-5.2,3.6-7.72,8.85-7.72,4.48,0,7.62,3.09,7.82,7.72h-16.67Z" fill="#fff"/>
    <path d="M98.7,61.13c-.1-.15-.21-.51-.21-1.08V23.26h-7.05v37.21c0,2.42.51,4.22,1.44,5.45.98,1.24,2.42,1.85,4.32,1.85h6.79v-6.38h-4.58c-.51,0-.67-.15-.72-.26Z" fill="#fff"/>
    <path d="M260.9,37.77c-1.9-2.32-4.68-3.5-8.13-3.5-2.68,0-4.99.77-6.84,2.26-1.6,1.29-2.93,3.14-3.96,5.56h-.31c-1.39-5.04-4.89-7.82-9.88-7.82s-8.54,2.52-10.45,7.05h-.26l-.46-6.18h-6.02v32.57h7.05v-18.17c0-1.54.46-3.91,1.7-5.87.98-1.54,2.88-3.4,6.23-3.4,4.01,0,6.02,2.62,6.02,7.87v19.55h7.05v-18.17c0-2.06.67-4.32,1.8-5.97,1.03-1.49,2.93-3.29,6.18-3.29,1.9,0,3.4.62,4.37,1.85,1.08,1.29,1.6,3.34,1.6,6.02v19.55h7.05v-20.43c.1-4.01-.87-7.26-2.73-9.52Z" fill="#fff"/>
    <path d="M157.52,41.27h.21c1.13.05,6.54.46,8.75,5.66l5.81-2.57s-2.73-10.09-15.03-10.09c-4.32,0-8.28,1.75-11.12,4.94-2.88,3.19-4.48,7.56-4.48,12.4,0,9.83,6.59,16.98,15.7,16.98,3.14,0,5.97-.67,8.44-2.06,2.57-1.44,4.68-3.55,6.23-6.28l.1-.21-4.89-3.24-.15.26c-2.06,3.19-5.4,5.04-9.11,5.04-2.57,0-4.94-1.03-6.59-2.93-1.65-1.9-2.57-4.63-2.57-7.62,0-3.14.93-5.76,2.68-7.62,1.65-1.75,3.76-2.68,6.02-2.68Z" fill="#fff"/>
    <path d="M192.72,41.06c3.91,0,7.36,2.21,9.11,5.45h7.26c-2.11-7.1-8.65-12.25-16.36-12.25s-14.25,5.2-16.36,12.25h7.31c1.7-3.24,5.15-5.45,9.06-5.45Z" fill="#fff"/>
    <path d="M202.96,49.86c.05.51.1,1.03.1,1.54,0,5.71-4.63,10.34-10.34,10.34s-10.34-4.63-10.34-10.34c0-.51.05-1.03.1-1.54h-6.79c-.05.51-.05,1.03-.05,1.54,0,9.47,7.67,17.14,17.08,17.14s17.08-7.72,17.08-17.14c0-.51,0-1.03-.05-1.54h-6.79Z" fill="#fff"/>
  </g>
  <g>
    <path d="M42.06,92.26l-7.89.06v-1.56h17.41v1.56l-7.89-.06v20.56h-1.62v-20.56Z" fill="#fff"/>
    <path d="M50.05,104.83c0-4.95,3.15-8.52,7.41-8.52s6.72,3.42,6.72,7.74v1.2h-12.49c.18,4.44,2.91,6.51,5.7,6.51,2.1,0,4.23-1.14,5.37-3.3l1.29.72c-1.44,2.7-4.11,4.11-6.72,4.11-3.69,0-7.29-2.76-7.29-8.46ZM62.53,103.78c-.09-3.72-2.16-5.97-5.13-5.97-2.67,0-5.28,1.95-5.64,5.97h10.78Z" fill="#fff"/>
    <path d="M66.67,104.83c0-4.95,3.09-8.52,7.26-8.52,3.12,0,5.16,1.8,6.09,4.38l-1.5.51c-.84-2.34-2.55-3.39-4.65-3.39-2.79,0-5.55,2.28-5.55,7.02,0,3.93,2.31,6.9,5.7,6.9,2.28,0,4.29-1.23,5.37-3.27l1.29.72c-1.41,2.64-3.84,4.05-6.72,4.05-4.41,0-7.29-3.6-7.29-8.4Z" fill="#fff"/>
    <path d="M83.81,96.76h1.38v3.57h.15c.84-2.16,3.12-4.02,5.85-4.02,3.6,0,5.46,2.37,5.46,6.48v10.02h-1.62v-10c0-3.6-1.5-4.95-4.11-4.95-3.57,0-5.49,4.17-5.49,5.88v9.06h-1.62v-16.06Z" fill="#fff"/>
    <path d="M100.08,104.77c0-4.89,2.97-8.46,7.44-8.46s7.26,3.66,7.26,8.43-2.97,8.49-7.38,8.49-7.32-3.6-7.32-8.46ZM107.43,111.74c3.51,0,5.7-3.03,5.7-6.96s-2.01-6.96-5.64-6.96-5.76,3.06-5.76,6.96,2.07,6.96,5.7,6.96Z" fill="#fff"/>
    <path d="M118.38,109.88v-19.09h1.62v19.66c0,.6.09.78.57.78h2.82v1.59h-2.82c-1.35,0-2.19-1.02-2.19-2.94Z" fill="#fff"/>
    <path d="M125.5,104.77c0-4.89,2.97-8.46,7.44-8.46s7.26,3.66,7.26,8.43-2.97,8.49-7.38,8.49-7.32-3.6-7.32-8.46ZM132.85,111.74c3.51,0,5.7-3.03,5.7-6.96s-2.01-6.96-5.64-6.96-5.76,3.06-5.76,6.96,2.07,6.96,5.7,6.96Z" fill="#fff"/>
    <path d="M147.74,107.26v2.82c.51-.06,1.02-.09,1.44-.09,2.73,0,7.53.99,7.53,4.44,0,2.97-3.12,4.38-7.56,4.38s-7.44-1.41-7.44-4.38c0-2.43,2.34-3.63,4.68-4.14v-3.33c-2.37-.78-3.72-2.67-3.72-4.89,0-3.24,2.79-5.52,6.51-5.52h7.44v1.5h-3.81v.27c1.11.69,2.34,1.89,2.34,4.02,0,2.7-2.58,4.98-6.3,4.98-.39,0-.75-.03-1.11-.06ZM149.15,117.32c3.48,0,5.91-1.02,5.91-2.91,0-1.77-2.52-2.91-5.88-2.91s-5.82,1.14-5.82,2.91c0,1.89,2.43,2.91,5.79,2.91ZM148.94,105.88c2.76,0,4.56-1.65,4.56-3.75s-1.65-4.08-4.5-4.08c-3.06,0-4.68,1.95-4.68,4.02s1.68,3.81,4.62,3.81Z" fill="#fff"/>
    <path d="M159.65,96.76h1.62v16.06h-1.62v-16.06ZM163.04,90.31h1.95v.3l-3.6,3.69h-1.65l3.3-3.99Z" fill="#fff"/>
    <path d="M164.78,108.68c0-2.97,2.85-4.77,6.9-4.77h4.08v-2.04c0-2.37-1.47-3.99-4.08-3.99-2.13,0-4.44,1.29-5.46,3.96l-1.44-.69c1.2-3.03,3.93-4.83,6.96-4.83,3.72,0,5.64,2.49,5.64,5.55v8.94c0,.3.18.51.36.51h1.44v1.5h-1.59c-1.32,0-1.77-.81-1.77-2.25l.03-1.59h-.24c-.99,2.43-3.06,4.2-5.82,4.2s-5.01-1.53-5.01-4.5ZM170.04,111.62c2.82,0,5.37-2.58,5.73-6.36h-4.02c-2.88,0-5.31,1.17-5.31,3.42,0,2.1,1.62,2.94,3.6,2.94Z" fill="#fff"/>
    <path d="M200.29,109.19h-.15c-.75,2.13-2.61,4.05-5.67,4.05-4.05,0-7.17-3.27-7.17-8.43s2.94-8.52,7.14-8.52c3.09,0,4.92,1.92,5.73,3.99h.12v-3.54h1.5v22.06h-1.5v-9.6ZM194.53,111.74c3.75,0,5.64-3.27,5.64-6.9s-2.04-7.05-5.7-7.05c-3.39,0-5.52,2.82-5.52,7.05s2.34,6.9,5.58,6.9Z" fill="#fff"/>
    <path d="M206.41,106.78v-10.02h1.62v9.88c0,3.54,1.44,5.19,4.05,5.19,3.93,0,5.25-4.26,5.25-6v-9.06h1.62v16.06h-1.32v-3.57h-.21c-.81,2.19-2.76,4.08-5.58,4.08-3.51,0-5.43-2.4-5.43-6.54Z" fill="#fff"/>
    <path d="M222.56,104.83c0-4.95,3.15-8.52,7.41-8.52s6.72,3.42,6.72,7.74v1.2h-12.49c.18,4.44,2.91,6.51,5.7,6.51,2.1,0,4.23-1.14,5.37-3.3l1.29.72c-1.44,2.7-4.11,4.11-6.72,4.11-3.69,0-7.29-2.76-7.29-8.46ZM235.04,103.78c-.09-3.72-2.16-5.97-5.13-5.97-2.67,0-5.28,1.95-5.64,5.97h10.78Z" fill="#fff"/>
    <path d="M245.4,109.13l1.5-.75c1.14,2.25,3.21,3.39,5.55,3.39s4.05-1.02,4.05-2.79c0-1.92-2.1-2.52-4.35-3.18-2.7-.78-5.61-1.59-5.61-4.74s3.06-4.74,5.67-4.74c3.03,0,5.07,1.8,5.97,4.08l-1.5.51c-.81-2.01-2.43-3.09-4.56-3.09s-3.96,1.23-3.96,3.15c0,2.13,2.25,2.7,4.59,3.39,2.67.78,5.61,1.65,5.4,4.8-.18,2.88-3,4.11-5.82,4.11-3.3,0-5.67-1.59-6.93-4.14Z" fill="#fff"/>
    <path d="M260.58,104.83c0-4.95,3.15-8.52,7.41-8.52s6.72,3.42,6.72,7.74v1.2h-12.49c.18,4.44,2.91,6.51,5.7,6.51,2.1,0,4.23-1.14,5.37-3.3l1.29.72c-1.44,2.7-4.11,4.11-6.72,4.11-3.69,0-7.29-2.76-7.29-8.46ZM273.07,103.78c-.09-3.72-2.16-5.97-5.13-5.97-2.67,0-5.28,1.95-5.64,5.97h10.78Z" fill="#fff"/>
    <path d="M281.92,96.76h3.24l4.29,13.3h.24l4.2-13.3h3.12l-5.31,16.06h-4.5l-5.28-16.06Z" fill="#fff"/>
    <path d="M298.49,92.23c0-1.14.96-2.04,2.16-2.04s2.16.9,2.16,2.04c0,1.2-.96,2.1-2.13,2.1s-2.19-.9-2.19-2.1ZM299.03,96.73h3.24v16.09h-3.24v-16.09Z" fill="#fff"/>
    <path d="M304.28,96.76h3.24l4.29,13.3h.24l4.2-13.3h3.12l-5.31,16.06h-4.5l-5.28-16.06Z" fill="#fff"/>
    <path d="M320.07,104.8c0-4.89,3.24-8.49,7.77-8.49s7.2,3.6,7.2,7.68c0,.57,0,.99-.03,2.13h-11.74c.48,2.88,2.61,4.32,4.89,4.32,1.68,0,3.45-.75,4.8-2.28l1.8,1.89c-1.65,2.13-4.17,3.21-6.63,3.21-4.08,0-8.07-2.85-8.07-8.46ZM331.89,103.6c-.06-2.85-2.13-4.47-4.23-4.47-1.98,0-3.96,1.41-4.38,4.47h8.61Z" fill="#fff"/>
    <path d="M343.09,104.8c0-4.89,3.24-8.49,7.77-8.49s7.2,3.6,7.2,7.68c0,.57,0,.99-.03,2.13h-11.74c.48,2.88,2.61,4.32,4.89,4.32,1.68,0,3.45-.75,4.8-2.28l1.8,1.89c-1.65,2.13-4.17,3.21-6.63,3.21-4.08,0-8.07-2.85-8.07-8.46ZM354.91,103.6c-.06-2.85-2.13-4.47-4.23-4.47-1.98,0-3.96,1.41-4.38,4.47h8.61Z" fill="#fff"/>
    <path d="M361.12,96.76h3v3.09h.21c.57-1.98,2.91-3.54,5.46-3.54,3.54,0,5.37,2.43,5.37,6.39v10.11h-3.27v-9.06c0-3.21-1.23-4.62-3.27-4.62-2.43,0-4.23,2.1-4.23,5.61v8.07h-3.27v-16.06Z" fill="#fff"/>
    <path d="M386.07,109.31l-.03-9.93h-2.49v-2.61h2.49l.21-3.6h3.03v3.6h3.99v2.61h-3.96v9.75c0,.6.15.78.63.78h3.33v2.91h-4.47c-1.8,0-2.73-1.14-2.73-3.51Z" fill="#fff"/>
    <path d="M395.94,106.88v-10.12h3.27v9.6c0,2.94,1.14,4.14,3.24,4.14,3,0,4.08-2.97,4.08-5.37v-8.37h3.27v16.06h-2.85v-3.24h-.24c-.87,1.98-2.64,3.72-5.37,3.72-3.51,0-5.4-2.46-5.4-6.42Z" fill="#fff"/>
    <path d="M420.01,96.76h3v3.09h.21c.57-1.98,2.91-3.54,5.46-3.54,3.54,0,5.37,2.43,5.37,6.39v10.11h-3.27v-9.06c0-3.21-1.23-4.62-3.27-4.62-2.43,0-4.23,2.1-4.23,5.61v8.07h-3.27v-16.06Z" fill="#fff"/>
    <path d="M436.97,104.8c0-4.89,3.24-8.49,7.77-8.49s7.2,3.6,7.2,7.68c0,.57,0,.99-.03,2.13h-11.74c.48,2.88,2.61,4.32,4.89,4.32,1.68,0,3.45-.75,4.8-2.28l1.8,1.89c-1.65,2.13-4.17,3.21-6.63,3.21-4.08,0-8.07-2.85-8.07-8.46ZM448.79,103.6c-.06-2.85-2.13-4.47-4.23-4.47-1.98,0-3.96,1.41-4.38,4.47h8.61Z" fill="#fff"/>
    <path d="M460.95,107.54v2.19h.63c3.09,0,8.04.96,8.04,4.59,0,2.82-2.88,4.5-8.16,4.5-4.95,0-7.83-1.68-7.83-4.5,0-2.43,2.22-3.66,4.62-4.23v-3.03c-2.28-.84-3.66-2.64-3.66-4.89,0-3.24,2.82-5.64,6.99-5.64h7.62v2.28h-3.51v.27c1.14.6,2.31,1.68,2.31,3.66,0,2.76-2.88,4.8-6.78,4.8h-.27ZM461.52,115.91c2.94,0,4.98-.51,4.98-1.65,0-1.29-2.1-1.83-4.86-1.83s-4.89.54-4.89,1.83c0,1.14,2.04,1.65,4.77,1.65ZM461.37,104.92c2.1,0,3.48-1.2,3.48-2.64s-1.23-2.85-3.42-2.85c-2.31,0-3.6,1.41-3.6,2.82s1.32,2.67,3.54,2.67Z" fill="#fff"/>
    <path d="M470.82,104.77c0-4.95,3.21-8.46,7.83-8.46s7.65,3.63,7.65,8.43-3.18,8.49-7.77,8.49-7.71-3.54-7.71-8.46ZM478.56,110.42c2.94,0,4.62-2.52,4.62-5.64s-1.56-5.64-4.56-5.64-4.68,2.55-4.68,5.64,1.62,5.64,4.62,5.64Z" fill="#fff"/>
    <path d="M488.44,104.86c0-4.95,3.42-8.55,7.74-8.55,3.33,0,5.64,1.98,6.6,5.04l-2.67,1.14c-.87-2.19-1.95-3.36-3.99-3.36-2.25,0-4.56,1.95-4.56,5.73,0,3.18,1.98,5.55,4.86,5.55,2.07,0,3.6-1.23,4.56-2.88l2.25,1.59c-1.59,2.76-3.99,4.11-7.05,4.11-4.38,0-7.74-3.45-7.74-8.37Z" fill="#fff"/>
    <path d="M505.45,92.23c0-1.14.96-2.04,2.16-2.04s2.16.9,2.16,2.04c0,1.2-.96,2.1-2.13,2.1s-2.19-.9-2.19-2.1ZM505.99,96.73h3.24v16.09h-3.24v-16.09Z" fill="#fff"/>
    <path d="M512.24,104.77c0-4.95,3.21-8.46,7.83-8.46s7.65,3.63,7.65,8.43-3.18,8.49-7.77,8.49-7.71-3.54-7.71-8.46ZM519.98,110.42c2.94,0,4.62-2.52,4.62-5.64s-1.56-5.64-4.56-5.64-4.68,2.55-4.68,5.64,1.62,5.64,4.62,5.64Z" fill="#fff"/>
  </g>
</svg>