<?xml version="1.0" encoding="UTF-8"?>
<svg id="Layer_1" data-name="Layer 1" xmlns="http://www.w3.org/2000/svg" width="300" height="100" viewBox="0 0 300 100">
  <path d="M152.87,45.34c-3.27,0-5.22,2.83-5.22,6.24s1.81,6.17,5.11,6.17c2.97,0,5.11-2.35,5.11-6.14s-2.01-6.27-5.01-6.27Z" fill="#fff"/>
  <path d="M167.32,55.74c0,1.43,1.47,2.18,2.9,2.18,2.59,0,5.11-2.49,5.39-4.88h-3.03c-2.93,0-5.25.89-5.25,2.69Z" fill="#fff"/>
  <path d="M185.67,20.39h-71.33c-16.35,0-29.61,13.26-29.61,29.61h0c0,16.35,13.26,29.61,29.61,29.61h71.33c16.35,0,29.61-13.26,29.61-29.61h0c0-16.35-13.26-29.61-29.61-29.61ZM132.27,38.7l-18.33,18.59-8.24-8.35,3.86-3.91,4.38,4.44,14.8-15.01c1.35,1.25,2.54,2.68,3.53,4.25ZM114.33,71.2c-11.65,0-21.2-9.49-21.2-21.2s9.49-21.2,21.2-21.2c4.46,0,8.59,1.38,12.01,3.73l-6.06,6.14c-1.78-.94-3.8-1.47-5.95-1.47-7.07,0-12.8,5.73-12.8,12.8s5.73,12.8,12.8,12.8,12.8-5.73,12.8-12.8c0-.55-.04-1.09-.11-1.62l6.75-6.84c1.13,2.59,1.76,5.45,1.76,8.46,0,11.65-9.49,21.2-21.2,21.2ZM153.65,61.16c-3.14,0-5.01-1.91-5.86-3.92h-.24v10.06h-3.61v-24.89h3.1v3.51h.2c1.06-2.28,3.03-4.02,6.21-4.02,4.77,0,8.22,3.96,8.22,9.62s-3.51,9.65-8.01,9.65ZM180.96,60.68h-2.11c-1.64,0-2.46-.92-2.46-2.66l.03-1.16h-.31c-1.09,2.42-3.51,4.26-6.61,4.26s-5.73-1.94-5.73-5.08c0-3.72,3.58-5.69,7.54-5.69h4.3v-1.12c0-2.66-1.64-4.09-3.55-4.09-2.35,0-3.65,1.16-4.74,3.82l-3.07-1.3c1.19-3.61,4.02-5.73,7.81-5.73,4.23,0,7.02,2.52,7.02,6.89v8.29c0,.41.17.65.48.65h1.4v2.93ZM192.15,62.73c-1.02,3.1-2.05,4.47-4.6,4.47h-4.16v-3h3.44c1.23,0,1.7-.65,2.28-2.22l.48-1.3h-1.94l-6-18.24h3.65l4.91,15.21h.27l4.77-15.21h3.55l-6.65,20.29Z" fill="#fff"/>
</svg>