<?xml version="1.0" encoding="UTF-8"?>
<svg id="Layer_1" data-name="Layer 1" xmlns="http://www.w3.org/2000/svg" width="300" height="70" viewBox="0 0 300 70">
  <polygon points="47.06 36.15 50.69 39.78 54.77 35.7 58.85 39.78 62.48 36.15 54.77 28.44 47.06 36.15" fill="#fff"/>
  <path d="M156.57,30.78h-.24v-3.34h-3.31v18.24h3.72v-10.57c0-2.35.89-3.65,3.44-3.65h2.42v-4.06h-1.16c-2.11,0-4.13.72-4.88,3.38Z" fill="#fff"/>
  <path d="M148.11,42.1v-8.29c0-4.36-2.8-6.89-7.02-6.89-3.78,0-6.61,2.11-7.81,5.73l3.07,1.3c1.09-2.66,2.39-3.82,4.74-3.82,1.91,0,3.55,1.43,3.55,4.09v1.12h-4.3c-3.96,0-7.54,1.98-7.54,5.69,0,3.14,2.52,5.08,5.73,5.08s5.52-1.84,6.61-4.26h.31l-.03,1.16c0,1.74.82,2.66,2.45,2.66h2.11v-2.93h-1.4c-.31,0-.48-.24-.48-.65ZM139.24,42.92c-1.43,0-2.9-.75-2.9-2.18,0-1.81,2.32-2.69,5.25-2.69h3.03c-.27,2.39-2.8,4.88-5.39,4.88Z" fill="#fff"/>
  <path d="M123.52,26.93c-3.17,0-5.32,1.88-6.24,4.47h-.24c-.68-2.66-2.49-4.47-5.52-4.47s-5.29,1.77-6.04,4.02h-.24v-3.51h-3.41v18.24h3.72v-9.51c0-2.59,1.43-6.1,4.54-6.1,2.32,0,3.78,1.4,3.78,4.64v10.98h3.72v-9.82c0-2.45,1.53-5.8,4.77-5.8,2.63,0,3.55,1.98,3.55,4.64v10.98h3.72v-11.49c0-4.5-2.18-7.26-6.1-7.26Z" fill="#fff"/>
  <path d="M91.98,35.32c-2.45-.82-4.4-1.4-4.4-3.03,0-1.19,1.02-2.11,2.83-2.11,1.6,0,3.58.92,4.5,2.86l2.86-1.47c-1.06-2.59-3.72-4.64-7.36-4.64-3.21,0-6.34,2.28-6.34,5.35,0,3.96,3.68,5.05,6.44,5.93,2.18.72,4.06,1.43,4.06,2.69,0,1.16-1.23,2.05-3.44,2.05-2.08,0-4.19-.89-5.49-3.17l-2.63,1.74c1.53,3.27,4.84,4.57,7.98,4.6,3.61.03,6.96-1.81,6.96-5.11,0-3.75-3.58-4.91-5.97-5.69Z" fill="#fff"/>
  <path d="M54.77,13.8c-11.72,0-21.2,9.55-21.2,21.2s9.55,21.2,21.2,21.2,21.2-9.55,21.2-21.2-9.49-21.2-21.2-21.2ZM54.77,47.8c-7.07,0-12.8-5.73-12.8-12.8s5.73-12.8,12.8-12.8,12.8,5.73,12.8,12.8-5.73,12.8-12.8,12.8Z" fill="#fff"/>
  <path d="M206.15,26.93c-5.25,0-8.9,3.99-8.9,9.62s3.55,9.62,8.76,9.62,8.83-4.23,8.83-9.65-3.44-9.58-8.69-9.58ZM206.04,42.95c-3.41,0-5.25-2.9-5.25-6.41s1.88-6.41,5.32-6.41,5.18,2.9,5.18,6.41-1.91,6.41-5.25,6.41Z" fill="#fff"/>
  <path d="M169.56,23.35h-3.44l-.24,4.09h-2.83v2.97h2.83l.03,11.29c0,2.69,1.06,3.99,3.1,3.99h5.08v-3.31h-3.78c-.55,0-.72-.2-.72-.89v-11.08h4.5v-2.97h-4.54v-4.09Z" fill="#fff"/>
  <path d="M266.43,35.66c0-4.64-3.03-8.73-8.18-8.73s-8.83,4.09-8.83,9.65c0,6.38,4.53,9.62,9.17,9.62,2.8,0,5.66-1.23,7.54-3.65l-2.05-2.15c-1.53,1.74-3.55,2.59-5.46,2.59-2.59,0-5.01-1.64-5.56-4.91h13.33c.03-1.3.03-1.77.03-2.42ZM253.07,35.21c.48-3.48,2.73-5.08,4.98-5.08,2.39,0,4.74,1.84,4.81,5.08h-9.79Z" fill="#fff"/>
  <path d="M240.01,26.93c-3.17,0-5.32,1.88-6.24,4.47h-.24c-.68-2.66-2.49-4.47-5.52-4.47s-5.28,1.77-6.04,4.02h-.24v-3.51h-3.41v18.24h3.72v-9.51c0-2.59,1.43-6.1,4.53-6.1,2.32,0,3.78,1.4,3.78,4.64v10.98h3.72v-9.82c0-2.45,1.53-5.8,4.77-5.8,2.63,0,3.55,1.98,3.55,4.64v10.98h3.72v-11.49c0-4.5-2.18-7.26-6.1-7.26Z" fill="#fff"/>
  <path d="M187.83,26.89c-3.17,0-5.05,1.77-6.14,4.02h-.24v-10.3h-3.48v25.06h3.72v-9.41c0-2.69,1.5-6.21,4.88-6.21,2.05,0,3.65,1.26,3.65,4.74v10.88h3.72v-11.52c0-4.26-1.94-7.26-6.1-7.26Z" fill="#fff"/>
</svg>