<?xml version="1.0" encoding="UTF-8"?>
<svg id="Layer_1" data-name="Layer 1" xmlns="http://www.w3.org/2000/svg" width="300" height="100" viewBox="0 0 300 100">
  <path d="M164.86,45.37c-3.34,0-5.35,2.83-5.35,6.17s1.88,6.21,5.32,6.21c2.8,0,4.91-2.42,4.91-6.31s-1.94-6.07-4.88-6.07Z" fill="#fff"/>
  <path d="M191.45,55.74c0,1.43,1.47,2.18,2.9,2.18,2.59,0,5.11-2.49,5.39-4.88h-3.03c-2.93,0-5.25.89-5.25,2.69Z" fill="#fff"/>
  <path d="M192.29,20.39h-84.57c-16.35,0-29.61,13.26-29.61,29.61h0c0,16.35,13.26,29.61,29.61,29.61h84.57c16.35,0,29.61-13.26,29.61-29.61h0c0-16.35-13.26-29.61-29.61-29.61ZM107.71,28.8c5.83,0,11.1,2.35,14.93,6.15h0s0,0,0,0l-5.75,6.14c-2.33-2.39-5.58-3.88-9.18-3.88s-6.85,1.49-9.18,3.88l-5.74-6.12s0,0,0,0h0c3.83-3.81,9.1-6.17,14.92-6.17ZM115.01,43.1l-2.73,2.91s0,0,0,0l-.38.41c-1.01-1.18-2.51-1.93-4.18-1.93s-3.17.75-4.18,1.93l-.38-.41s0,0,0,0l-2.73-2.91h0s0,0,0,0c1.83-1.94,4.42-3.15,7.29-3.15s5.46,1.21,7.3,3.15h0s0,0,0,0ZM109.98,50c0,.16-.02.31-.05.45-.21,1.03-1.12,1.81-2.22,1.81s-2.01-.78-2.22-1.81c-.03-.15-.05-.3-.05-.46,0-1.24,1.01-2.26,2.26-2.26s2.26,1.01,2.26,2.26ZM107.83,71.2s-.08,0-.12,0c-11.65,0-21.2-9.49-21.2-21.2,0-3.52.87-6.85,2.4-9.78l6.36,6.78s0,0,0,0h0c-.23.97-.36,1.97-.36,3,0,2.87.95,5.52,2.54,7.65,2.33,3.12,6.06,5.14,10.25,5.14s7.92-2.02,10.25-5.14c1.6-2.13,2.54-4.78,2.54-7.65,0-1.03-.13-2.04-.36-3h0s0,0,0,0l6.37-6.79c1.53,2.93,2.39,6.26,2.39,9.79,0,11.61-9.42,21.13-21.08,21.2ZM145.86,38.59h-4.02c-.55,0-.85.31-.85.95v2.9h3.99v3h-3.99v15.24h-3.68v-15.24h-2.18v-3h2.18v-2.9c0-2.52,1.6-3.92,4.06-3.92h4.5v2.97ZM151.15,60.68h-3.68v-18.28h3.68v18.28ZM149.34,39.68c-1.36,0-2.49-1.02-2.49-2.39s1.09-2.32,2.45-2.32,2.46,1.02,2.46,2.32c0,1.36-1.09,2.39-2.42,2.39ZM165.4,61.19c-3.14,0-5.35-1.67-6.31-4.02h-.2v3.51h-3.1v-25.06h3.61v10.23h.2c1.09-2.08,3.03-3.92,6.31-3.92,4.53,0,7.6,4.09,7.6,9.41,0,6.1-3.75,9.85-8.12,9.85ZM186.58,46.46h-2.42c-2.56,0-3.44,1.3-3.44,3.65v10.57h-3.72v-18.24h3.31v3.34h.24c.75-2.66,2.76-3.38,4.88-3.38h1.16v4.06ZM205.09,60.68h-2.11c-1.64,0-2.46-.92-2.46-2.66l.03-1.16h-.31c-1.09,2.42-3.51,4.26-6.61,4.26s-5.73-1.94-5.73-5.08c0-3.72,3.58-5.69,7.54-5.69h4.3v-1.12c0-2.66-1.64-4.09-3.55-4.09-2.35,0-3.65,1.16-4.74,3.82l-3.07-1.3c1.19-3.61,4.02-5.73,7.81-5.73,4.23,0,7.02,2.52,7.02,6.89v8.29c0,.41.17.65.48.65h1.4v2.93Z" fill="#fff"/>
</svg>