<?xml version="1.0" encoding="UTF-8"?>
<svg id="Layer_1" data-name="Layer 1" xmlns="http://www.w3.org/2000/svg" width="300" height="150" viewBox="0 0 300 150">
  <path d="M102.94,63.49c-2.94,0-5.67,1.18-7.71,3.28-2.04,2.14-3.15,5.08-3.15,8.26s1.04,6.15,3.04,8.23c2.04,2.14,4.91,3.25,8.26,3.25,1.76,0,3.53-.38,5.12-1.11,1.62-.76,3.01-1.83,4.11-3.21l.1-.14-2.73-2.77-.14.17c-1.49,1.73-3.66,2.7-5.98,2.7-4.01,0-6.22-1.69-6.74-5.18h15.86v-.17c.03-1.52.03-2.07.03-2.87,0-2.8-.93-5.39-2.66-7.33-1.87-2.04-4.42-3.11-7.43-3.11ZM97.07,73.24c.48-3.49,2.45-5.18,5.94-5.18,3.01,0,5.12,2.07,5.29,5.18h-11.23Z" fill="#fff"/>
  <path d="M162.08,63.49c-6.36,0-11.51,5.18-11.51,11.51s5.18,11.51,11.51,11.51,11.51-5.18,11.51-11.51-5.15-11.51-11.51-11.51ZM162.08,81.95c-3.84,0-6.95-3.11-6.95-6.95s3.11-6.95,6.95-6.95,6.95,3.11,6.95,6.95-3.11,6.95-6.95,6.95Z" fill="#fff"/>
  <path d="M79.37,63.42c-3.32,0-5.77,1.59-7.26,4.74h-.17l-.1-4.15h-3.87v29.72h4.63v-11.82h.14c.59,1.31,1.38,2.38,2.35,3.15,1.24.97,2.77,1.45,4.49,1.45,2.66,0,5.08-1.14,6.84-3.21,1.8-2.11,2.77-5.08,2.77-8.36s-1-6.22-2.77-8.3c-1.76-2.04-4.29-3.21-7.05-3.21ZM78.54,82.12c-1.76,0-3.28-.73-4.32-2.11-.97-1.28-1.52-3.04-1.52-4.98s.55-3.77,1.59-5.08c1.07-1.38,2.59-2.11,4.39-2.11,1.66,0,3.11.69,4.15,2,1.04,1.31,1.59,3.11,1.59,5.22-.03,4.22-2.38,7.05-5.88,7.05Z" fill="#fff"/>
  <path d="M121.09,68.02h-.14l-.28-3.94h-3.97v21.88h4.74v-12.65c0-2.87,1.18-4.11,3.87-4.11h3.04v-5.15h-1.52c-3.04,0-4.94,1.31-5.74,3.97Z" fill="#fff"/>
  <path d="M138.96,67.12c2.59,0,4.6,1.38,5.5,3.77l.07.17,3.7-1.38-.07-.17c-.79-1.94-1.97-3.46-3.49-4.53-1.56-1.07-3.46-1.59-5.6-1.59-1.97,0-3.94.66-5.39,1.8-1.59,1.24-2.49,3.04-2.49,4.98s.69,3.42,2,4.6c1.14,1,2.73,1.76,4.87,2.32.17.03.31.07.48.1,1.31.28,2.56.55,3.46,1,.93.48,1.38,1.07,1.38,1.94,0,1.69-2.04,2.45-4.04,2.45-2.66,0-5.12-1.42-6.43-3.7l-.1-.17-3.42,1.87.07.17c.79,1.73,2.14,3.18,3.84,4.18,1.73,1,3.8,1.52,6.01,1.52,2.38,0,4.53-.59,6.12-1.66,1.73-1.18,2.66-2.83,2.66-4.8.03-1.87-.76-3.35-2.35-4.46-1.49-1.04-3.49-1.66-5.08-2.04-2.45-.69-5.22-1.45-5.22-3.59.07-1.35,1.35-2.77,3.53-2.77Z" fill="#fff"/>
  <path d="M190.15,68.95c.66.86.97,2.11.97,3.91v13.13h4.74v-13.76c0-2.73-.62-4.87-1.87-6.39-1.24-1.56-3.11-2.35-5.5-2.35-1.66,0-3.21.48-4.49,1.42-1.18.83-2.11,1.97-2.73,3.32h-.21v-4.15h-4.39v21.88h4.77v-12.2c0-.93.38-2.45,1.28-3.77.73-1.07,2.04-2.35,4.22-2.35,1.49,0,2.52.41,3.21,1.31Z" fill="#fff"/>
  <path d="M218.18,81.64v-9.85c0-2.42-.76-4.49-2.25-5.98-1.52-1.52-3.7-2.35-6.36-2.35-4.74,0-8.02,2.14-10.02,6.57l-.07.17,4.11,1.94.07-.17c1.14-2.42,3.35-4.08,5.5-4.08,2.42,0,4.25,1.62,4.25,3.77v1.56h-5.01c-5.6,0-9.06,2.7-9.06,7.02,0,1.87.69,3.49,2.04,4.6,1.24,1.07,2.97,1.66,4.91,1.66,1.76,0,3.46-.52,4.84-1.49,1.28-.86,2.28-2.11,2.97-3.56h.17l-.03,1.18c0,2.18,1.07,3.32,3.08,3.32h3.08v-3.73h-1.83c-.31.03-.38-.28-.38-.55ZM211.16,80.74c-1.14.9-2.56,1.49-3.56,1.49-.93,0-1.8-.21-2.42-.62-.66-.41-.97-1-.97-1.69,0-.93.55-1.62,1.66-2.11,1-.45,2.42-.66,4.08-.66h3.49c-.21,1.31-1,2.59-2.28,3.59Z" fill="#fff"/>
  <path d="M228.92,81.71c-.35,0-.45-.07-.48-.14-.07-.1-.14-.35-.14-.73v-24.75h-4.74v24.99c0,1.62.35,2.83,1,3.66.66.83,1.62,1.24,2.9,1.24h4.56v-4.29h-3.11Z" fill="#fff"/>
  <path d="M162.08,103.1c-3.16,0-6.02,1.28-8.1,3.35h0s0,0,0,0l3.12,3.32c1.26-1.3,3.03-2.11,4.98-2.11s3.72.81,4.98,2.11l3.12-3.33s0,0,0,0h0c-2.08-2.07-4.94-3.34-8.11-3.34Z" fill="#fff"/>
  <path d="M160.85,114.61c0,.08,0,.17.03.25.11.56.61.98,1.2.98s1.09-.43,1.2-.98c.02-.08.02-.16.02-.25,0-.68-.55-1.23-1.23-1.23s-1.23.55-1.23,1.23Z" fill="#fff"/>
  <path d="M168.83,112.98s0,0,0,0h0c.13.52.19,1.07.19,1.63,0,1.56-.51,3-1.38,4.15-1.27,1.69-3.29,2.79-5.57,2.79s-4.3-1.1-5.57-2.79c-.87-1.16-1.38-2.6-1.38-4.15,0-.56.07-1.11.19-1.63h0s0,0,0,0l-3.45-3.68c-.83,1.59-1.31,3.4-1.31,5.31,0,6.36,5.18,11.51,11.51,11.51.02,0,.04,0,.07,0,6.33-.04,11.44-5.2,11.44-11.51,0-1.92-.47-3.72-1.3-5.31l-3.46,3.69Z" fill="#fff"/>
  <path d="M162.08,109.15c-1.56,0-2.96.66-3.96,1.71h0s0,0,0,0l1.48,1.58s0,0,0,0l.21.22c.55-.64,1.36-1.05,2.27-1.05s1.72.41,2.27,1.05l.21-.22s0,0,0,0l1.48-1.58s0,0,0,0h0c-.99-1.05-2.4-1.71-3.96-1.71Z" fill="#fff"/>
  <path d="M178.14,108.93v1.57h-1.18v1.63h1.18v8.27h2v-8.27h2.17v-1.63h-2.17v-1.57c0-.35.17-.52.46-.52h2.18v-1.61h-2.44c-1.33,0-2.2.76-2.2,2.13Z" fill="#fff"/>
  <rect x="183.66" y="110.48" width="2" height="9.92" fill="#fff"/>
  <path d="M184.66,106.45c-.74,0-1.33.56-1.33,1.26,0,.74.61,1.3,1.35,1.3s1.31-.56,1.31-1.3-.61-1.26-1.33-1.26Z" fill="#fff"/>
  <path d="M193.67,110.23c-1.78,0-2.83,1-3.42,2.13h-.11v-5.55h-1.96v13.6h1.68v-1.91h.11c.52,1.28,1.72,2.18,3.42,2.18,2.37,0,4.41-2.04,4.41-5.35,0-2.89-1.67-5.11-4.13-5.11ZM193.08,118.81c-1.87,0-2.89-1.54-2.89-3.37s1.09-3.35,2.91-3.35c1.59,0,2.65,1.26,2.65,3.29s-1.15,3.42-2.67,3.42Z" fill="#fff"/>
  <path d="M201.62,112.32h-.13v-1.81h-1.8v9.9h2.02v-5.74c0-1.28.48-1.98,1.87-1.98h1.31v-2.2h-.63c-1.15,0-2.24.39-2.65,1.83Z" fill="#fff"/>
  <path d="M213.92,118.46v-4.5c0-2.37-1.52-3.74-3.81-3.74-2.05,0-3.59,1.15-4.24,3.11l1.67.7c.59-1.44,1.3-2.07,2.57-2.07,1.04,0,1.93.78,1.93,2.22v.61h-2.33c-2.15,0-4.09,1.07-4.09,3.09,0,1.7,1.37,2.76,3.11,2.76s3-1,3.59-2.31h.17l-.02.63c0,.94.44,1.44,1.33,1.44h1.15v-1.59h-.76c-.17,0-.26-.13-.26-.35ZM209.11,118.91c-.78,0-1.57-.41-1.57-1.18,0-.98,1.26-1.46,2.85-1.46h1.65c-.15,1.3-1.52,2.65-2.92,2.65Z" fill="#fff"/>
</svg>