<?xml version="1.0" encoding="UTF-8"?>
<svg id="Layer_1" data-name="Layer 1" xmlns="http://www.w3.org/2000/svg" width="214.49mm" height="70.56mm" viewBox="0 0 608 200">
  <path d="M167.9,66.7c-8.5,0-16.4,3.4-22.3,9.5-5.9,6.2-9.1,14.7-9.1,23.9s3,17.8,8.8,23.8c5.9,6.2,14.2,9.4,23.9,9.4,5.1,0,10.2-1.1,14.8-3.2,4.7-2.2,8.7-5.3,11.9-9.3l.3-.4-7.9-8-.4.5c-4.3,5-10.6,7.8-17.3,7.8-11.6,0-18-4.9-19.5-15h45.9v-.5c.1-4.4.1-6,.1-8.3,0-8.1-2.7-15.6-7.7-21.2-5.4-5.9-12.8-9-21.5-9ZM150.9,94.9c1.4-10.1,7.1-15,17.2-15,8.7,0,14.8,6,15.3,15h-32.5Z"/>
  <path d="M99.7,66.5c-9.6,0-16.7,4.6-21,13.7h-.5l-.3-12h-11.2v86h13.4v-34.2h.4c1.7,3.8,4,6.9,6.8,9.1,3.6,2.8,8,4.2,13,4.2,7.7,0,14.7-3.3,19.8-9.3,5.2-6.1,8-14.7,8-24.2s-2.9-18-8-24c-5.1-5.9-12.4-9.3-20.4-9.3ZM97.3,120.6c-5.1,0-9.5-2.1-12.5-6.1-2.8-3.7-4.4-8.8-4.4-14.4s1.6-10.9,4.6-14.7c3.1-4,7.5-6.1,12.7-6.1,4.8,0,9,2,12,5.8s4.6,9,4.6,15.1c-.1,12.2-6.9,20.4-17,20.4Z"/>
  <path d="M220.4,79.8h-.4l-.8-11.4h-11.5v63.3h13.7v-36.6c0-8.3,3.4-11.9,11.2-11.9h8.8v-14.9h-4.4c-8.8,0-14.3,3.8-16.6,11.5Z"/>
  <path d="M272.1,77.2c7.5,0,13.3,4,15.9,10.9l.2.5,10.7-4-.2-.5c-2.3-5.6-5.7-10-10.1-13.1-4.5-3.1-10-4.6-16.2-4.6-5.7,0-11.4,1.9-15.6,5.2-4.6,3.6-7.2,8.8-7.2,14.4s2,9.9,5.8,13.3c3.3,2.9,7.9,5.1,14.1,6.7.5.1.9.2,1.4.3,3.8.8,7.4,1.6,10,2.9,2.7,1.4,4,3.1,4,5.6,0,4.9-5.9,7.1-11.7,7.1-7.7,0-14.8-4.1-18.6-10.7l-.3-.5-9.9,5.4.2.5c2.3,5,6.2,9.2,11.1,12.1,5,2.9,11,4.4,17.4,4.4,6.9,0,13.1-1.7,17.7-4.8,5-3.4,7.7-8.2,7.7-13.9.1-5.4-2.2-9.7-6.8-12.9-4.3-3-10.1-4.8-14.7-5.9-7.1-2-15.1-4.2-15.1-10.4.2-3.9,3.9-8,10.2-8Z"/>
  <path d="M415.4,66.7c-4.8,0-9.3,1.4-13,4.1-3.4,2.4-6.1,5.7-7.9,9.6h-.6v-12h-12.7v63.3h13.8v-35.3c0-2.7,1.1-7.1,3.7-10.9,2.1-3.1,5.9-6.8,12.2-6.8,4.3,0,7.3,1.2,9.3,3.8,1.9,2.5,2.8,6.1,2.8,11.3v38h13.7v-39.8c0-7.9-1.8-14.1-5.4-18.5-3.6-4.5-9-6.8-15.9-6.8Z"/>
  <path d="M501.3,119.2v-28.5c0-7-2.2-13-6.5-17.3-4.4-4.4-10.7-6.8-18.4-6.8-13.7,0-23.2,6.2-29,19l-.2.5,11.9,5.6.2-.5c3.3-7,9.7-11.8,15.9-11.8,7,0,12.3,4.7,12.3,10.9v4.5h-14.5c-16.2,0-26.2,7.8-26.2,20.3,0,5.4,2,10.1,5.9,13.3,3.6,3.1,8.6,4.8,14.2,4.8,5.1,0,10-1.5,14-4.3,3.7-2.5,6.6-6.1,8.6-10.3h.5l-.1,3.4c0,6.3,3.1,9.6,8.9,9.6h8.9v-10.8h-5.3c-.9.1-1.1-.8-1.1-1.6ZM481,116.6c-3.3,2.6-7.4,4.3-10.3,4.3-2.7,0-5.2-.6-7-1.8-1.9-1.2-2.8-2.9-2.8-4.9,0-2.7,1.6-4.7,4.8-6.1,2.9-1.3,7-1.9,11.8-1.9h10.1c-.6,3.8-2.9,7.5-6.6,10.4Z"/>
  <path d="M532.4,119.4c-1,0-1.3-.2-1.4-.4-.2-.3-.4-1-.4-2.1V45.3h-13.7v72.3c0,4.7,1,8.2,2.9,10.6s4.7,3.6,8.4,3.6h13.2v-12.4h-9Z"/>
  <g>
    <path d="M315.57,76.39l9.02,9.62c3.65-3.76,8.76-6.1,14.41-6.1s10.76,2.34,14.41,6.1l9.04-9.64s0,0,0,0h0c-6.02-5.98-14.3-9.67-23.45-9.67s-17.42,3.71-23.44,9.68h0s0,.01,0,.01Z"/>
    <path d="M335.45,100c0,.25.03.49.07.72.33,1.62,1.77,2.85,3.48,2.85s3.15-1.23,3.48-2.85c.05-.23.07-.47.07-.71,0-1.96-1.59-3.56-3.56-3.56s-3.56,1.6-3.56,3.56Z"/>
    <path d="M372.3,100c0-5.55-1.36-10.78-3.76-15.38l-10,10.67s0,0,0,0h0c.36,1.52.56,3.09.56,4.72,0,4.51-1.48,8.67-3.99,12.02-3.67,4.9-9.51,8.07-16.1,8.07s-12.44-3.17-16.1-8.07c-2.51-3.35-3.99-7.51-3.99-12.02,0-1.62.2-3.2.56-4.71h0s0,0,0,0l-9.98-10.65c-2.41,4.61-3.78,9.83-3.78,15.36,0,18.4,15,33.3,33.3,33.3h0c.06,0,.13,0,.19,0,18.31-.1,33.11-15.06,33.11-33.3Z"/>
    <path d="M339,84.21c-4.51,0-8.57,1.91-11.45,4.95h0s0,0,0,.01l4.28,4.57s0,0,0,0l.6.64c1.59-1.85,3.94-3.03,6.57-3.03s4.98,1.18,6.57,3.03l.6-.64s0,0,0,0l4.29-4.58s0,0,0,0h0c-2.88-3.05-6.94-4.95-11.46-4.95Z"/>
  </g>
</svg>