<?xml version="1.0" encoding="UTF-8"?>
<svg id="Layer_1" data-name="Layer 1" xmlns="http://www.w3.org/2000/svg" viewBox="0 0 579 200">
  <path d="M89.6,54.5h-12.7l-.8,14h-9.6v11.2h9.5l.1,38c0,9.4,3.7,14.1,11.1,14.1h15.1v-12.4h-10.7c-1.5,0-1.9-.3-1.9-2.5v-37.3h12.6v-11.2h-12.7v-13.9Z" fill="#190646"/>
  <path d="M138.7,66.7c-8.5,0-16.4,3.4-22.2,9.5-5.9,6.2-9.1,14.7-9.1,23.9s3,17.8,8.7,23.8c5.9,6.2,14.1,9.4,23.8,9.4,5.1,0,10.2-1.1,14.7-3.2,4.7-2.2,8.7-5.3,11.8-9.3l.3-.4-7.9-8-.4.5c-4.3,5-10.6,7.8-17.3,7.8-11.5,0-17.9-4.9-19.4-15h45.7v-.5c.1-4.4.1-6,.1-8.3,0-8.1-2.7-15.6-7.7-21.2-5.1-5.9-12.4-9-21.1-9ZM121.8,94.9c1.4-10.1,7-15,17.2-15,8.7,0,14.8,6,15.2,15h-32.4Z" fill="#190646"/>
  <path d="M238.3,66.7c-8.5,0-16.4,3.4-22.2,9.5-5.9,6.2-9.1,14.7-9.1,23.9s3,17.8,8.7,23.8c5.9,6.2,14.1,9.4,23.8,9.4,5.1,0,10.2-1.1,14.7-3.2,4.7-2.2,8.7-5.3,11.8-9.3l.3-.4-7.9-8-.4.5c-4.3,5-10.6,7.8-17.3,7.8-11.5,0-17.9-4.9-19.4-15h45.7v-.5c.1-4.4.1-6,.1-8.3,0-8.1-2.7-15.6-7.7-21.2-5.1-5.9-12.5-9-21.1-9ZM221.3,94.9c1.4-10.1,7-15,17.2-15,8.7,0,14.8,6,15.2,15h-32.4Z" fill="#190646"/>
  <path d="M191.9,118.9c-.2-.3-.4-1-.4-2.1V45.3h-13.7v72.3c0,4.7,1,8.2,2.8,10.6,1.9,2.4,4.7,3.6,8.4,3.6h13.2v-12.4h-8.9c-1,0-1.3-.3-1.4-.5Z" fill="#190646"/>
  <path d="M507.1,73.5c-3.7-4.5-9.1-6.8-15.8-6.8-5.2,0-9.7,1.5-13.3,4.4-3.1,2.5-5.7,6.1-7.7,10.8h-.6c-2.7-9.8-9.5-15.2-19.2-15.2s-16.6,4.9-20.3,13.7h-.5l-.9-12h-11.7v63.3h13.7v-35.3c0-3,.9-7.6,3.3-11.4,1.9-3,5.6-6.6,12.1-6.6,7.8,0,11.7,5.1,11.7,15.3v38h13.7v-35.3c0-4,1.3-8.4,3.5-11.6,2-2.9,5.7-6.4,12-6.4,3.7,0,6.6,1.2,8.5,3.6,2.1,2.5,3.1,6.5,3.1,11.7v38h13.7v-39.7c.2-7.8-1.7-14.1-5.3-18.5Z" fill="#190646"/>
  <path d="M306.2,80.3h.4c2.2.1,12.7.9,17,11l11.3-5s-5.3-19.6-29.2-19.6c-8.4,0-16.1,3.4-21.6,9.6-5.6,6.2-8.7,14.7-8.7,24.1,0,19.1,12.8,33,30.5,33,6.1,0,11.6-1.3,16.4-4,5-2.8,9.1-6.9,12.1-12.2l.2-.4-9.5-6.3-.3.5c-4,6.2-10.5,9.8-17.7,9.8-5,0-9.6-2-12.8-5.7-3.2-3.7-5-9-5-14.8,0-6.1,1.8-11.2,5.2-14.8,3.2-3.4,7.3-5.2,11.7-5.2Z" fill="#190646"/>
  <path d="M374.6,79.9c7.6,0,14.3,4.3,17.7,10.6h14.1c-4.1-13.8-16.8-23.8-31.8-23.8s-27.7,10.1-31.8,23.8h14.2c3.3-6.3,10-10.6,17.6-10.6Z" fill="#190646"/>
  <path d="M394.5,97c.1,1,.2,2,.2,3,0,11.1-9,20.1-20.1,20.1s-20.1-9-20.1-20.1c0-1,.1-2,.2-3h-13.2c-.1,1-.1,2-.1,3,0,18.4,14.9,33.3,33.2,33.3s33.2-15,33.2-33.3c0-1,0-2-.1-3h-13.2Z" fill="#190646"/>
</svg>