<?xml version="1.0" encoding="UTF-8"?>
<svg id="Layer_1" data-name="Layer 1" xmlns="http://www.w3.org/2000/svg" viewBox="0 0 1208.7 200">
  <g>
    <path d="M93.3,54.5h-12.8l-.8,14h-9.7v11.2h9.6l.1,38c0,9.4,3.7,14.2,11.1,14.2h15.1v-12.4h-10.6c-1.5,0-1.9-.3-1.9-2.5v-37.3h12.6v-11.2h-12.7v-14Z" fill="#3c00a0"/>
    <path d="M142.4,66.7c-8.5,0-16.4,3.4-22.2,9.5-5.9,6.2-9.1,14.7-9.1,24s3,17.8,8.7,23.8c5.9,6.2,14.1,9.5,23.9,9.5,5.1,0,10.2-1.1,14.7-3.2,4.7-2.2,8.7-5.3,11.8-9.3l.3-.4-7.9-8-.4.5c-4.3,5-10.6,7.8-17.3,7.8-11.5,0-17.9-4.9-19.4-15h45.8v-.5c.1-4.4.1-6,.1-8.3,0-8.1-2.7-15.7-7.7-21.2-5.2-6-12.6-9.2-21.3-9.2ZM125.5,95c1.4-10.1,7-15,17.2-15,8.7,0,14.7,6,15.2,15h-32.4Z" fill="#3c00a0"/>
    <path d="M242.1,66.7c-8.5,0-16.4,3.4-22.2,9.5-5.9,6.2-9.1,14.7-9.1,24s3,17.8,8.7,23.8c5.9,6.2,14.1,9.5,23.9,9.5,5.1,0,10.2-1.1,14.7-3.2,4.7-2.2,8.7-5.3,11.8-9.3l.3-.4-7.9-8-.4.5c-4.3,5-10.6,7.8-17.3,7.8-11.5,0-17.9-4.9-19.4-15h45.8v-.5c.1-4.4.1-6,.1-8.3,0-8.1-2.7-15.7-7.7-21.2-5.3-6-12.7-9.2-21.3-9.2ZM225.1,95c1.4-10.1,7-15,17.2-15,8.7,0,14.8,6,15.2,15h-32.4Z" fill="#3c00a0"/>
    <path d="M195.7,119c-.2-.3-.4-1-.4-2.1V45.3h-13.7v72.4c0,4.7,1,8.2,2.8,10.6,1.9,2.4,4.7,3.6,8.4,3.6h13.2v-12.4h-8.9c-1,0-1.3-.3-1.4-.5Z" fill="#3c00a0"/>
    <path d="M511.2,73.5c-3.7-4.5-9.1-6.8-15.8-6.8-5.2,0-9.7,1.5-13.3,4.4-3.1,2.5-5.7,6.1-7.7,10.8h-.6c-2.7-9.8-9.5-15.2-19.2-15.2s-16.6,4.9-20.4,13.7h-.5l-.9-12h-11.7v63.4h13.7v-35.3c0-3,.9-7.6,3.4-11.4,1.9-3,5.6-6.6,12.1-6.6,7.8,0,11.8,5.1,11.8,15.3v38h13.7v-35.3c0-4,1.3-8.4,3.5-11.6,2-2.9,5.7-6.4,12.1-6.4,3.8,0,6.6,1.2,8.5,3.6,2.1,2.5,3.1,6.5,3.1,11.7v38h13.7v-39.7c.1-7.8-1.9-14.2-5.5-18.6Z" fill="#3c00a0"/>
    <path d="M310,80.5h.4c2.2.1,12.7.9,17,11l11.3-5s-5.3-19.6-29.2-19.6c-8.4,0-16.1,3.4-21.7,9.6s-8.7,14.8-8.7,24.1c0,19.1,12.9,33,30.6,33,6.1,0,11.6-1.3,16.4-4,5-2.8,9.1-6.9,12.1-12.2l.2-.4-9.5-6.3-.1.3c-4,6.2-10.5,9.8-17.7,9.8-5,0-9.6-2-12.8-5.7-3.2-3.7-5-9-5-14.8,0-6.1,1.8-11.2,5.2-14.8,3-3.2,7.1-5,11.5-5Z" fill="#3c00a0"/>
    <path d="M378.6,79.9c7.6,0,14.3,4.3,17.7,10.6h14.2c-4.1-13.8-16.8-23.9-31.9-23.9s-27.8,10.1-31.9,23.9h14.3c3.3-6.3,9.9-10.6,17.6-10.6Z" fill="#3c00a0"/>
    <path d="M398.3,97.1c.3,1,.4,2,.4,3,0,11.1-9,20.2-20.1,20.2s-20.1-9-20.1-20.2c0-1,.1-2,.2-3h-13.3c-.1,1-.1,2-.1,3,0,18.4,14.9,33.4,33.2,33.4s33.2-15,33.2-33.4c0-1,0-2-.1-3h-13.3Z" fill="#3c00a0"/>
  </g>
  <path d="M758.9,65.9c-8.8,0-16.9,3.5-23,9.8-6.1,6.4-9.4,15.2-9.4,24.7s3.1,18.3,9,24.5c6.1,6.4,14.6,9.7,24.7,9.7,5.3,0,10.5-1.1,15.2-3.3,4.9-2.3,9-5.5,12.2-9.6l.3-.4-8.1-8.2-.4.5c-4.4,5.1-10.9,8.1-17.9,8.1-11.9,0-18.5-5.1-20.1-15.4h47.4v-.5c.1-4.6.1-6.2.1-8.5,0-8.4-2.8-16.1-7.9-21.8-5.5-6.3-13.2-9.6-22.1-9.6M774.9,95h-33.5c1.5-10.4,7.3-15.4,17.8-15.4,8.9,0,15.2,6.2,15.7,15.4" fill="#00b8eb"/>
  <path d="M935.3,65.9c-19,0-34.4,15.4-34.4,34.4s15.4,34.4,34.4,34.4,34.4-15.4,34.4-34.4-15.4-34.4-34.4-34.4M956.1,100.3c0,11.4-9.3,20.8-20.8,20.8s-20.8-9.3-20.8-20.8,9.3-20.8,20.8-20.8,20.8,9.3,20.8,20.8" fill="#00b8eb"/>
  <path d="M688.5,65.8c-9.9,0-17.2,4.8-21.7,14.2h-.5l-.3-12.4h-11.5v88.7h13.8v-35.4h.4c1.7,3.9,4.1,7.1,7.1,9.4,3.7,2.9,8.2,4.4,13.4,4.4,7.9,0,15.2-3.4,20.5-9.6,5.3-6.3,8.3-15.1,8.3-24.9s-2.9-18.5-8.3-24.7c-5.4-6.3-12.9-9.7-21.2-9.7M703.5,100.5c0,12.6-7,21-17.4,21-5.3,0-9.8-2.2-12.9-6.3-2.9-3.8-4.5-9.1-4.5-14.9s1.7-11.3,4.7-15.1c3.2-4.1,7.8-6.3,13.1-6.3,5,0,9.2,2.1,12.3,6,3.1,4,4.7,9.4,4.7,15.6" fill="#00b8eb"/>
  <path d="M813,79.5h-.4l-.8-11.8h-11.9v65.3h14.2v-37.8c0-8.6,3.5-12.3,11.6-12.3h9.1v-15.3h-4.6c-9.2,0-14.8,3.9-17.2,11.9" fill="#00b8eb"/>
  <path d="M866.3,76.7c7.7,0,13.7,4.1,16.4,11.3l.2.5,11-4.1-.2-.5c-2.3-5.8-5.8-10.3-10.4-13.5-4.7-3.2-10.3-4.8-16.7-4.8-5.9,0-11.8,1.9-16.1,5.3-4.8,3.7-7.4,9-7.4,14.9s2,10.2,6,13.7c3.4,3,8.1,5.3,14.6,7h0c.5.1.9.2,1.4.3,3.9.9,7.7,1.7,10.3,3,2.8,1.4,4.1,3.2,4.1,5.7,0,5.1-6,7.4-12,7.4-7.9,0-15.3-4.2-19.2-11l-.3-.5-10.2,5.5.2.5c2.4,5.2,6.4,9.5,11.5,12.4,5.1,3,11.3,4.5,17.9,4.5,7.1,0,13.6-1.7,18.3-4.9,5.2-3.5,8-8.5,8-14.3.1-5.6-2.3-10-7.1-13.4-4.5-3.1-10.5-4.9-15.2-6.1-7.3-2.1-15.5-4.4-15.5-10.7.1-3.9,3.9-8.2,10.4-8.2" fill="#00b8eb"/>
  <path d="M1014.1,65.9c-4.9,0-9.6,1.5-13.4,4.2-3.5,2.5-6.3,5.9-8.1,9.9h-.6v-12.3h-13v65.3h14.2v-36.4c0-2.8,1.2-7.3,3.8-11.2,2.2-3.2,6.1-7.1,12.5-7.1,4.4,0,7.6,1.3,9.6,3.9,2,2.5,2.9,6.3,2.9,11.6v39.2h14.2v-41c0-8.1-1.9-14.5-5.6-19.1-3.8-4.6-9.4-7-16.5-7" fill="#00b8eb"/>
  <path d="M1102.8,120.1v-29.4c0-7.3-2.3-13.4-6.7-17.8-4.5-4.6-11.1-7-19-7-14.1,0-23.9,6.4-29.9,19.6l-.2.5,12.3,5.7.2-.5c3.4-7.3,10-12.2,16.4-12.2,7.2,0,12.6,4.8,12.6,11.2v4.6h-14.9c-16.7,0-27.1,8-27.1,20.9,0,5.6,2.1,10.4,6,13.7,3.7,3.2,8.9,4.9,14.7,4.9,5.3,0,10.3-1.5,14.4-4.4,3.8-2.6,6.8-6.3,8.9-10.6h.5l-.1,3.5c0,6.5,3.2,9.9,9.2,9.9h9.2v-11.2h-5.5c-.9.3-1-.7-1-1.4M1088.4,106.7c-.5,3.9-2.9,7.7-6.7,10.7-3.4,2.7-7.6,4.5-10.6,4.5-2.8,0-5.4-.7-7.2-1.8-1.9-1.2-2.9-3-2.9-5.1,0-2.7,1.7-4.9,4.9-6.3,3-1.3,7.2-2,12.1-2,.1,0,10.4,0,10.4,0Z" fill="#00b8eb"/>
  <path d="M1134.8,120.2c-1,0-1.3-.2-1.5-.4-.3-.3-.4-1-.4-2.1V43.8h-14.2v74.6c0,4.8,1,8.5,2.9,10.9s4.9,3.7,8.6,3.7h13.6v-12.7l-9-.1h0Z" fill="#00b8eb"/>
  <polyline points="584.3 50.1 584.3 138.6 588.4 138.6 588.4 50.1" fill="#6e6e6e"/>
</svg>