<?xml version="1.0" encoding="UTF-8"?>
<svg id="Layer_1" data-name="Layer 1" xmlns="http://www.w3.org/2000/svg" width="300" height="100" viewBox="0 0 300 100">
  <path d="M205.73,55.74c0,1.43,1.47,2.18,2.9,2.18,2.59,0,5.11-2.49,5.39-4.88h-3.03c-2.93,0-5.25.89-5.25,2.69Z" fill="#fff"/>
  <path d="M190.15,45.37c-2.97,0-5.11,2.28-5.11,6.14s1.98,6.24,5.08,6.24,5.15-2.83,5.15-6.24-1.81-6.14-5.11-6.14Z" fill="#fff"/>
  <path d="M206.57,20.39h-113.14c-16.35,0-29.61,13.26-29.61,29.61h0c0,16.35,13.26,29.61,29.61,29.61h113.14c16.35,0,29.61-13.26,29.61-29.61h0c0-16.35-13.26-29.61-29.61-29.61ZM88.88,45.45h9.11v9.11h-9.11v-9.11ZM93.43,71.2c-11.65,0-21.2-9.49-21.2-21.2h8.4c0,7.07,5.73,12.8,12.8,12.8s12.8-5.73,12.8-12.8h8.4c0,11.65-9.49,21.2-21.2,21.2ZM131.26,45.41h-4.5v11.08c0,.68.17.89.72.89h3.78v3.31h-5.08c-2.05,0-3.1-1.3-3.1-3.99l-.03-11.29h-2.83v-2.97h2.83l.24-4.09h3.44v4.09h4.54v2.97ZM138.08,60.68h-3.68v-18.28h3.68v18.28ZM136.27,39.68c-1.36,0-2.49-1.02-2.49-2.39s1.09-2.32,2.45-2.32,2.45,1.02,2.45,2.32c0,1.36-1.09,2.39-2.42,2.39ZM158.47,53.08h-13.33c.55,3.27,2.97,4.91,5.56,4.91,1.91,0,3.92-.85,5.46-2.59l2.05,2.15c-1.88,2.42-4.74,3.65-7.54,3.65-4.64,0-9.17-3.24-9.17-9.62,0-5.56,3.68-9.65,8.83-9.65s8.18,4.09,8.18,8.73c0,.65,0,1.12-.03,2.42ZM177.94,60.68h-3.72v-10.3c0-3.65-1.4-5.25-3.72-5.25-2.76,0-4.81,2.39-4.81,6.38v9.17h-3.72v-18.24h3.41v3.51h.24c.65-2.25,3.31-4.02,6.21-4.02,4.02,0,6.1,2.76,6.1,7.26v11.49ZM198.98,60.68h-3.1v-3.51h-.2c-1.02,2.25-3.07,4.02-6.17,4.02-4.74,0-8.25-3.92-8.25-9.65s3.38-9.61,8.11-9.61c3,0,4.94,1.84,5.76,3.92h.24v-10.23h3.61v25.06ZM219.37,60.68h-2.11c-1.64,0-2.46-.92-2.46-2.66l.03-1.16h-.31c-1.09,2.42-3.51,4.26-6.61,4.26s-5.73-1.94-5.73-5.08c0-3.72,3.58-5.69,7.54-5.69h4.3v-1.12c0-2.66-1.64-4.09-3.55-4.09-2.35,0-3.65,1.16-4.74,3.82l-3.07-1.3c1.19-3.61,4.02-5.73,7.81-5.73,4.23,0,7.02,2.52,7.02,6.89v8.29c0,.41.17.65.48.65h1.4v2.93Z" fill="#fff"/>
  <path d="M150.12,45.13c-2.25,0-4.5,1.6-4.98,5.08h9.79c-.07-3.24-2.42-5.08-4.81-5.08Z" fill="#fff"/>
</svg>